STARTFONT 2.1
COMMENT
COMMENT Converted from OpenType font "Q:\font stuff\winfont\Weltron 2001.ttf" by "otf2bdf 3.0".
COMMENT
FONT -FreeType-Weltron 2001-Medium-R-Normal--52-520-72-72-P-309-ISO10646-1
SIZE 52 72 72
FONTBOUNDINGBOX 67 93 -13 -28
STARTPROPERTIES 19
FOUNDRY "FreeType"
FAMILY_NAME "Weltron 2001"
WEIGHT_NAME "Medium"
SLANT "R"
SETWIDTH_NAME "Normal"
ADD_STYLE_NAME ""
PIXEL_SIZE 52
POINT_SIZE 520
RESOLUTION_X 72
RESOLUTION_Y 72
SPACING "P"
AVERAGE_WIDTH 309
CHARSET_REGISTRY "ISO10646"
CHARSET_ENCODING "1"
FONT_ASCENT 65
FONT_DESCENT 28
COPYRIGHT "Weltron ©2001 Font"a"licious Fonts."
_OTF_FONTFILE "Q:\font stuff\winfont\Weltron 2001.ttf"
_OTF_PSNAME "Weltron2001"
ENDPROPERTIES
CHARS 233
STARTCHAR 0020
ENCODING 32
SWIDTH 211 0
DWIDTH 11 0
BBX 0 0 0 0
BITMAP
ENDCHAR
STARTCHAR 0021
ENCODING 33
SWIDTH 230 0
DWIDTH 12 0
BBX 15 61 0 -13
BITMAP
FFFE
FFFE
FFFE
E00E
E00E
E00E
E00E
E00E
E00E
E00E
E00E
E00E
E00E
E00E
E00E
E00E
E00E
E00E
E00E
E00E
E00E
E00E
E00E
E00E
E00E
E00E
E00E
E00E
E00E
E00E
E00E
E00E
E00E
E00E
FFFE
FFFE
FFFE
E00E
E00E
E00E
E00E
E00E
E00E
E00E
E00E
E00E
E00E
E00E
FFFE
FFFE
FFFE
FFFE
FFFE
FFFE
FFFE
FFFE
FFFE
FFFE
FFFE
FFFE
FFFE
ENDCHAR
STARTCHAR 0022
ENCODING 34
SWIDTH 519 0
DWIDTH 27 0
BBX 28 32 0 19
BITMAP
FFFFFFF0
FFFFFFF0
FFFFFFF0
E00F0070
E00F0070
E00F0070
E00F0070
E00F0070
E00F0070
E00F0070
E00F0070
E00F0070
E00F0070
E00F0070
E00F0070
E00F0070
E00F0070
E00F0070
E00F0070
FFFFFFF0
FFFFFFF0
FFFFFFF0
FFFFFFF0
FFFFFFF0
FFFFFFF0
FFFFFFF0
FFFFFFF0
FFFFFFF0
FFFFFFF0
FFFFFFF0
FFFFFFF0
FFFFFFF0
ENDCHAR
STARTCHAR 0023
ENCODING 35
SWIDTH 480 0
DWIDTH 25 0
BBX 28 49 0 -7
BITMAP
1FFFFF80
1FFFFF80
1FFFFF80
1C000380
1C000380
1C000380
1C000380
FC0003F0
FC0003F0
FC0003F0
E0000070
E0000070
E0000070
E0000070
E0000070
E0000070
E0000070
E0000070
E0000070
E0000070
E0000070
E0000070
E0000070
E0000070
E0000070
E0000070
E0000070
E0000070
E0000070
FC0003F0
FC0003F0
FC0003F0
FC0003F0
FC0003F0
FC0003F0
FC0003F0
FFFFFFF0
FFFFFFF0
FFFFFFF0
FFFFFFF0
FFFFFFF0
FFFFFFF0
1FFFFF80
1FFFFF80
1FFFFF80
1FFFFF80
1FFFFF80
1FFFFF80
1FFFFF80
ENDCHAR
STARTCHAR 0024
ENCODING 36
SWIDTH 480 0
DWIDTH 25 0
BBX 28 61 0 -13
BITMAP
03FFFC00
03FFFC00
03FFFC00
03801C00
03801C00
03801C00
03801C00
07801E00
1F801F00
1E000780
3C0003C0
780001C0
700000E0
F00000E0
E0000070
E0000070
E0000070
E0000070
E00E0070
E00E0070
E007FFF0
E001FFF0
E0003FF0
F0000F00
70000780
780001C0
3C0001E0
1E0000E0
1F800070
FFC00070
FFF00070
FFFE0070
E00E0070
E0000070
E0000070
E0000070
E0000070
E00000F0
F00000F0
F80001F0
F80003F0
FE0007F0
FF801FF0
FF801FF0
FF801FF0
FF801FF0
FF801FF0
FF801FF0
7FFFFFE0
7FFFFFE0
3FFFFFC0
3FFFFFC0
1FFFFF80
0FFFFF00
03FFFC00
03FFFC00
03FFFC00
03FFFC00
03FFFC00
03FFFC00
03FFFC00
ENDCHAR
STARTCHAR 0025
ENCODING 37
SWIDTH 1000 0
DWIDTH 52 0
BBX 54 64 0 -13
BITMAP
00FF800FFFF000
03FFE00FFFF000
0FFFF81FFFE000
1F807C1C00E000
3E001E1C01E000
3C000F3C01C000
7800073801C000
700003B803C000
F00003F8038000
E00003F0038000
E00001F0078000
E00001F0070000
E00001E0070000
E00801E00F0000
E00801E00E0000
E00801C00E0000
E00001C01E0000
E00001801C0000
E00001801C0000
E00003803C0000
F0000300380000
F0000300380000
F8000700780000
FC000E00700000
FE001E00700000
FF807E00FFFC00
FFFFFC00FFFF00
FFFFFC00FFFF80
FFFFFC01F807E0
FFFFF801E001E0
FFFFF801C000F0
7FFFF803800078
7FFFF003000038
3FFFF00300003C
3FFFF00700001C
1FFFE00600001C
0FFFE00600001C
03FFE00E00001C
00FFC00E00401C
0001C00E00401C
0001C01E00401C
0003801E00001C
0003801E00001C
0007803E00001C
0007003F00001C
0007003F00003C
000F007F00003C
000E007F80007C
000E007FC000FC
001E00FFE001FC
001C00FFF807FC
001FFFFFFFFFFC
003FFFFFFFFFFC
003FFFFFFFFFFC
003FFFFFFFFFFC
003FFFFFFFFFFC
003FFFF7FFFFF8
003FFFF3FFFFF8
003FFFF3FFFFF0
003FFFE1FFFFE0
003FFFE0FFFFE0
003FFFE07FFFC0
003FFFC03FFF00
003FFFC007FC00
ENDCHAR
STARTCHAR 0026
ENCODING 38
SWIDTH 480 0
DWIDTH 25 0
BBX 28 61 0 -13
BITMAP
03FFFC00
03FFFC00
03FFFC00
03801C00
03801C00
03801C00
03801C00
0F801E00
1F801F80
3E000780
3C0003C0
780001E0
700000E0
F00000E0
E0000070
E0000070
E0000070
E0000070
E00E0070
E00FFFF0
E00FFFF0
E00000E0
E00000E0
E00000E0
E00000E0
E00000E0
E00000E0
E00000E0
E00000E0
E00000F0
E00FFFF0
E00FFFF0
E00E0070
E0000070
E0000070
E0000070
E0000070
F00000F0
F00000F0
F80001F0
FC0003F0
FE0007F0
FF801FF0
FF801FF0
FF801FF0
FF801FF0
FF801FF0
FF801FF0
7FFFFFE0
7FFFFFE0
3FFFFFC0
3FFFFFC0
1FFFFF80
0FFFFF00
03FFFC00
03FFFC00
03FFFC00
03FFFC00
03FFFC00
03FFFC00
03FFFC00
ENDCHAR
STARTCHAR 0027
ENCODING 39
SWIDTH 230 0
DWIDTH 12 0
BBX 15 32 0 19
BITMAP
FFFE
FFFE
FFFE
E00E
E00E
E00E
E00E
E00E
E00E
E00E
E00E
E00E
E00E
E00E
E00E
E00E
E00E
E00E
E00E
FFFE
FFFE
FFFE
FFFE
FFFE
FFFE
FFFE
FFFE
FFFE
FFFE
FFFE
FFFE
FFFE
ENDCHAR
STARTCHAR 0028
ENCODING 40
SWIDTH 384 0
DWIDTH 20 0
BBX 22 64 0 -13
BITMAP
00FFFC
03FFFC
0FFFFC
1F801C
3E001C
3C001C
78001C
70001C
F0001C
E0001C
E0001C
E0001C
E0001C
E00FFC
E00FFC
E00FFC
E00FFC
E00FFC
E00FFC
E00FFC
E00FFC
E00FFC
E00FFC
E00FFC
E00FFC
E00FFC
E00E00
E00E00
E00E00
E00E00
E00E00
E00E00
E00E00
E00E00
E00E00
E00E00
E00E00
E00E00
E00FFC
E00FFC
E00FFC
E0001C
E0001C
E0001C
E0001C
F0001C
F0001C
F8001C
FC001C
FE001C
FF801C
FFFFFC
FFFFFC
FFFFFC
FFFFFC
FFFFFC
7FFFFC
7FFFFC
3FFFFC
3FFFFC
1FFFFC
0FFFFC
03FFFC
00FFFC
ENDCHAR
STARTCHAR 0029
ENCODING 41
SWIDTH 384 0
DWIDTH 20 0
BBX 22 64 0 -13
BITMAP
FFFC00
FFFF00
FFFFC0
E007E0
E001E0
E000F0
E00078
E00038
E0003C
E0001C
E0001C
E0001C
E0001C
FFC01C
FFC01C
FFC01C
FFC01C
FFC01C
FFC01C
FFC01C
FFC01C
FFC01C
FFC01C
FFC01C
FFC01C
FFC01C
01C01C
01C01C
01C01C
01C01C
01C01C
01C01C
01C01C
01C01C
01C01C
01C01C
01C01C
01C01C
FFC01C
FFC01C
FFC01C
E0001C
E0001C
E0001C
E0001C
E0003C
E0003C
E0007C
E000FC
E001FC
E007FC
FFFFFC
FFFFFC
FFFFFC
FFFFFC
FFFFFC
FFFFF8
FFFFF8
FFFFF0
FFFFF0
FFFFE0
FFFFC0
FFFF00
FFFC00
ENDCHAR
STARTCHAR 002A
ENCODING 42
SWIDTH 807 0
DWIDTH 42 0
BBX 34 38 5 6
BITMAP
0007F80000
003FFF0000
00F001C000
0181FE6000
07077FB800
0E1E08EC00
0C24091600
1844090E00
30840D0B00
2083F20580
6100000580
410B933280
C10B95D2C0
C10972B2C0
D139710240
ED39300240
D51910D240
8300000240
8301FFC440
9A82004440
D142004840
CB43FF88C0
C1200010C0
7118006080
6204008180
3C03FF0100
3000000300
1800060600
0C00000C00
0600001800
0380003000
034000E000
0338072000
0307F82000
03C001E000
01FFFEE000
00FFFFC000
000FFC0000
ENDCHAR
STARTCHAR 002B
ENCODING 43
SWIDTH 480 0
DWIDTH 25 0
BBX 28 39 0 -5
BITMAP
01FFFC00
01FFFC00
01FFFC00
01C01C00
01C01C00
01C01C00
01C01C00
FFC01FF0
FFC01FF0
FFC01FF0
E0000070
E0000070
E0000070
E0000070
E0000070
E0000070
E0000070
E0000070
E0000070
FFC01FF0
FFC01FF0
FFC01FF0
FFC01FF0
FFC01FF0
FFC01FF0
FFC01FF0
FFFFFFF0
FFFFFFF0
FFFFFFF0
FFFFFFF0
FFFFFFF0
FFFFFFF0
01FFFC00
01FFFC00
01FFFC00
01FFFC00
01FFFC00
01FFFC00
01FFFC00
ENDCHAR
STARTCHAR 002C
ENCODING 44
SWIDTH 230 0
DWIDTH 12 0
BBX 15 33 0 -19
BITMAP
FFFE
FFFE
FFFE
E00E
E00E
E00E
E00E
E00E
E00E
E00E
E00E
E00E
E00E
E00E
E00E
E00E
E00E
E00E
E00E
E00E
FFFE
FFFE
FFFE
FFFE
FFFE
FFFE
FFFE
FFFE
FFFE
FFFE
FFFE
FFFE
FFFE
ENDCHAR
STARTCHAR 002D
ENCODING 45
SWIDTH 269 0
DWIDTH 14 0
BBX 17 26 0 7
BITMAP
FFFF80
FFFF80
FFFF80
E00380
E00380
E00380
E00380
E00380
E00380
E00380
E00380
E00380
E00380
FFFF80
FFFF80
FFFF80
FFFF80
FFFF80
FFFF80
FFFF80
FFFF80
FFFF80
FFFF80
FFFF80
FFFF80
FFFF80
ENDCHAR
STARTCHAR 002E
ENCODING 46
SWIDTH 230 0
DWIDTH 12 0
BBX 15 27 0 -13
BITMAP
FFFE
FFFE
FFFE
E00E
E00E
E00E
E00E
E00E
E00E
E00E
E00E
E00E
E00E
E00E
FFFE
FFFE
FFFE
FFFE
FFFE
FFFE
FFFE
FFFE
FFFE
FFFE
FFFE
FFFE
FFFE
ENDCHAR
STARTCHAR 002F
ENCODING 47
SWIDTH 480 0
DWIDTH 25 0
BBX 33 61 -3 -13
BITMAP
00007FFF80
00007FFF80
0000FFFF00
0000E00700
0000E00700
0001C00700
0001C00E00
0001C00E00
0003800E00
0003801C00
0003801C00
0007001C00
0007003C00
0007003800
000E003800
000E007800
000E007000
001C007000
001C00F000
003C00F000
003800E000
003801E000
007801E000
007001C000
007003C000
00F003C000
00E003C000
00E0078000
01E0078000
01C00F8000
01C00F8000
03C00F0000
03801F0000
03801F0000
07801E0000
07003E0000
07003E0000
0F003E0000
0E007C0000
0E007C0000
1E007C0000
1C00F80000
1C00F80000
3C00F80000
3801F80000
3801F00000
7801F00000
7003F00000
7FFFE00000
FFFFE00000
FFFFE00000
FFFFE00000
FFFFC00000
FFFFC00000
FFFFC00000
FFFF800000
FFFF800000
FFFF800000
FFFF800000
FFFF000000
FFFF000000
ENDCHAR
STARTCHAR 0030
ENCODING 48
SWIDTH 480 0
DWIDTH 25 0
BBX 28 61 0 -13
BITMAP
00FFF000
03FFFC00
0FFFFE00
1F801F80
3E000780
3C0003C0
780001E0
700000E0
F00000F0
E0000070
E0000070
E0000070
E0000070
E0060070
E0060070
E0060070
E0060070
E0060070
E0060070
E0060070
E0060070
E0060070
E0060070
E0060070
E0060070
E0060070
E0060070
E0060070
E0060070
E0060070
E0060070
E0060070
E0060070
E0060070
E0060070
E0060070
E0060070
E0060070
E0000070
E0000070
E0000070
E0000070
F00000F0
F00000F0
F80001F0
FC0003F0
FE0007F0
FF801FF0
FFFFFFF0
FFFFFFF0
FFFFFFF0
FFFFFFF0
FFFFFFF0
7FFFFFE0
7FFFFFE0
3FFFFFC0
3FFFFFC0
1FFFFF80
0FFFFF00
03FFFC00
00FFF000
ENDCHAR
STARTCHAR 0031
ENCODING 49
SWIDTH 326 0
DWIDTH 17 0
BBX 20 61 0 -13
BITMAP
FFFE00
FFFF00
FFFF80
E003C0
E001E0
E000F0
E00070
E00070
E00070
E00070
E00070
E00070
E00070
FF0070
FF0070
FF0070
FF0070
FF0070
FF0070
FF0070
FF0070
FF0070
FF0070
FF0070
FF0070
FF0070
070070
070070
070070
070070
070070
070070
070070
070070
070070
070070
070070
070070
070070
070070
070070
070070
070070
070070
070070
070070
070070
070070
07FFF0
07FFF0
07FFF0
07FFF0
07FFF0
07FFF0
07FFF0
07FFF0
07FFF0
07FFF0
07FFF0
07FFF0
07FFF0
ENDCHAR
STARTCHAR 0032
ENCODING 50
SWIDTH 480 0
DWIDTH 25 0
BBX 28 61 0 -13
BITMAP
00FFF000
03FFFC00
07FFFE00
1F801F80
1E000780
3C0003C0
780001E0
700000E0
F00000F0
E0000070
E0000070
E0000070
E0000070
E00E0070
E00E0070
FFFE0070
FFFE0070
FFFE0070
007C0070
01F00070
07C00070
0F0000F0
3C0000E0
380001E0
700003C0
70000780
E0001F00
E0007E00
E001FC00
E00FF000
E00FC000
E00F0000
E00E0000
E00E0000
E00E0000
E00FFFF0
E00FFFF0
E00FFFF0
E0000070
E0000070
E0000070
E0000070
E0000070
E0000070
E0000070
E0000070
E0000070
E0000070
FFFFFFF0
FFFFFFF0
FFFFFFF0
FFFFFFF0
FFFFFFF0
FFFFFFF0
FFFFFFF0
FFFFFFF0
FFFFFFF0
FFFFFFF0
FFFFFFF0
FFFFFFF0
FFFFFFF0
ENDCHAR
STARTCHAR 0033
ENCODING 51
SWIDTH 480 0
DWIDTH 25 0
BBX 28 61 0 -13
BITMAP
00FFF000
03FFFC00
0FFFFE00
1F801F80
3E000780
3C0003C0
780001E0
700000E0
F00000F0
E0000070
E0000070
E0000070
E0000070
E00E0070
E00E0070
E00E0070
E00E0070
E00E0070
E00E0070
FFFE0070
E0000070
E0000070
E0000070
E0000070
E0000070
E0000070
E0000070
E0000070
E0000070
E0000070
FFFE0070
FFFE0070
E00E0070
E00E0070
E00E0070
E00E0070
E00E0070
E00E0070
E0000070
E0000070
E0000070
E0000070
F00000F0
F00000F0
F80001F0
FC0003F0
FE0007F0
FF801FF0
FFFFFFF0
FFFFFFF0
FFFFFFF0
FFFFFFF0
FFFFFFF0
7FFFFFE0
7FFFFFE0
3FFFFFC0
3FFFFFC0
1FFFFF80
0FFFFF00
03FFFC00
00FFF000
ENDCHAR
STARTCHAR 0034
ENCODING 52
SWIDTH 480 0
DWIDTH 25 0
BBX 28 61 0 -13
BITMAP
FFFFFFF0
FFFFFFF0
FFFFFFF0
E0070070
E0070070
E0070070
E0070070
E0070070
E0070070
E0070070
E0070070
E0070070
E0070070
E0070070
E0070070
E0070070
E0070070
E0070070
E0070070
E0070070
E0070070
E0070070
E0070070
E0000070
E0000070
E0000070
E0000070
F0000070
F0000070
F8000070
FC000070
FE000070
FF800070
FFFF0070
FFFF0070
FFFF0070
FFFF0070
FFFF0070
7FFF0070
7FFF0070
3FFF0070
3FFF0070
1FFF0070
0FFF0070
03FF0070
00FF0070
00070070
00070070
0007FFF0
0007FFF0
0007FFF0
0007FFF0
0007FFF0
0007FFF0
0007FFF0
0007FFF0
0007FFF0
0007FFF0
0007FFF0
0007FFF0
0007FFF0
ENDCHAR
STARTCHAR 0035
ENCODING 53
SWIDTH 480 0
DWIDTH 25 0
BBX 28 61 0 -13
BITMAP
FFFFFFF0
FFFFFFF0
FFFFFFF0
E0000070
E0000070
E0000070
E0000070
E0000070
E0000070
E0000070
E0000070
E0000070
E0000070
E00FFFF0
E00FFFF0
E00FFFF0
E00FF000
E00FFC00
E00FFE00
E0001F80
E0000780
E00003C0
E00001E0
E00000E0
E00000F0
E0000070
E0000070
E0000070
E0000070
FFFF0070
FFFF0070
FFFF0070
00070070
00070070
00070070
FFFF0070
FFFF0070
FFFF0070
E0000070
E0000070
E0000070
E0000070
E00000F0
E00000F0
E00001F0
E00003F0
E00007F0
E0001FF0
FFFFFFF0
FFFFFFF0
FFFFFFF0
FFFFFFF0
FFFFFFF0
FFFFFFE0
FFFFFFE0
FFFFFFC0
FFFFFF80
FFFFFF80
FFFFFF00
FFFFFC00
FFFFF000
ENDCHAR
STARTCHAR 0036
ENCODING 54
SWIDTH 480 0
DWIDTH 25 0
BBX 28 61 0 -13
BITMAP
00FFFFF0
03FFFFF0
0FFFFFF0
1F800070
3E000070
3C000070
78000070
70000070
F0000070
E0000070
E0000070
E0000070
E0000070
E007FFF0
E007FFF0
E007FFF0
E007FC00
E0001F00
E0000780
E00003C0
E00001C0
E00000E0
E00000E0
E0000070
E0000070
E0000070
E0060070
E0060070
E0060070
E0060070
E0060070
E0060070
E0060070
E0060070
E0060070
E0060070
E0060070
E0060070
E0000070
E0000070
E0000070
E0000070
F00000F0
F00000F0
F80001F0
FC0003F0
FE0007F0
FF801FF0
FFFFFFF0
FFFFFFF0
FFFFFFF0
FFFFFFF0
FFFFFFF0
7FFFFFE0
7FFFFFE0
3FFFFFC0
3FFFFFC0
1FFFFF80
0FFFFF00
03FFFC00
00FFF000
ENDCHAR
STARTCHAR 0037
ENCODING 55
SWIDTH 519 0
DWIDTH 27 0
BBX 33 61 -2 -13
BITMAP
3FFFFFFF80
3FFFFFFF80
3FFFFFFF00
3800000700
3800000700
3800000600
3800000E00
3800000E00
3800000E00
3800001C00
3800001C00
3800001C00
3800003800
3FFF003800
3FFF003800
3FFE007000
3FFE007000
3FFE007000
3FFC00F000
3FFC00E000
3FFC00E000
3FF801E000
3FF801C000
3FF801C000
3FF003C000
3FF0038000
00F0038000
00E0078000
00E0078000
01E0070000
01C00F0000
01C00F0000
03C00E0000
03801E0000
03801E0000
07801C0000
07003C0000
07003C0000
0F003C0000
0E00780000
0E00780000
1E00780000
1C00F00000
1C00F00000
3C00F00000
3801E00000
3801E00000
7801E00000
7FFFE00000
7FFFC00000
FFFFC00000
FFFFC00000
FFFF800000
FFFF800000
FFFF800000
FFFF000000
FFFF000000
FFFF000000
FFFF000000
FFFE000000
FFFE000000
ENDCHAR
STARTCHAR 0038
ENCODING 56
SWIDTH 480 0
DWIDTH 25 0
BBX 28 61 0 -13
BITMAP
00FFF000
03FFFC00
0FFFFE00
1F801F80
3E000780
3C0003C0
780001E0
700000E0
F00000E0
E0000070
E0000070
E0000070
E0000070
E0060070
E0060070
E0060070
E0060070
E0060070
E0060070
E0000070
E0000070
E0000070
600000E0
700000E0
F00000E0
E0000070
E0000070
E0000070
E0000070
E0060070
E0060070
E0060070
E0060070
E0060070
E0060070
E0060070
E0060070
E0060070
E0000070
E0000070
E0000070
E0000070
F00000F0
F00000F0
F80001F0
FC0003F0
FE0007F0
FF801FF0
FFFFFFF0
FFFFFFF0
FFFFFFF0
FFFFFFF0
FFFFFFF0
7FFFFFE0
7FFFFFE0
3FFFFFC0
3FFFFF80
1FFFFF80
0FFFFE00
03FFFC00
00FFF000
ENDCHAR
STARTCHAR 0039
ENCODING 57
SWIDTH 480 0
DWIDTH 25 0
BBX 28 61 0 -13
BITMAP
00FFF000
03FFFC00
0FFFFE00
1F801F80
3E000780
3C0003C0
780001E0
700000E0
F00000E0
E0000070
E0000070
E0000070
E0000070
E0060070
E0060070
E0060070
E0060070
E0060070
E0060070
E0060070
E0060070
E0060070
E0060070
E0060070
E0060070
E0000070
E0000070
E0000070
70000070
70000070
38000070
3C000070
1E000070
0F800070
03FE0070
FFFE0070
FFFE0070
FFFE0070
E0000070
E0000070
E0000070
E0000070
E00000F0
E00000F0
E00001F0
E00003F0
E00007F0
E0001FF0
FFFFFFF0
FFFFFFF0
FFFFFFF0
FFFFFFF0
FFFFFFF0
FFFFFFE0
FFFFFFE0
FFFFFFC0
FFFFFF80
FFFFFF80
FFFFFE00
FFFFFC00
FFFFF000
ENDCHAR
STARTCHAR 003A
ENCODING 58
SWIDTH 230 0
DWIDTH 12 0
BBX 15 41 0 -13
BITMAP
FFFE
FFFE
FFFE
E00E
E00E
E00E
E00E
E00E
E00E
E00E
E00E
E00E
E00E
FFFE
FFFE
FFFE
E00E
E00E
E00E
E00E
E00E
E00E
E00E
E00E
E00E
E00E
E00E
E00E
FFFE
FFFE
FFFE
FFFE
FFFE
FFFE
FFFE
FFFE
FFFE
FFFE
FFFE
FFFE
FFFE
ENDCHAR
STARTCHAR 003B
ENCODING 59
SWIDTH 230 0
DWIDTH 12 0
BBX 15 47 0 -19
BITMAP
FFFE
FFFE
FFFE
E00E
E00E
E00E
E00E
E00E
E00E
E00E
E00E
E00E
E00E
FFFE
FFFE
FFFE
E00E
E00E
E00E
E00E
E00E
E00E
E00E
E00E
E00E
E00E
E00E
E00E
E00E
E00E
E00E
E00E
E00E
E00E
FFFE
FFFE
FFFE
FFFE
FFFE
FFFE
FFFE
FFFE
FFFE
FFFE
FFFE
FFFE
FFFE
ENDCHAR
STARTCHAR 003C
ENCODING 60
SWIDTH 807 0
DWIDTH 42 0
BBX 39 39 3 5
BITMAP
07FFFFFF80
1FFFFFFFE0
3F07FFC0F0
7C01FF0038
F800FC001C
F00078000C
F000380004
E000300006
E000300006
E000100002
E000100002
E000100002
E000300006
E000300006
F000380006
F00078000E
F800FC001E
FC01FE003E
FF07FFC0FE
FFFFFFFFFE
FF07FFC0FE
FC01FF003E
F800FC001E
F00078000E
F000380006
E000300006
E000300006
E000100002
E000100002
E000100002
E000300006
E000300006
F000380006
F00078000C
F800FC001C
7C01FE0038
3F07FFC0F0
1FFFFFFFE0
07FFFFFF80
ENDCHAR
STARTCHAR 003D
ENCODING 61
SWIDTH 480 0
DWIDTH 25 0
BBX 28 39 0 -5
BITMAP
FFFFFFF0
FFFFFFF0
FFFFFFF0
E0000070
E0000070
E0000070
E0000070
E0000070
E0000070
E0000070
E0000070
E0000070
FFFFFFF0
FFFFFFF0
FFFFFFF0
E0000070
E0000070
E0000070
E0000070
E0000070
E0000070
E0000070
E0000070
E0000070
E0000070
E0000070
FFFFFFF0
FFFFFFF0
FFFFFFF0
FFFFFFF0
FFFFFFF0
FFFFFFF0
FFFFFFF0
FFFFFFF0
FFFFFFF0
FFFFFFF0
FFFFFFF0
FFFFFFF0
FFFFFFF0
ENDCHAR
STARTCHAR 003E
ENCODING 62
SWIDTH 269 0
DWIDTH 14 0
BBX 39 39 2 5
BITMAP
07FFFFFFC0
1FFFFFFFF0
3F03FFC0F8
7C00FF003C
78007E001C
F8007C000E
F000380006
E000380006
E000100002
E000100002
E000100002
E000100002
E000100002
E000380006
F000380006
F0007C000E
F8007E001E
FC00FF003E
FF03FFC0FE
FFFFFFFFFE
FF03FFC0FE
FC00FF003E
F8007E001E
F8007C000E
F000380006
E000380006
E000100002
E000100002
E000100002
E000100002
E000100002
E000380006
F000380006
F0007C000E
78007E001C
7C00FF003C
3F03FFC0F8
1FFFFFFFF0
07FFFFFFC0
ENDCHAR
STARTCHAR 003F
ENCODING 63
SWIDTH 480 0
DWIDTH 25 0
BBX 28 61 0 -13
BITMAP
00FFF000
03FFFC00
0FFFFE00
1F801F80
3E000780
3C0003C0
780001E0
700000E0
F00000E0
E0000070
E0000070
E0000070
E0000070
E00E0070
E00E0070
FFFE0070
FFFE0070
FFFE0070
00FE0070
03FC0070
07F80070
1F8000F0
3E0000F0
3C0001F0
780003F0
700007F0
E0001FF0
E0007FF0
E001FFF0
E007FFF0
E00FFFF0
E00FFFF0
FFFFFFE0
FFFFFFE0
FFFFFFC0
FFFFFFC0
FFFFFF80
E00FFF00
E00FFC00
E00FF000
E00FE000
E00F0000
E00E0000
E00E0000
E00E0000
E00E0000
E00E0000
E00E0000
FFFE0000
FFFE0000
FFFE0000
FFFE0000
FFFE0000
FFFE0000
FFFE0000
FFFE0000
FFFE0000
FFFE0000
FFFE0000
FFFE0000
FFFE0000
ENDCHAR
STARTCHAR 0040
ENCODING 64
SWIDTH 653 0
DWIDTH 34 0
BBX 36 61 0 -13
BITMAP
00FFFFF000
03FFFFFC00
0FFFFFFE00
1F80001F80
3E00000780
3C000003C0
78000001E0
70000000E0
F0000000E0
E000000070
E000000070
E000000070
E000000070
E00FFE0070
E00FFE0070
E00FF00070
E00EC00070
E00F800070
E00F800070
E00F000070
E00E000070
E00E000070
E00E000070
E00E000070
E00E000070
E00E000070
E00E000070
E00E000070
E00E000070
E00F000070
E00F000070
E00F800070
E00FC00070
E00EE00070
E00E380070
E00FFFFFF0
E00FFFFFF0
E00FFFFFF0
E000000070
E000000070
E000000070
E000000070
F000000070
F000000070
F800000070
FC00000070
FE00000070
FF80000070
FFFFFFFFF0
FFFFFFFFF0
FFFFFFFFF0
FFFFFFFFF0
FFFFFFFFF0
7FFFFFFFF0
7FFFFFFFF0
3FFFFFFFF0
3FFFFFFFF0
1FFFFFFFF0
0FFFFFFFF0
03FFFFFFF0
00FFFFFFF0
ENDCHAR
STARTCHAR 0041
ENCODING 65
SWIDTH 461 0
DWIDTH 24 0
BBX 27 61 0 -13
BITMAP
00FFFFE0
03FFFFE0
0FFFFFE0
1F8000E0
3E0000E0
3C0000E0
780000E0
700000E0
F00000E0
E00000E0
E00000E0
E00000E0
E00000E0
E00400E0
E00400E0
E00400E0
E00400E0
E00400E0
E00400E0
E00400E0
E00400E0
E00400E0
E00400E0
E00400E0
E00400E0
E00400E0
E00400E0
E00000E0
E00000E0
E00000E0
E00000E0
E00000E0
E00000E0
E00000E0
E00000E0
E00000E0
E00400E0
E00400E0
E00400E0
E00400E0
E00400E0
E00400E0
E00400E0
E00400E0
E00400E0
E00400E0
E00400E0
E00400E0
FFFFFFE0
FFFFFFE0
FFFFFFE0
FFFFFFE0
FFFFFFE0
FFFFFFE0
FFFFFFE0
FFFFFFE0
FFFFFFE0
FFFFFFE0
FFFFFFE0
FFFFFFE0
FFFFFFE0
ENDCHAR
STARTCHAR 0042
ENCODING 66
SWIDTH 461 0
DWIDTH 24 0
BBX 27 61 0 -13
BITMAP
FFFFC000
FFFFF800
FFFFFC00
E0003E00
E0000F00
E0000780
E0000380
E00001C0
E00001C0
E00001E0
E00000E0
E00000E0
E00000E0
E00400E0
E00400E0
E00400E0
E00400E0
E00400E0
E00400E0
E00400E0
E00000E0
E00000E0
E00000E0
E00000C0
E00001C0
E00001C0
E00000E0
E00000E0
E00000E0
E00000E0
E00400E0
E00400E0
E00400E0
E00400E0
E00400E0
E00400E0
E00400E0
E00400E0
E00000E0
E00000E0
E00000E0
E00000E0
E00001E0
E00001E0
E00003E0
E00007E0
E0000FE0
E0003FE0
FFFFFFE0
FFFFFFE0
FFFFFFE0
FFFFFFE0
FFFFFFE0
FFFFFFC0
FFFFFFC0
FFFFFF80
FFFFFF00
FFFFFF00
FFFFFC00
FFFFF800
FFFFE000
ENDCHAR
STARTCHAR 0043
ENCODING 67
SWIDTH 461 0
DWIDTH 24 0
BBX 27 61 0 -13
BITMAP
00FFC000
03FFF800
0FFFFC00
1F803E00
3E000F00
3C000780
780003C0
700001C0
F00001C0
E00000E0
E00000E0
E00000E0
E00000E0
E00C00E0
E00C00E0
E00C00E0
E00C00E0
E00C00E0
E00C00E0
E00C00E0
E00C00E0
E00C00E0
E00C00E0
E00C00E0
E00C00E0
E00C00E0
E00C00E0
E00C00E0
E00C00E0
E00FFFE0
E00FFFE0
E00FFFE0
E00E0000
E00E0000
E00E0000
E00FFFE0
E00FFFE0
E00FFFE0
E00000E0
E00000E0
E00000E0
E00000E0
F00000E0
F00000E0
F80000E0
FC0000E0
FE0000E0
FF8000E0
FFFFFFE0
FFFFFFE0
FFFFFFE0
FFFFFFE0
FFFFFFE0
7FFFFFE0
7FFFFFE0
3FFFFFE0
3FFFFFE0
1FFFFFE0
0FFFFFE0
03FFFFE0
00FFFFE0
ENDCHAR
STARTCHAR 0044
ENCODING 68
SWIDTH 461 0
DWIDTH 24 0
BBX 27 61 0 -13
BITMAP
FFFFE000
FFFFF800
FFFFFC00
E0003F00
E0000F00
E0000780
E00003C0
E00001C0
E00001E0
E00000E0
E00000E0
E00000E0
E00000E0
E00400E0
E00400E0
E00400E0
E00400E0
E00400E0
E00400E0
E00400E0
E00400E0
E00400E0
E00400E0
E00400E0
E00400E0
E00400E0
E00400E0
E00400E0
E00400E0
E00400E0
E00400E0
E00400E0
E00400E0
E00400E0
E00400E0
E00400E0
E00400E0
E00400E0
E00000E0
E00000E0
E00000E0
E00000E0
E00001E0
E00001E0
E00003E0
E00007E0
E0000FE0
E0003FE0
FFFFFFE0
FFFFFFE0
FFFFFFE0
FFFFFFE0
FFFFFFE0
FFFFFFC0
FFFFFFC0
FFFFFF80
FFFFFF00
FFFFFF00
FFFFFC00
FFFFF800
FFFFE000
ENDCHAR
STARTCHAR 0045
ENCODING 69
SWIDTH 461 0
DWIDTH 24 0
BBX 27 61 0 -13
BITMAP
00FFE000
03FFF800
0FFFFC00
1F803F00
3E000F00
3C000780
780003C0
700001C0
F00001C0
E00000E0
E00000E0
E00000E0
E00000E0
E00400E0
E00400E0
E00400E0
E00400E0
E00400E0
E00400E0
E00400E0
E00400E0
E00400E0
E00400E0
E00400E0
E00400E0
E00400E0
E00000E0
E00000E0
E00000E0
E00000E0
E00000E0
E00000E0
E00000E0
E00000E0
E00000E0
E00000E0
E007FFE0
E007FFE0
E00000E0
E00000E0
E00000E0
E00000E0
F00000E0
F00000E0
F80000E0
FC0000E0
FE0000E0
FF8000E0
FFFFFFE0
FFFFFFE0
FFFFFFE0
FFFFFFE0
FFFFFFE0
7FFFFFE0
7FFFFFE0
3FFFFFE0
3FFFFFE0
1FFFFFE0
0FFFFFE0
03FFFFE0
00FFFFE0
ENDCHAR
STARTCHAR 0046
ENCODING 70
SWIDTH 500 0
DWIDTH 26 0
BBX 28 61 0 -13
BITMAP
FFFFFFF0
FFFFFFF0
FFFFFFF0
E0000070
E0000070
E0000070
E0000070
E0000070
E0000070
E0000070
E0000070
E0000070
E0000070
E00FFFF0
E00FFFF0
E0000070
E0000070
E0000070
E0000070
E0000070
E0000070
E0000070
E0000070
E0000070
E00FFFF0
E00FFFF0
E00FFFF0
E00FFFF0
E00FFFF0
E00FFFF0
E00FFFF0
E00FFFF0
E00FFFF0
E00FFFF0
E00FFFF0
E00FFFF0
E00FFFF0
E00E0000
E00E0000
E00E0000
E00E0000
E00E0000
E00E0000
E00E0000
E00E0000
E00E0000
E00E0000
E00E0000
FFFE0000
FFFE0000
FFFE0000
FFFE0000
FFFE0000
FFFE0000
FFFE0000
FFFE0000
FFFE0000
FFFE0000
FFFE0000
FFFE0000
FFFE0000
ENDCHAR
STARTCHAR 0047
ENCODING 71
SWIDTH 461 0
DWIDTH 24 0
BBX 27 68 0 -20
BITMAP
00FFE000
03FFF800
07FFFC00
1F803F00
3E000F00
3C000780
780003C0
700001C0
F00001E0
E00000E0
E00000E0
E00000E0
E00000E0
E00C00E0
E00C00E0
E00C00E0
E00C00E0
E00C00E0
E00C00E0
E00C00E0
E00C00E0
E00FFFE0
E00FFFE0
E00C00E0
E00C00E0
E00C00E0
E00C00E0
E00C00E0
E00C00E0
E00C00E0
E00C00E0
E00C00E0
E00C00E0
E00C00E0
E00C00E0
E00C00E0
E00C00E0
E00C00E0
E00000E0
E00000E0
E00000E0
E00000E0
F00000E0
F00000E0
F80000E0
FC0000E0
FE0000E0
FF8000E0
FFFC00E0
FFFC00E0
FFFC00E0
FFFC00E0
FFFC00E0
7FFC00E0
7FFC00E0
3FFFFFE0
3FFFFFE0
1FFFFFE0
07FFFFE0
03FFFFE0
00FFFFE0
000FFFE0
000FFFE0
000FFFE0
000FFFE0
000FFFE0
000FFFE0
000FFFE0
ENDCHAR
STARTCHAR 0048
ENCODING 72
SWIDTH 461 0
DWIDTH 24 0
BBX 27 61 0 -13
BITMAP
FFFFFFE0
FFFFFFE0
FFFFFFE0
E00C00E0
E00C00E0
E00C00E0
E00C00E0
E00C00E0
E00C00E0
E00C00E0
E00C00E0
E00C00E0
E00C00E0
E00C00E0
E00C00E0
E00C00E0
E00C00E0
E00C00E0
E00C00E0
E00000E0
E00000E0
E00000E0
E00000E0
E00000E0
E00000E0
E00000E0
E00000E0
E00000E0
E00000E0
E00C00E0
E00C00E0
E00C00E0
E00C00E0
E00C00E0
E00C00E0
E00C00E0
E00C00E0
E00C00E0
E00C00E0
E00C00E0
E00C00E0
E00C00E0
E00C00E0
E00C00E0
E00C00E0
E00C00E0
E00C00E0
E00C00E0
FFFFFFE0
FFFFFFE0
FFFFFFE0
FFFFFFE0
FFFFFFE0
FFFFFFE0
FFFFFFE0
FFFFFFE0
FFFFFFE0
FFFFFFE0
FFFFFFE0
FFFFFFE0
FFFFFFE0
ENDCHAR
STARTCHAR 0049
ENCODING 73
SWIDTH 230 0
DWIDTH 12 0
BBX 15 61 0 -13
BITMAP
FFFE
FFFE
FFFE
E00E
E00E
E00E
E00E
E00E
E00E
E00E
E00E
E00E
E00E
E00E
E00E
E00E
E00E
E00E
E00E
E00E
E00E
E00E
E00E
E00E
E00E
E00E
E00E
E00E
E00E
E00E
E00E
E00E
E00E
E00E
E00E
E00E
E00E
E00E
E00E
E00E
E00E
E00E
E00E
E00E
E00E
E00E
E00E
E00E
FFFE
FFFE
FFFE
FFFE
FFFE
FFFE
FFFE
FFFE
FFFE
FFFE
FFFE
FFFE
FFFE
ENDCHAR
STARTCHAR 004A
ENCODING 74
SWIDTH 461 0
DWIDTH 24 0
BBX 27 61 0 -13
BITMAP
000FFFE0
000FFFE0
000FFFE0
000E00E0
000E00E0
000E00E0
000E00E0
000E00E0
000E00E0
000E00E0
000E00E0
000E00E0
000E00E0
000E00E0
000E00E0
000E00E0
000E00E0
000E00E0
000E00E0
000E00E0
000E00E0
000E00E0
FFFE00E0
FFFE00E0
FFFE00E0
E00600E0
E00600E0
E00600E0
E00600E0
E00600E0
E00600E0
E00600E0
E00600E0
E00600E0
E00600E0
E00600E0
E00600E0
E00600E0
E00000E0
E00000E0
E00000E0
E00000E0
F00001E0
F00001E0
F80003E0
FC0007E0
FE000FE0
FF803FE0
FFFFFFE0
FFFFFFE0
FFFFFFE0
FFFFFFE0
FFFFFFE0
7FFFFFC0
7FFFFFC0
3FFFFF80
3FFFFF00
1FFFFF00
07FFFC00
03FFF800
00FFE000
ENDCHAR
STARTCHAR 004B
ENCODING 75
SWIDTH 461 0
DWIDTH 24 0
BBX 30 61 0 -13
BITMAP
FFFFFFFC
FFFFFFFC
FFFFFFFC
E00F0038
E00E0038
E00E0078
E00E0070
E00C0070
E00C00F0
E00C00E0
E00800E0
E00801E0
E00801C0
E00001C0
E00003C0
E0000380
E0000380
E0000780
E0000700
E0000700
E0000F00
E0000E00
E0000E00
E0001C00
E0001C00
E0001C00
E0003C00
E0003E00
E0000F00
E0000780
E00003C0
E00001C0
E00001C0
E00000E0
E00000E0
E00000E0
E00000E0
E00C00E0
E00C00E0
E00C00E0
E00C00E0
E00C00E0
E00C00E0
E00C00E0
E00C00E0
E00C00E0
E00C00E0
E00C00E0
FFFFFFE0
FFFFFFE0
FFFFFFE0
FFFFFFE0
FFFFFFE0
FFFFFFE0
FFFFFFE0
FFFFFFE0
FFFFFFE0
FFFFFFE0
FFFFFFE0
FFFFFFE0
FFFFFFE0
ENDCHAR
STARTCHAR 004C
ENCODING 76
SWIDTH 326 0
DWIDTH 17 0
BBX 20 61 0 -13
BITMAP
FFFE00
FFFE00
FFFE00
E00E00
E00E00
E00E00
E00E00
E00E00
E00E00
E00E00
E00E00
E00E00
E00E00
E00E00
E00E00
E00E00
E00E00
E00E00
E00E00
E00E00
E00E00
E00E00
E00E00
E00E00
E00E00
E00E00
E00E00
E00E00
E00E00
E00E00
E00E00
E00E00
E00E00
E00E00
E00E00
E00FF0
E00FF0
E00FF0
E00070
E00070
E00070
E00070
E00070
E00070
E00070
E00070
E00070
E00070
FFFFF0
FFFFF0
FFFFF0
FFFFF0
FFFFF0
FFFFF0
FFFFF0
FFFFF0
FFFFF0
FFFFF0
FFFFF0
FFFFF0
FFFFF0
ENDCHAR
STARTCHAR 004D
ENCODING 77
SWIDTH 692 0
DWIDTH 36 0
BBX 38 61 0 -13
BITMAP
00FFCFFC00
03FFFFFF00
0FFFFFFFC0
1F803007E0
3E000001E0
3C000000F0
7800000078
7000000038
F00000003C
E00000001C
E00000001C
E00000001C
E00000001C
E00C00C01C
E00C00C01C
E00C00C01C
E00C00C01C
E00C00C01C
E00C00C01C
E00C00C01C
E00C00C01C
E00C00C01C
E00C00C01C
E00C00C01C
E00C00C01C
E00C00C01C
E00C00C01C
E00C00C01C
E00C00C01C
E00C00C01C
E00C00C01C
E00C00C01C
E00C00C01C
E00C00C01C
E00C00C01C
E00C00C01C
E00C00C01C
E00C00C01C
E00C00C01C
E00C00C01C
E00C00C01C
E00C00C01C
E00C00C01C
E00C00C01C
E00C00C01C
E00C00C01C
E00C00C01C
E00C00C01C
FFFFFFFFFC
FFFFFFFFFC
FFFFFFFFFC
FFFFFFFFFC
FFFFFFFFFC
FFFFFFFFFC
FFFFFFFFFC
FFFFFFFFFC
FFFFFFFFFC
FFFFFFFFFC
FFFFFFFFFC
FFFFFFFFFC
FFFFFFFFFC
ENDCHAR
STARTCHAR 004E
ENCODING 78
SWIDTH 461 0
DWIDTH 24 0
BBX 27 61 0 -13
BITMAP
00FFE000
03FFF800
07FFFC00
1F803F00
1E000F00
3C000780
780003C0
700001C0
F00001E0
E00000E0
E00000E0
E00000E0
E00000E0
E00C00E0
E00C00E0
E00C00E0
E00C00E0
E00C00E0
E00C00E0
E00C00E0
E00C00E0
E00C00E0
E00C00E0
E00C00E0
E00C00E0
E00C00E0
E00C00E0
E00C00E0
E00C00E0
E00C00E0
E00C00E0
E00C00E0
E00C00E0
E00C00E0
E00C00E0
E00C00E0
E00C00E0
E00C00E0
E00C00E0
E00C00E0
E00C00E0
E00C00E0
E00C00E0
E00C00E0
E00C00E0
E00C00E0
E00C00E0
E00C00E0
FFFFFFE0
FFFFFFE0
FFFFFFE0
FFFFFFE0
FFFFFFE0
FFFFFFE0
FFFFFFE0
FFFFFFE0
FFFFFFE0
FFFFFFE0
FFFFFFE0
FFFFFFE0
FFFFFFE0
ENDCHAR
STARTCHAR 004F
ENCODING 79
SWIDTH 461 0
DWIDTH 24 0
BBX 27 61 0 -13
BITMAP
00FFE000
03FFF800
07FFFC00
1F803F00
1E000F00
3C000780
780003C0
700001C0
F00001E0
E00000E0
E00000E0
E00000E0
E00000E0
E00400E0
E00400E0
E00400E0
E00400E0
E00400E0
E00400E0
E00400E0
E00400E0
E00400E0
E00400E0
E00400E0
E00400E0
E00400E0
E00400E0
E00400E0
E00400E0
E00400E0
E00400E0
E00400E0
E00400E0
E00400E0
E00400E0
E00400E0
E00400E0
E00400E0
E00000E0
E00000E0
E00000E0
E00000E0
F00001E0
F00001E0
F80003E0
FC0007E0
FE000FE0
FF803FE0
FFFFFFE0
FFFFFFE0
FFFFFFE0
FFFFFFE0
FFFFFFE0
7FFFFFC0
7FFFFFC0
3FFFFF80
3FFFFF00
1FFFFF00
0FFFFC00
03FFF800
00FFE000
ENDCHAR
STARTCHAR 0050
ENCODING 80
SWIDTH 461 0
DWIDTH 24 0
BBX 27 61 0 -13
BITMAP
FFFFE000
FFFFF800
FFFFFC00
E0003F00
E0000F00
E0000780
E00003C0
E00001C0
E00001E0
E00000E0
E00000E0
E00000E0
E00000E0
E00C00E0
E00C00E0
E00C00E0
E00C00E0
E00C00E0
E00C00E0
E00C00E0
E00C00E0
E00C00E0
E00C00E0
E00000E0
E00000E0
E00000E0
E00000E0
E00001E0
E00001E0
E00003E0
E00007E0
E0000FE0
E0003FE0
E00FFFE0
E00FFFE0
E00FFFE0
E00FFFE0
E00FFFE0
E00FFFC0
E00FFFC0
E00FFF80
E00FFF00
E00FFF00
E00FFC00
E00FF800
E00FE000
E00E0000
E00E0000
FFFE0000
FFFE0000
FFFE0000
FFFE0000
FFFE0000
FFFE0000
FFFE0000
FFFE0000
FFFE0000
FFFE0000
FFFE0000
FFFE0000
FFFE0000
ENDCHAR
STARTCHAR 0051
ENCODING 81
SWIDTH 461 0
DWIDTH 24 0
BBX 27 75 0 -27
BITMAP
00FFE000
03FFF800
07FFFC00
1F803F00
1E000F00
3C000780
780003C0
700001C0
F00001E0
E00000E0
E00000E0
E00000E0
E00000E0
E00400E0
E00400E0
E00400E0
E00400E0
E00400E0
E00400E0
E00400E0
E00400E0
E00400E0
E00400E0
E00400E0
E00400E0
E00400E0
E00400E0
E00400E0
E00400E0
E00400E0
E00400E0
E00400E0
E00400E0
E00400E0
E00400E0
E00400E0
E00400E0
E00400E0
E00000E0
E00000E0
E00000E0
E00000E0
F00001E0
F00001E0
F80003E0
FC0007E0
FE000FE0
FF8000C0
FF8000C0
FFC000E0
FFC000E0
FFC000E0
FFE000E0
FFF000E0
FFF800E0
FFFC00E0
FFFF80E0
FFFFFFE0
7FFFFFE0
7FFFFFE0
3FFFFFE0
3FFFFFE0
1FFFFFE0
0FFFFFE0
07FFFFE0
01FFFFE0
01FFFFE0
01FFFFE0
00FFFFE0
00FFFFE0
007FFFE0
003FFFE0
001FFFE0
0007FFE0
0001FFE0
ENDCHAR
STARTCHAR 0052
ENCODING 82
SWIDTH 461 0
DWIDTH 24 0
BBX 27 61 0 -13
BITMAP
FFFFE000
FFFFF800
FFFFFC00
E0003F00
E0000F00
E0000780
E00003C0
E00001C0
E00001C0
E00000E0
E00000E0
E00000E0
E00000E0
E00400E0
E00400E0
E00400E0
E00400E0
E00400E0
E00400E0
E00400E0
E00400E0
E00400E0
E00400E0
E00000E0
E00000E0
E00000E0
E00000E0
E00001C0
E00001C0
E0000380
E0000380
E00001C0
E00001C0
E00000E0
E00000E0
E00000E0
E00000E0
E00400E0
E00400E0
E00400E0
E00400E0
E00400E0
E00400E0
E00400E0
E00400E0
E00400E0
E00400E0
E00400E0
FFFFFFE0
FFFFFFE0
FFFFFFE0
FFFFFFE0
FFFFFFE0
FFFFFFE0
FFFFFFE0
FFFFFFE0
FFFFFFE0
FFFFFFE0
FFFFFFE0
FFFFFFE0
FFFFFFE0
ENDCHAR
STARTCHAR 0053
ENCODING 83
SWIDTH 461 0
DWIDTH 24 0
BBX 27 61 0 -13
BITMAP
00FFE000
03FFF800
0FFFFC00
1F803E00
3E000F00
3C000780
780003C0
700001C0
F00001C0
E00000E0
E00000E0
E00000E0
E00000E0
E00C00E0
E00C00E0
E00C00E0
E00C00E0
E00C00E0
E00C00E0
E00C00E0
E00C00E0
E00C00E0
E00C00E0
E00FFFE0
E00FFFE0
E007FFE0
E001F000
E0007C00
E0003E00
70000F00
70000780
380003C0
1C0001C0
0F0001C0
07C000E0
FFF000E0
FFFC00E0
FFFC00E0
E00000E0
E00000E0
E00000E0
E00000E0
E00001E0
E00001E0
E00003E0
E00007E0
E0000FE0
E0003FE0
FFFFFFE0
FFFFFFE0
FFFFFFE0
FFFFFFE0
FFFFFFE0
FFFFFFC0
FFFFFFC0
FFFFFF80
FFFFFF00
FFFFFF00
FFFFFC00
FFFFF800
FFFFE000
ENDCHAR
STARTCHAR 0054
ENCODING 84
SWIDTH 480 0
DWIDTH 25 0
BBX 28 61 0 -13
BITMAP
FFFFFFF0
FFFFFFF0
FFFFFFF0
E0000070
E0000070
E0000070
E0000070
E0000070
E0000070
E0000070
E0000070
E0000070
E0000070
FF801FF0
FF801FF0
FF801FF0
FF801FF0
FF801FF0
FF801FF0
FF801FF0
FF801FF0
FF801FF0
FF801FF0
FF801FF0
FF801FF0
FF801FF0
03801C00
03801C00
03801C00
03801C00
03801C00
03801C00
03801C00
03801C00
03801C00
03801C00
03801C00
03801C00
03801C00
03801C00
03801C00
03801C00
03801C00
03801C00
03801C00
03801C00
03801C00
03801C00
03FFFC00
03FFFC00
03FFFC00
03FFFC00
03FFFC00
03FFFC00
03FFFC00
03FFFC00
03FFFC00
03FFFC00
03FFFC00
03FFFC00
03FFFC00
ENDCHAR
STARTCHAR 0055
ENCODING 85
SWIDTH 461 0
DWIDTH 24 0
BBX 27 61 0 -13
BITMAP
FFFFFFE0
FFFFFFE0
FFFFFFE0
E00C00E0
E00C00E0
E00C00E0
E00C00E0
E00C00E0
E00C00E0
E00C00E0
E00C00E0
E00C00E0
E00C00E0
E00C00E0
E00C00E0
E00C00E0
E00C00E0
E00C00E0
E00C00E0
E00C00E0
E00C00E0
E00C00E0
E00C00E0
E00C00E0
E00C00E0
E00C00E0
E00C00E0
E00C00E0
E00C00E0
E00C00E0
E00C00E0
E00C00E0
E00C00E0
E00C00E0
E00C00E0
E00C00E0
E00C00E0
E00C00E0
E00000E0
E00000E0
E00000E0
E00000E0
F00001E0
F00001E0
F80003E0
FC0007E0
FE000FE0
FF803FE0
FFFFFFE0
FFFFFFE0
FFFFFFE0
FFFFFFE0
FFFFFFE0
7FFFFFC0
7FFFFFC0
3FFFFF80
3FFFFF00
1FFFFF00
0FFFFC00
03FFF800
00FFE000
ENDCHAR
STARTCHAR 0056
ENCODING 86
SWIDTH 480 0
DWIDTH 25 0
BBX 30 61 0 -13
BITMAP
FFFFFFFC
FFFFFFFC
FFFFFFFC
7007801C
7007801C
70038038
70038038
70030038
70030038
38030038
38030038
38010070
38010070
38020070
38000070
1C000070
1C000070
1C0000E0
1C0000E0
1C0000E0
1C0000E0
0E0000E0
0E0001E0
0E0001C0
0E0001C0
0E0001C0
070001C0
070001C0
07000380
07000380
07000380
07000380
03800380
03800380
03800700
03800700
03800700
03800700
01C00700
01C00700
01C00E00
01C00E00
01C00E00
01C00E00
00E00E00
00E01E00
00E01C00
00E01C00
00FFFC00
00FFFC00
007FFC00
007FFC00
007FF800
007FF800
007FF800
007FF800
003FF800
003FF000
003FF000
003FF000
003FF000
ENDCHAR
STARTCHAR 0057
ENCODING 87
SWIDTH 692 0
DWIDTH 36 0
BBX 38 61 0 -13
BITMAP
FFFFFFFFFC
FFFFFFFFFC
FFFFFFFFFC
E00C00C01C
E00C00C01C
E00C00C01C
E00C00C01C
E00C00C01C
E00C00C01C
E00C00C01C
E00C00C01C
E00C00C01C
E00C00C01C
E00C00C01C
E00C00C01C
E00C00C01C
E00C00C01C
E00C00C01C
E00C00C01C
E00C00C01C
E00C00C01C
E00C00C01C
E00C00C01C
E00C00C01C
E00C00C01C
E00C00C01C
E00C00C01C
E00C00C01C
E00C00C01C
E00C00C01C
E00C00C01C
E00C00C01C
E00C00C01C
E00C00C01C
E00C00C01C
E00C00C01C
E00C00C01C
E00C00C01C
E00000001C
E00000001C
E00000001C
E00000001C
F00000003C
F00000003C
F80000007C
FC000000FC
FE000001FC
FF803007FC
FFFFFFFFFC
FFFFFFFFFC
FFFFFFFFFC
FFFFFFFFFC
FFFFFFFFFC
7FFFFFFFF8
7FFFFFFFF8
3FFFFFFFF0
3FFFFFFFF0
1FFFFFFFE0
0FFFFFFFC0
03FFFFFF00
00FFCFFC00
ENDCHAR
STARTCHAR 0058
ENCODING 88
SWIDTH 480 0
DWIDTH 25 0
BBX 34 61 -3 -13
BITMAP
7FFFFFFF80
7FFFFFFF80
3FFFFFFF00
3801E00700
3C01E00F00
1C01C00E00
1C00C00E00
1E00C01E00
0E00801C00
0E00001C00
0F00003C00
0700003800
0700003800
0380007000
0380007000
0380007000
01C000E000
01C000E000
01C000E000
00E001C000
00E001C000
00E001C000
0070038000
0070038000
0070038000
0070038000
00E001C000
00E001C000
01E001C000
01C000E000
01C000E000
03C000E000
0380007000
0380007000
0780007800
0700003800
0700003800
0F00003C00
0E00001C00
0E00001C00
1E00401E00
1C00C00E00
1C00C00E00
3C00E00F00
3801E00700
3801E00700
7801F00780
7003F00380
7FFFFFFF80
FFFFFFFFC0
FFFFFFFFC0
FFFFFFFFC0
FFFFFFFFC0
FFFFFFFFC0
FFFFFFFFC0
FFFFFFFFC0
FFFFFFFFC0
FFFFFFFFC0
FFFFFFFFC0
FFFF7FFFC0
FFFF3FFFC0
ENDCHAR
STARTCHAR 0059
ENCODING 89
SWIDTH 538 0
DWIDTH 28 0
BBX 32 61 -1 -13
BITMAP
FFFFFFFF
7FFFFFFE
7FFFFFFE
7003C00E
3801801C
3801801C
3801803C
3C010038
1C000038
1C000078
1E000070
0E000070
0E0000F0
0E0000E0
070000E0
070001E0
070001C0
038001C0
03800380
03800380
01C00780
01C00700
01C00700
00E00F00
00E00E00
00E00E00
00E00E00
00E00E00
00E00E00
00E00E00
00E00E00
00E00E00
00E00E00
00E00E00
00E00E00
00E00E00
00E00E00
00E00E00
00E00E00
00E00E00
00E00E00
00E00E00
00E00E00
00E00E00
00E00E00
00E00E00
00E00E00
00E00E00
00FFFE00
00FFFE00
00FFFE00
00FFFE00
00FFFE00
00FFFE00
00FFFE00
00FFFE00
00FFFE00
00FFFE00
00FFFE00
00FFFE00
00FFFE00
ENDCHAR
STARTCHAR 005A
ENCODING 90
SWIDTH 480 0
DWIDTH 25 0
BBX 33 61 -3 -13
BITMAP
1FFFFFFF80
1FFFFFFF00
1FFFFFFF00
1C00000F00
1C00000E00
1C00000E00
1C00001E00
1C00001C00
1C00001C00
1C00003C00
1C00003800
1C00003800
1C00007800
1FFF007000
1FFF007000
1FFE00F000
000E00E000
001C00E000
001C01E000
001C01C000
003801C000
003803C000
0038038000
0070038000
0070078000
0070070000
00E0070000
00E00F0000
00E00E0000
01C00E0000
01C01E0000
01C01C0000
03801C0000
03803C0000
0780380000
07003FFE00
07007FFE00
0F007FFE00
0E00000E00
0E00000E00
1E00000E00
1C00000E00
1C00000E00
3C00000E00
3800000E00
3800000E00
7800000E00
7000000E00
7FFFFFFE00
FFFFFFFE00
FFFFFFFE00
FFFFFFFE00
FFFFFFFE00
FFFFFFFE00
FFFFFFFE00
FFFFFFFE00
FFFFFFFE00
FFFFFFFE00
FFFFFFFE00
FFFFFFFE00
FFFFFFFE00
ENDCHAR
STARTCHAR 005B
ENCODING 91
SWIDTH 384 0
DWIDTH 20 0
BBX 22 61 0 -13
BITMAP
FFFFFC
FFFFFC
FFFFFC
E0001C
E0001C
E0001C
E0001C
E0001C
E0001C
E0001C
E0001C
E0001C
E0001C
E00FFC
E00FFC
E00FFC
E00FFC
E00FFC
E00FFC
E00FFC
E00FFC
E00FFC
E00FFC
E00FFC
E00FFC
E00FFC
E00E00
E00E00
E00E00
E00E00
E00E00
E00E00
E00E00
E00E00
E00E00
E00FFC
E00FFC
E00FFC
E0001C
E0001C
E0001C
E0001C
E0001C
E0001C
E0001C
E0001C
E0001C
E0001C
FFFFFC
FFFFFC
FFFFFC
FFFFFC
FFFFFC
FFFFFC
FFFFFC
FFFFFC
FFFFFC
FFFFFC
FFFFFC
FFFFFC
FFFFFC
ENDCHAR
STARTCHAR 005C
ENCODING 92
SWIDTH 500 0
DWIDTH 26 0
BBX 33 61 -2 -13
BITMAP
FFFF000000
FFFF000000
7FFF800000
7003800000
7001800000
7001C00000
3801C00000
3800C00000
3800E00000
1C00E00000
1C00600000
1C00700000
1E00700000
0E00300000
0E00380000
0F00380000
0700180000
07001C0000
07801C0000
07800C0000
03800E0000
03C00E0000
03C0060000
03E0070000
01E0070000
01E0030000
01F0038000
00F0038000
00F0018000
00F801C000
00F801C000
007800E000
007C00E000
007C00E000
003C007000
003E007000
003E007000
003E003800
001F003800
001F003800
001F001C00
000F801C00
000F800C00
000F800E00
000FC00E00
0007C00600
0007C00700
0007E00700
0003FFFF00
0003FFFF80
0003FFFF80
0003FFFF80
0001FFFF80
0001FFFF80
0001FFFF80
0000FFFF80
0000FFFF80
0000FFFF80
0000FFFF80
00007FFF80
00007FFF80
ENDCHAR
STARTCHAR 005D
ENCODING 93
SWIDTH 384 0
DWIDTH 20 0
BBX 22 61 0 -13
BITMAP
FFFFFC
FFFFFC
FFFFFC
E0001C
E0001C
E0001C
E0001C
E0001C
E0001C
E0001C
E0001C
E0001C
E0001C
FFC01C
FFC01C
FFC01C
FFC01C
FFC01C
FFC01C
FFC01C
FFC01C
FFC01C
FFC01C
FFC01C
FFC01C
FFC01C
01C01C
01C01C
01C01C
01C01C
01C01C
01C01C
01C01C
01C01C
01C01C
FFC01C
FFC01C
FFC01C
E0001C
E0001C
E0001C
E0001C
E0001C
E0001C
E0001C
E0001C
E0001C
E0001C
FFFFFC
FFFFFC
FFFFFC
FFFFFC
FFFFFC
FFFFFC
FFFFFC
FFFFFC
FFFFFC
FFFFFC
FFFFFC
FFFFFC
FFFFFC
ENDCHAR
STARTCHAR 005E
ENCODING 94
SWIDTH 442 0
DWIDTH 23 0
BBX 26 31 0 15
BITMAP
007F8000
00FFC000
01FFE000
03C0F000
07807800
0F003C00
1E001E00
3C000F00
78000780
F00003C0
F80007C0
FC000FC0
FE001FC0
FF003FC0
FF807FC0
FFCCFFC0
FFFFFFC0
FFFFFFC0
FFFFFFC0
FFFFFFC0
7FFFFF80
3FFFFF00
1FFFFF00
0FFFFE00
07FFFC00
03FFF800
01FFF000
00FFE000
00FFC000
00738000
00210000
ENDCHAR
STARTCHAR 005F
ENCODING 95
SWIDTH 480 0
DWIDTH 25 0
BBX 28 25 0 -13
BITMAP
FFFFFFF0
FFFFFFF0
FFFFFFF0
E0000070
E0000070
E0000070
E0000070
E0000070
E0000070
E0000070
E0000070
E0000070
FFFFFFF0
FFFFFFF0
FFFFFFF0
FFFFFFF0
FFFFFFF0
FFFFFFF0
FFFFFFF0
FFFFFFF0
FFFFFFF0
FFFFFFF0
FFFFFFF0
FFFFFFF0
FFFFFFF0
ENDCHAR
STARTCHAR 0060
ENCODING 96
SWIDTH 326 0
DWIDTH 17 0
BBX 27 20 -4 33
BITMAP
FFFF0000
FFFF8000
7FFF8000
7001C000
3800C000
38006000
1C007000
1C003000
0E003800
0E001800
07001C00
07000C00
03800E00
01C00600
01C00300
00E00300
00E00180
007FFF80
007FFFC0
003FFFE0
ENDCHAR
STARTCHAR 0061
ENCODING 97
SWIDTH 461 0
DWIDTH 24 0
BBX 27 61 0 -13
BITMAP
FFFFE000
FFFFF800
FFFFFC00
E0003F00
E0000F00
E0000780
E00003C0
E00001C0
E00001C0
E00000E0
E00000E0
E00000E0
E00000E0
FFFC00E0
FFFC00E0
FF8000E0
1E0000E0
3C0000E0
780000E0
700000E0
F00000E0
E00000E0
E00000E0
E00000E0
E00000E0
E00400E0
E00400E0
E00400E0
E00400E0
E00400E0
E00400E0
E00400E0
E00400E0
E00400E0
E00400E0
E00400E0
E00400E0
E00400E0
E00000E0
E00000E0
E00000E0
E00000E0
F00000E0
F00000E0
F80000E0
FC0000E0
FE0000E0
FF8000E0
FFFFFFE0
FFFFFFE0
FFFFFFE0
FFFFFFE0
FFFFFFE0
7FFFFFE0
7FFFFFE0
3FFFFFE0
3FFFFFE0
1FFFFFE0
0FFFFFE0
03FFFFE0
00FFFFE0
ENDCHAR
STARTCHAR 0062
ENCODING 98
SWIDTH 461 0
DWIDTH 24 0
BBX 27 61 0 -13
BITMAP
FFFFC000
FFFFF800
FFFFFC00
E0003E00
E0000F00
E0000780
E0000380
E00001C0
E00001C0
E00001C0
E00000E0
E00000E0
E00000E0
E00400E0
E00400E0
E00400E0
E00400E0
E00400E0
E00400E0
E00400E0
E00000E0
E00000E0
E00000E0
E00000C0
E00001C0
E00001C0
E00000E0
E00000E0
E00000E0
E00000E0
E00400E0
E00400E0
E00400E0
E00400E0
E00400E0
E00400E0
E00400E0
E00400E0
E00000E0
E00000E0
E00000E0
E00000E0
E00001E0
E00001E0
E00003E0
E00007E0
E0000FE0
E0003FE0
FFFFFFE0
FFFFFFE0
FFFFFFE0
FFFFFFE0
FFFFFFE0
FFFFFFC0
FFFFFFC0
FFFFFF80
FFFFFF00
FFFFFF00
FFFFFC00
FFFFF800
FFFFE000
ENDCHAR
STARTCHAR 0063
ENCODING 99
SWIDTH 461 0
DWIDTH 24 0
BBX 27 61 0 -13
BITMAP
00FFE000
03FFF800
0FFFFC00
1F803F00
3E000F00
3C000780
780003C0
700001C0
F00001C0
E00000E0
E00000E0
E00000E0
E00000E0
E00C00E0
E00C00E0
E00C00E0
E00C00E0
E00C00E0
E00C00E0
E00C00E0
E00C00E0
E00C00E0
E00C00E0
E00C00E0
E00C00E0
E00C00E0
E00FFFE0
E00FFFE0
E00C00E0
E00C00E0
E00C00E0
E00C00E0
E00C00E0
E00C00E0
E00C00E0
E00C00E0
E00C00E0
E00C00E0
E00000E0
E00000E0
E00000E0
E00000E0
F00001E0
F00001E0
F80003E0
FC0007E0
FE000FE0
FF803FE0
FFFFFFE0
FFFFFFE0
FFFFFFE0
FFFFFFE0
FFFFFFE0
7FFFFFC0
7FFFFFC0
3FFFFF80
3FFFFF00
1FFFFF00
0FFFFC00
03FFF800
00FFE000
ENDCHAR
STARTCHAR 0064
ENCODING 100
SWIDTH 461 0
DWIDTH 24 0
BBX 27 61 0 -13
BITMAP
FFFFE000
FFFFF800
FFFFFC00
E0003F00
E0000F00
E0000780
E00003C0
E00001C0
E00001C0
E00000E0
E00000E0
E00000E0
E00000E0
E00400E0
E00400E0
E00400E0
E00400E0
E00400E0
E00400E0
E00400E0
E00400E0
E00400E0
E00400E0
E00400E0
E00400E0
E00400E0
E00400E0
E00400E0
E00400E0
E00400E0
E00400E0
E00400E0
E00400E0
E00400E0
E00400E0
E00400E0
E00400E0
E00400E0
E00000E0
E00000E0
E00000E0
E00000E0
E00001E0
E00001E0
E00003E0
E00007E0
E0000FE0
E0003FE0
FFFFFFE0
FFFFFFE0
FFFFFFE0
FFFFFFE0
FFFFFFE0
FFFFFFC0
FFFFFFC0
FFFFFF80
FFFFFF00
FFFFFF00
FFFFFC00
FFFFF800
FFFFE000
ENDCHAR
STARTCHAR 0065
ENCODING 101
SWIDTH 461 0
DWIDTH 24 0
BBX 27 61 0 -13
BITMAP
00FFE000
03FFF800
0FFFFC00
1F803F00
3E000F00
3C000780
780003C0
700001C0
F00001C0
E00000E0
E00000E0
E00000E0
E00000E0
E00400E0
E00400E0
E00400E0
E00400E0
E00400E0
E00400E0
E00400E0
E00400E0
E00000E0
E00000E0
E00000E0
E00000E0
E00000E0
E00000E0
E00000E0
E00000E0
E00000E0
E00000E0
E007FFE0
E007FFE0
E00400E0
E00400E0
E00400E0
E00400E0
E00400E0
E00000E0
E00000E0
E00000E0
E00000E0
F00001E0
F00001E0
F80003E0
FC0007E0
FE000FE0
FF803FE0
FFFFFFE0
FFFFFFE0
FFFFFFE0
FFFFFFE0
FFFFFFE0
7FFFFFC0
7FFFFFC0
3FFFFF80
3FFFFF00
1FFFFF00
0FFFFC00
03FFF800
00FFE000
ENDCHAR
STARTCHAR 0066
ENCODING 102
SWIDTH 461 0
DWIDTH 24 0
BBX 27 61 0 -13
BITMAP
00FFC000
03FFF800
0FFFFC00
1F803E00
3E000F00
3C000780
780003C0
700001C0
F00001C0
E00000E0
E00000E0
E00000E0
E00000E0
E00C00E0
E00C00E0
E00C00E0
E00C00E0
E00C00E0
E00C00E0
E00C00E0
E00C00E0
E00C00E0
E00C00E0
E00C00E0
E00C00E0
E00C00E0
E00FFFE0
E00FFFE0
E00000E0
E00000E0
E00000E0
E00000E0
E00000E0
E00000E0
E00000E0
E00000E0
E00000E0
E00000E0
E00FFFE0
E00FFFE0
E00FFFE0
E00FFFE0
E00FFFE0
E00FFFE0
E00FFFE0
E00FFFE0
E00FFFE0
E00FFFE0
FFFFFFE0
FFFFFFE0
FFFFFFE0
FFFE0000
FFFE0000
FFFE0000
FFFE0000
FFFE0000
FFFE0000
FFFE0000
FFFE0000
FFFE0000
FFFE0000
ENDCHAR
STARTCHAR 0067
ENCODING 103
SWIDTH 461 0
DWIDTH 24 0
BBX 27 61 0 -13
BITMAP
00FFFFE0
03FFFFE0
0FFFFFE0
1F8000E0
3E0000E0
3C0000E0
780000E0
700000E0
F00000E0
E00000E0
E00000E0
E00000E0
E00000E0
E00400E0
E00400E0
E00400E0
E00400E0
E00400E0
E00400E0
E00400E0
E00400E0
E00400E0
E00400E0
E00400E0
E00400E0
E00400E0
E00000E0
E00000E0
E00000E0
E00000E0
F00000E0
700000E0
780000E0
3C0000E0
1E0000E0
FF8000E0
FFFC00E0
FFFC00E0
E00000E0
E00000E0
E00000E0
E00000E0
E00001E0
E00001E0
E00003E0
E00007E0
E0000FE0
E0003FE0
FFFFFFE0
FFFFFFE0
FFFFFFE0
FFFFFFE0
FFFFFFE0
FFFFFFC0
FFFFFFC0
FFFFFF80
FFFFFF00
FFFFFF00
FFFFFC00
FFFFF800
FFFFE000
ENDCHAR
STARTCHAR 0068
ENCODING 104
SWIDTH 461 0
DWIDTH 24 0
BBX 27 61 0 -13
BITMAP
FFFFFFE0
FFFFFFE0
FFFFFFE0
E00C00E0
E00C00E0
E00C00E0
E00C00E0
E00C00E0
E00C00E0
E00C00E0
E00C00E0
E00C00E0
E00C00E0
E00C00E0
E00C00E0
E00C00E0
E00C00E0
E00C00E0
E00C00E0
E00000E0
E00000E0
E00000E0
E00000E0
E00000E0
E00000E0
E00000E0
E00000E0
E00000E0
E00000E0
E00C00E0
E00C00E0
E00C00E0
E00C00E0
E00C00E0
E00C00E0
E00C00E0
E00C00E0
E00C00E0
E00C00E0
E00C00E0
E00C00E0
E00C00E0
E00C00E0
E00C00E0
E00C00E0
E00C00E0
E00C00E0
E00C00E0
FFFFFFE0
FFFFFFE0
FFFFFFE0
FFFFFFE0
FFFFFFE0
FFFFFFE0
FFFFFFE0
FFFFFFE0
FFFFFFE0
FFFFFFE0
FFFFFFE0
FFFFFFE0
FFFFFFE0
ENDCHAR
STARTCHAR 0069
ENCODING 105
SWIDTH 250 0
DWIDTH 13 0
BBX 15 61 0 -13
BITMAP
FFFE
FFFE
FFFE
E00E
E00E
E00E
E00E
E00E
E00E
E00E
E00E
E00E
E00E
FFFE
FFFE
E00E
E00E
E00E
E00E
E00E
E00E
E00E
E00E
E00E
E00E
E00E
E00E
E00E
E00E
E00E
E00E
E00E
E00E
E00E
E00E
E00E
E00E
E00E
E00E
E00E
E00E
E00E
E00E
E00E
E00E
E00E
E00E
E00E
FFFE
FFFE
FFFE
FFFE
FFFE
FFFE
FFFE
FFFE
FFFE
FFFE
FFFE
FFFE
FFFE
ENDCHAR
STARTCHAR 006A
ENCODING 106
SWIDTH 461 0
DWIDTH 24 0
BBX 27 61 0 -13
BITMAP
000FFFE0
000FFFE0
000FFFE0
000E00E0
000E00E0
000E00E0
000E00E0
000E00E0
000E00E0
000E00E0
000E00E0
000E00E0
000E00E0
000FFFE0
000FFFE0
000E00E0
000E00E0
000E00E0
000E00E0
000E00E0
000E00E0
000E00E0
FFFE00E0
FFFE00E0
FFFE00E0
E00600E0
E00600E0
E00600E0
E00600E0
E00600E0
E00600E0
E00600E0
E00600E0
E00600E0
E00600E0
E00600E0
E00600E0
E00600E0
E00000E0
E00000E0
E00000E0
E00000E0
F00001E0
F00001E0
F80003E0
FC0007E0
FE000FE0
FF803FE0
FFFFFFE0
FFFFFFE0
FFFFFFE0
FFFFFFE0
FFFFFFE0
7FFFFFC0
7FFFFFC0
3FFFFF80
3FFFFF00
1FFFFF00
07FFFC00
03FFF800
00FFE000
ENDCHAR
STARTCHAR 006B
ENCODING 107
SWIDTH 519 0
DWIDTH 27 0
BBX 34 61 0 -13
BITMAP
FFFFFFFF80
FFFFFFFF00
FFFFFFFE00
E00F001E00
E00E001C00
E00C003C00
E00C007800
E008007000
E00000F000
E00001E000
E00001C000
E00003C000
E000078000
E000070000
E0000F0000
E0000E0000
E0001C0000
E0003C0000
E000380000
E000780000
E000F00000
E000E00000
E001E00000
E003C00000
E003800000
E001C00000
E001E00000
E000E00000
E000F00000
E000780000
E000380000
E0003C0000
E0001E0000
E0000E0000
E0000F0000
E000078000
E000038000
E00003C000
E00001C000
E00000E000
E00800F000
E00C007000
E00C007800
E00E003C00
E00E001C00
E00F001E00
E00F800F00
E00F800700
FFFFFFFF80
FFFFFFFFC0
FFFFFFFFC0
FFFFFFFFC0
FFFFFFFFC0
FFFFFFFFC0
FFFFFFFFC0
FFFFFFFFC0
FFFFFFFFC0
FFFFFFFFC0
FFFFFFFFC0
FFFFFFFFC0
FFFEFFFFC0
ENDCHAR
STARTCHAR 006C
ENCODING 108
SWIDTH 326 0
DWIDTH 17 0
BBX 20 61 0 -13
BITMAP
FFFE00
FFFE00
FFFE00
E00E00
E00E00
E00E00
E00E00
E00E00
E00E00
E00E00
E00E00
E00E00
E00E00
E00E00
E00E00
E00E00
E00E00
E00E00
E00E00
E00E00
E00E00
E00E00
E00E00
E00E00
E00E00
E00E00
E00E00
E00E00
E00E00
E00E00
E00E00
E00E00
E00E00
E00E00
E00E00
E00FF0
E00FF0
E00FF0
E00070
E00070
E00070
E00070
E00070
E00070
E00070
E00070
E00070
E00070
FFFFF0
FFFFF0
FFFFF0
FFFFF0
FFFFF0
FFFFF0
FFFFF0
FFFFF0
FFFFF0
FFFFF0
FFFFF0
FFFFF0
FFFFF0
ENDCHAR
STARTCHAR 006D
ENCODING 109
SWIDTH 692 0
DWIDTH 36 0
BBX 38 61 0 -13
BITMAP
00FFCFFC00
03FFFFFF00
0FFFFFFF80
1F803007E0
3E000001E0
3C000000F0
7800000078
7000000038
F000000038
E00000001C
E00000001C
E00000001C
E00000001C
E00C00C01C
E00C00C01C
E00C00C01C
E00C00C01C
E00C00C01C
E00C00C01C
E00C00C01C
E00C00C01C
E00C00C01C
E00C00C01C
E00C00C01C
E00C00C01C
E00C00C01C
E00C00C01C
E00C00C01C
E00C00C01C
E00C00C01C
E00C00C01C
E00C00C01C
E00C00C01C
E00C00C01C
E00C00C01C
E00C00C01C
E00C00C01C
E00C00C01C
E00C00C01C
E00C00C01C
E00C00C01C
E00C00C01C
E00C00C01C
E00C00C01C
E00C00C01C
E00C00C01C
E00C00C01C
E00C00C01C
FFFFFFFFFC
FFFFFFFFFC
FFFFFFFFFC
FFFFFFFFFC
FFFFFFFFFC
FFFFFFFFFC
FFFFFFFFFC
FFFFFFFFFC
FFFFFFFFFC
FFFFFFFFFC
FFFFFFFFFC
FFFFFFFFFC
FFFFFFFFFC
ENDCHAR
STARTCHAR 006E
ENCODING 110
SWIDTH 461 0
DWIDTH 24 0
BBX 27 61 0 -13
BITMAP
00FFE000
03FFF800
0FFFFC00
1F803F00
3E000F00
3C000780
780003C0
700001C0
F00001C0
E00000E0
E00000E0
E00000E0
E00000E0
E00C00E0
E00C00E0
E00C00E0
E00C00E0
E00C00E0
E00C00E0
E00C00E0
E00C00E0
E00C00E0
E00C00E0
E00C00E0
E00C00E0
E00C00E0
E00C00E0
E00C00E0
E00C00E0
E00C00E0
E00C00E0
E00C00E0
E00C00E0
E00C00E0
E00C00E0
E00C00E0
E00C00E0
E00C00E0
E00C00E0
E00C00E0
E00C00E0
E00C00E0
E00C00E0
E00C00E0
E00C00E0
E00C00E0
E00C00E0
E00C00E0
FFFFFFE0
FFFFFFE0
FFFFFFE0
FFFFFFE0
FFFFFFE0
FFFFFFE0
FFFFFFE0
FFFFFFE0
FFFFFFE0
FFFFFFE0
FFFFFFE0
FFFFFFE0
FFFFFFE0
ENDCHAR
STARTCHAR 006F
ENCODING 111
SWIDTH 461 0
DWIDTH 24 0
BBX 27 61 0 -13
BITMAP
00FFE000
03FFF800
0FFFFC00
1F803F00
3E000F00
3C000780
780003C0
700001C0
F00001C0
E00000E0
E00000E0
E00000E0
E00000E0
E00400E0
E00400E0
E00400E0
E00400E0
E00400E0
E00400E0
E00400E0
E00400E0
E00400E0
E00400E0
E00400E0
E00400E0
E00400E0
E00400E0
E00400E0
E00400E0
E00400E0
E00400E0
E00400E0
E00400E0
E00400E0
E00400E0
E00400E0
E00400E0
E00400E0
E00000E0
E00000E0
E00000E0
E00000E0
F00001E0
F00001E0
F80003E0
FC0007E0
FE000FE0
FF803FE0
FFFFFFE0
FFFFFFE0
FFFFFFE0
FFFFFFE0
FFFFFFE0
7FFFFFC0
7FFFFFC0
3FFFFF80
3FFFFF00
1FFFFF00
0FFFFC00
03FFF800
00FFE000
ENDCHAR
STARTCHAR 0070
ENCODING 112
SWIDTH 461 0
DWIDTH 24 0
BBX 27 61 0 -13
BITMAP
FFFFE000
FFFFF800
FFFFFC00
E0003F00
E0000F00
E0000780
E00003C0
E00001C0
E00001C0
E00000E0
E00000E0
E00000E0
E00000E0
E00C00E0
E00C00E0
E00C00E0
E00C00E0
E00C00E0
E00C00E0
E00C00E0
E00C00E0
E00C00E0
E00C00E0
E00000E0
E00000E0
E00000E0
E00000E0
E00001E0
E00001E0
E00003E0
E00007E0
E0000FE0
E0003FE0
E00FFFE0
E00FFFE0
E00FFFE0
E00FFFE0
E00FFFE0
E00FFFC0
E00FFFC0
E00FFF80
E00FFF00
E00FFF00
E00FFC00
E00FF800
E00FE000
E00E0000
E00E0000
FFFE0000
FFFE0000
FFFE0000
FFFE0000
FFFE0000
FFFE0000
FFFE0000
FFFE0000
FFFE0000
FFFE0000
FFFE0000
FFFE0000
FFFE0000
ENDCHAR
STARTCHAR 0071
ENCODING 113
SWIDTH 461 0
DWIDTH 24 0
BBX 27 75 0 -27
BITMAP
00FFE000
03FFF800
0FFFFC00
1F803F00
3E000F00
3C000780
780003C0
700001C0
F00001C0
E00000E0
E00000E0
E00000E0
E00000E0
E00400E0
E00400E0
E00400E0
E00400E0
E00400E0
E00400E0
E00400E0
E00400E0
E00400E0
E00400E0
E00400E0
E00400E0
E00400E0
E00400E0
E00400E0
E00400E0
E00400E0
E00400E0
E00400E0
E00400E0
E00400E0
E00400E0
E00400E0
E00400E0
E00400E0
E00000E0
E00000E0
E00000E0
E00000E0
F00001E0
F00001E0
F80003E0
FC0007E0
FE000FE0
FF8000C0
FF8000C0
FFC000E0
FFC000E0
FFC000E0
FFE000E0
FFF000E0
FFF800E0
FFFC00E0
FFFF80E0
FFFFFFE0
7FFFFFE0
7FFFFFE0
3FFFFFE0
3FFFFFE0
1FFFFFE0
0FFFFFE0
07FFFFE0
01FFFFE0
01FFFFE0
01FFFFE0
00FFFFE0
00FFFFE0
007FFFE0
003FFFE0
001FFFE0
0007FFE0
0001FFE0
ENDCHAR
STARTCHAR 0072
ENCODING 114
SWIDTH 346 0
DWIDTH 18 0
BBX 20 61 0 -13
BITMAP
00FFF0
03FFF0
0FFFF0
1F8070
3E0070
3C0070
780070
700070
F00070
E00070
E00070
E00070
E00070
E00FF0
E00FF0
E00FF0
E00FF0
E00FF0
E00FF0
E00FF0
E00FF0
E00FF0
E00FF0
E00FF0
E00FF0
E00FF0
E00E00
E00E00
E00E00
E00E00
E00E00
E00E00
E00E00
E00E00
E00E00
E00E00
E00E00
E00E00
E00E00
E00E00
E00E00
E00E00
E00E00
E00E00
E00E00
E00E00
E00E00
E00E00
FFFE00
FFFE00
FFFE00
FFFE00
FFFE00
FFFE00
FFFE00
FFFE00
FFFE00
FFFE00
FFFE00
FFFE00
FFFE00
ENDCHAR
STARTCHAR 0073
ENCODING 115
SWIDTH 596 0
DWIDTH 31 0
BBX 34 61 0 -13
BITMAP
000007FFC0
00003FFFC0
0000FFFFC0
0001F801C0
0003E001C0
00078001C0
000F0001C0
001E0001C0
001C0001C0
003C0001C0
00380001C0
00780001C0
00700001C0
007001FFC0
007003FFC0
007007FFC0
007007FFC0
007007FFC0
007007FFC0
007007FFC0
007007FFC0
007007FFC0
007007FFC0
007007FFC0
007007FFC0
007007FFC0
0070070000
0070070000
0070070000
0070070000
0070070000
0070070000
0070070000
0070070000
0070070000
FFF0070000
FFE0070000
FFC0070000
E0000F0000
E0000F0000
E0000F0000
E0001F0000
E0001F0000
E0003F0000
E0007F0000
E000FF0000
E003FF0000
E00FFF0000
FFFFFF0000
FFFFFE0000
FFFFFE0000
FFFFFE0000
FFFFFC0000
FFFFFC0000
FFFFF80000
FFFFF00000
FFFFE00000
FFFFC00000
FFFF800000
FFFE000000
FFF0000000
ENDCHAR
STARTCHAR 0074
ENCODING 116
SWIDTH 461 0
DWIDTH 24 0
BBX 27 61 0 -13
BITMAP
FFFE0000
FFFE0000
FFFE0000
E00E0000
E00E0000
E00E0000
E00FFFE0
E00FFFE0
E00FFFE0
E00000E0
E00000E0
E00000E0
E00000E0
E00000E0
E00000E0
E00000E0
E00000E0
E00000E0
E00FFFE0
E00FFFE0
E00C00E0
E00C00E0
E00C00E0
E00C00E0
E00C00E0
E00C00E0
E00C00E0
E00C00E0
E00C00E0
E00C00E0
E00C00E0
E00C00E0
E00C00E0
E00C00E0
E00C00E0
E00C00E0
E00C00E0
E00C00E0
E00000E0
E00000E0
E00000E0
E00000E0
F00001E0
F00001E0
F80003E0
FC0007E0
FE000FE0
FF803FE0
FFFFFFE0
FFFFFFE0
FFFFFFE0
FFFFFFE0
FFFFFFE0
7FFFFFC0
7FFFFFC0
3FFFFF80
3FFFFF00
1FFFFF00
0FFFFC00
03FFF800
00FFE000
ENDCHAR
STARTCHAR 0075
ENCODING 117
SWIDTH 461 0
DWIDTH 24 0
BBX 27 61 0 -13
BITMAP
FFFFFFE0
FFFFFFE0
FFFFFFE0
E00C00E0
E00C00E0
E00C00E0
E00C00E0
E00C00E0
E00C00E0
E00C00E0
E00C00E0
E00C00E0
E00C00E0
E00C00E0
E00C00E0
E00C00E0
E00C00E0
E00C00E0
E00C00E0
E00C00E0
E00C00E0
E00C00E0
E00C00E0
E00C00E0
E00C00E0
E00C00E0
E00C00E0
E00C00E0
E00C00E0
E00C00E0
E00C00E0
E00C00E0
E00C00E0
E00C00E0
E00C00E0
E00C00E0
E00C00E0
E00C00E0
E00000E0
E00000E0
E00000E0
E00000E0
F00001E0
F00001E0
F80003E0
FC0007E0
FE000FE0
FF803FE0
FFFFFFE0
FFFFFFE0
FFFFFFE0
FFFFFFE0
FFFFFFE0
7FFFFFC0
7FFFFFC0
3FFFFF80
3FFFFF00
1FFFFF00
0FFFFC00
03FFF800
00FFE000
ENDCHAR
STARTCHAR 0076
ENCODING 118
SWIDTH 538 0
DWIDTH 28 0
BBX 30 61 0 -13
BITMAP
FFFFFFFC
FFFFFFFC
FFFFFFFC
7007801C
7007801C
70038038
70038038
70030038
70030038
38030038
38030078
38010070
38010070
38020070
38000070
1C000070
1C0000F0
1C0000E0
1C0000E0
1C0000E0
1C0000E0
0E0000E0
0E0001C0
0E0001C0
0E0001C0
0E0001C0
0E0001C0
070001C0
07000380
07000380
07000380
07000380
07000380
03800380
03800700
03800700
03800700
03800700
03C00700
01C00F00
01C00E00
01C00E00
01C00E00
01C00E00
00E00E00
00E01E00
00E01C00
00E01C00
00FFFC00
00FFFC00
007FFC00
007FF800
007FF800
007FF800
007FF800
007FF800
003FF800
003FF000
003FF000
003FF000
003FF000
ENDCHAR
STARTCHAR 0077
ENCODING 119
SWIDTH 692 0
DWIDTH 36 0
BBX 38 61 0 -13
BITMAP
FFFFFFFFFC
FFFFFFFFFC
FFFFFFFFFC
E00C00C01C
E00C00C01C
E00C00C01C
E00C00C01C
E00C00C01C
E00C00C01C
E00C00C01C
E00C00C01C
E00C00C01C
E00C00C01C
E00C00C01C
E00C00C01C
E00C00C01C
E00C00C01C
E00C00C01C
E00C00C01C
E00C00C01C
E00C00C01C
E00C00C01C
E00C00C01C
E00C00C01C
E00C00C01C
E00C00C01C
E00C00C01C
E00C00C01C
E00C00C01C
E00C00C01C
E00C00C01C
E00C00C01C
E00C00C01C
E00C00C01C
E00C00C01C
E00C00C01C
E00C00C01C
E00C00C01C
E00000001C
E00000001C
E00000001C
E00000001C
F00000003C
F00000003C
F80000007C
FC000000FC
FE000001FC
FF803007FC
FFFFFFFFFC
FFFFFFFFFC
FFFFFFFFFC
FFFFFFFFFC
FFFFFFFFFC
7FFFFFFFF8
7FFFFFFFF8
3FFFFFFFF0
3FFFFFFFE0
1FFFFFFFE0
0FFFFFFFC0
03FFFFFF00
00FFCFFC00
ENDCHAR
STARTCHAR 0078
ENCODING 120
SWIDTH 480 0
DWIDTH 25 0
BBX 34 61 -3 -13
BITMAP
7FFFFFFF80
7FFFFFFF80
3FFFFFFF00
3801E00700
3C01E00F00
1C01E00E00
1C00C00E00
0E00C01E00
0E00401C00
0E00001C00
0700003C00
0700003800
0700003800
0380007800
0380007000
0380007000
01C000E000
01C000E000
01C000E000
00E001C000
00E001C000
00E001C000
0070038000
0070038000
0070038000
0070038000
00E001C000
00E001C000
00E001C000
01C000E000
01C000E000
03C000F000
0380007000
0380007000
0780007800
0700003800
0700003800
0F00003C00
0E00001C00
0E00001C00
1E00401E00
1C00C00E00
1C00C00E00
3C00E00F00
3801E00700
3801E00700
7801F00380
7003F00380
7FFFFFFF80
FFFFFFFFC0
FFFFFFFFC0
FFFFFFFFC0
FFFFFFFFC0
FFFFFFFFC0
FFFFFFFFC0
FFFFFFFFC0
FFFFFFFFC0
FFFFFFFFC0
FFFFFFFFC0
FFFF3FFFC0
FFFF3FFFC0
ENDCHAR
STARTCHAR 0079
ENCODING 121
SWIDTH 461 0
DWIDTH 24 0
BBX 27 61 0 -13
BITMAP
FFFFFFE0
FFFFFFE0
FFFFFFE0
E00C00E0
E00C00E0
E00C00E0
E00C00E0
E00C00E0
E00C00E0
E00C00E0
E00C00E0
E00C00E0
E00C00E0
E00C00E0
E00C00E0
E00C00E0
E00C00E0
E00C00E0
E00C00E0
E00C00E0
E00C00E0
E00C00E0
E00C00E0
E00C00E0
E00C00E0
E00C00E0
E00000E0
E00000E0
E00000E0
E00000E0
F00000E0
700000E0
780000E0
3C0000E0
1E0000E0
FF8000E0
FFFC00E0
FFFC00E0
E00000E0
E00000E0
E00000E0
E00000E0
E00001E0
E00001E0
E00003E0
E00007E0
E0000FE0
E0003FE0
FFFFFFE0
FFFFFFE0
FFFFFFE0
FFFFFFE0
FFFFFFE0
FFFFFFC0
FFFFFFC0
FFFFFF80
FFFFFF00
FFFFFF00
FFFFFC00
FFFFF800
FFFFE000
ENDCHAR
STARTCHAR 007A
ENCODING 122
SWIDTH 480 0
DWIDTH 25 0
BBX 33 61 -3 -13
BITMAP
1FFFFFFF80
1FFFFFFF00
1FFFFFFF00
1C00000F00
1C00000E00
1C00000E00
1C00001E00
1C00001C00
1C00001C00
1C00003C00
1C00003800
1C00003800
1C00007800
1FFF007000
1FFE007000
1FFE00F000
000E00E000
001C00E000
001C01E000
001C01C000
003801C000
003803C000
0038038000
0070038000
0070078000
0070070000
00E0070000
00E00F0000
00E00E0000
01C00E0000
01C01E0000
03C01C0000
03801C0000
03803C0000
0780380000
07003FFE00
07007FFE00
0F007FFE00
0E00000E00
0E00000E00
1E00000E00
1C00000E00
1C00000E00
3C00000E00
3800000E00
3800000E00
7800000E00
7000000E00
7FFFFFFE00
FFFFFFFE00
FFFFFFFE00
FFFFFFFE00
FFFFFFFE00
FFFFFFFE00
FFFFFFFE00
FFFFFFFE00
FFFFFFFE00
FFFFFFFE00
FFFFFFFE00
FFFFFFFE00
FFFFFFFE00
ENDCHAR
STARTCHAR 007B
ENCODING 123
SWIDTH 384 0
DWIDTH 20 0
BBX 22 64 0 -13
BITMAP
00FFFC
03FFFC
0FFFFC
1F801C
3E001C
3C001C
78001C
70001C
F0001C
E0001C
E0001C
E0001C
E0001C
E00FFC
E00FFC
E00FFC
E00FFC
E00FFC
E00FFC
E00FFC
E00FFC
E00FFC
E00FFC
E00FFC
E00FFC
E00FFC
E00E00
E00E00
E00E00
E00E00
E00E00
E00E00
E00E00
E00E00
E00E00
E00E00
E00E00
E00E00
E00FFC
E00FFC
E00FFC
E0001C
E0001C
E0001C
E0001C
F0001C
F0001C
F8001C
FC001C
FE001C
FF801C
FFFFFC
FFFFFC
FFFFFC
FFFFFC
FFFFFC
7FFFFC
7FFFFC
3FFFFC
3FFFFC
1FFFFC
0FFFFC
03FFFC
00FFFC
ENDCHAR
STARTCHAR 007C
ENCODING 124
SWIDTH 250 0
DWIDTH 13 0
BBX 15 74 0 -18
BITMAP
FFFE
FFFE
FFFE
E00E
E00E
E00E
E00E
E00E
E00E
E00E
E00E
E00E
E00E
E00E
E00E
E00E
E00E
E00E
E00E
E00E
E00E
E00E
E00E
E00E
E00E
E00E
E00E
E00E
E00E
E00E
E00E
E00E
E00E
E00E
E00E
E00E
E00E
E00E
E00E
E00E
E00E
E00E
E00E
E00E
E00E
E00E
E00E
E00E
E00E
E00E
E00E
E00E
E00E
E00E
E00E
E00E
E00E
E00E
E00E
E00E
E00E
FFFE
FFFE
FFFE
FFFE
FFFE
FFFE
FFFE
FFFE
FFFE
FFFE
FFFE
FFFE
FFFE
ENDCHAR
STARTCHAR 007D
ENCODING 125
SWIDTH 384 0
DWIDTH 20 0
BBX 22 64 0 -13
BITMAP
FFFC00
FFFF00
FFFFC0
E007E0
E001F0
E000F0
E00078
E00038
E0003C
E0001C
E0001C
E0001C
E0001C
FFC01C
FFC01C
FFC01C
FFC01C
FFC01C
FFC01C
FFC01C
FFC01C
FFC01C
FFC01C
FFC01C
FFC01C
FFC01C
01C01C
01C01C
01C01C
01C01C
01C01C
01C01C
01C01C
01C01C
01C01C
01C01C
01C01C
01C01C
FFC01C
FFC01C
FFC01C
E0001C
E0001C
E0001C
E0001C
E0003C
E0003C
E0007C
E000FC
E001FC
E007FC
FFFFFC
FFFFFC
FFFFFC
FFFFFC
FFFFFC
FFFFF8
FFFFF8
FFFFF0
FFFFF0
FFFFE0
FFFFC0
FFFF00
FFFC00
ENDCHAR
STARTCHAR 007E
ENCODING 126
SWIDTH 461 0
DWIDTH 24 0
BBX 24 19 2 28
BITMAP
601F80
7C3FF0
7FFFF8
FFF07C
E3C03E
E0001E
E0000E
E0000F
E00007
E00007
E00007
E00007
700007
700007
380786
3E0FFE
1FFFFE
0FFC7E
03F00C
ENDCHAR
STARTCHAR 00A1
ENCODING 161
SWIDTH 230 0
DWIDTH 12 0
BBX 15 61 0 -13
BITMAP
FFFE
FFFE
FFFE
E00E
E00E
E00E
E00E
E00E
E00E
E00E
E00E
E00E
E00E
FFFE
FFFE
E00E
E00E
E00E
E00E
E00E
E00E
E00E
E00E
E00E
E00E
E00E
E00E
E00E
E00E
E00E
E00E
E00E
E00E
E00E
E00E
E00E
E00E
E00E
E00E
E00E
E00E
E00E
E00E
E00E
E00E
E00E
E00E
E00E
FFFE
FFFE
FFFE
FFFE
FFFE
FFFE
FFFE
FFFE
FFFE
FFFE
FFFE
FFFE
FFFE
ENDCHAR
STARTCHAR 00A2
ENCODING 162
SWIDTH 500 0
DWIDTH 26 0
BBX 28 61 0 -13
BITMAP
03FFFC00
03FFFC00
03FFFC00
03801C00
03801C00
03801C00
03801C00
0F801F00
1F801F80
3E000780
3C0003C0
780001E0
700000E0
F00000E0
E0000070
E0000070
E0000070
E0000070
E00E0070
E00E0070
E00E0070
E00E0070
E00E0070
E00E0070
E00E0070
E00FFFF0
E00FFFF0
E00E0070
E00E0070
E00E0070
E00E0070
E00E0070
E00E0070
E00E0070
E0000070
E0000070
E0000070
F00000F0
F00000F0
F80001F0
FC0003F0
FE0007F0
FF801FF0
FF801FF0
FF801FF0
FF801FF0
FF801FF0
FF801FE0
7FFFFFE0
7FFFFFE0
3FFFFFC0
3FFFFFC0
1FFFFF80
0FFFFF00
03FFFC00
03FFFC00
03FFFC00
03FFFC00
03FFFC00
03FFFC00
03FFFC00
ENDCHAR
STARTCHAR 00A3
ENCODING 163
SWIDTH 269 0
DWIDTH 14 0
BBX 39 39 2 5
BITMAP
07FFFFFFC0
1FFFFFFFF0
3F03FFC0F8
7C00FF003C
78007E001C
F8007C000E
F000380006
E000380006
E000100002
E000100002
E000100002
E000100002
E000100002
E000380006
F000380006
F0007C000E
F8007E001E
FC00FF003E
FF03FFC0FE
FFFFFFFFFE
FF03FFC0FE
FC00FF003E
F8007E001E
F8007C000E
F000380006
E000380006
E000100002
E000100002
E000100002
E000100002
E000100002
E000380006
F000380006
F0007C000E
78007E001C
7C00FF003C
3F03FFC0F8
1FFFFFFFF0
07FFFFFFC0
ENDCHAR
STARTCHAR 00A4
ENCODING 164
SWIDTH 269 0
DWIDTH 14 0
BBX 39 39 2 5
BITMAP
07FFFFFFC0
1FFFFFFFF0
3F03FFC0F8
7C00FF003C
78007E001C
F8007C000E
F000380006
E000380006
E000100002
E000100002
E000100002
E000100002
E000100002
E000380006
F000380006
F0007C000E
F8007E001E
FC00FF003E
FF03FFC0FE
FFFFFFFFFE
FF03FFC0FE
FC00FF003E
F8007E001E
F8007C000E
F000380006
E000380006
E000100002
E000100002
E000100002
E000100002
E000100002
E000380006
F000380006
F0007C000E
78007E001C
7C00FF003C
3F03FFC0F8
1FFFFFFFF0
07FFFFFFC0
ENDCHAR
STARTCHAR 00A5
ENCODING 165
SWIDTH 269 0
DWIDTH 14 0
BBX 39 39 2 5
BITMAP
07FFFFFFC0
1FFFFFFFF0
3F03FFC0F8
7C00FF003C
78007E001C
F8007C000E
F000380006
E000380006
E000100002
E000100002
E000100002
E000100002
E000100002
E000380006
F000380006
F0007C000E
F8007E001E
FC00FF003E
FF03FFC0FE
FFFFFFFFFE
FF03FFC0FE
FC00FF003E
F8007E001E
F8007C000E
F000380006
E000380006
E000100002
E000100002
E000100002
E000100002
E000100002
E000380006
F000380006
F0007C000E
78007E001C
7C00FF003C
3F03FFC0F8
1FFFFFFFF0
07FFFFFFC0
ENDCHAR
STARTCHAR 00A7
ENCODING 167
SWIDTH 480 0
DWIDTH 25 0
BBX 27 68 0 -17
BITMAP
00FFE000
03FFF800
0FFFFC00
1F803F00
3E000F00
3C000780
780003C0
700001C0
F00001C0
E00000E0
E00000E0
E00000E0
E00000E0
E00E00E0
E00E00E0
E00FFFE0
E007FFE0
E000FFE0
E0003E00
E0000F00
F0000780
F8000380
EC0001C0
E60001C0
E10000E0
E0C000E0
E03000E0
E01E00E0
E00E00E0
E00E00E0
E00380E0
E000C0E0
E00030E0
700008E0
700006E0
380003E0
3C0001E0
1E0001E0
0F0000E0
FFC000E0
FFF800E0
FFFE00E0
E00E00E0
E00E00E0
E00E00E0
E00000E0
E00000E0
E00000E0
E00000E0
F00001E0
F00001E0
F80003E0
FC0007E0
FE000FE0
FF803FE0
FFFFFFE0
FFFFFFE0
FFFFFFE0
FFFFFFE0
FFFFFFE0
7FFFFFC0
7FFFFFC0
3FFFFF80
3FFFFF80
1FFFFF00
0FFFFE00
03FFF800
00FFE000
ENDCHAR
STARTCHAR 00A8
ENCODING 168
SWIDTH 557 0
DWIDTH 29 0
BBX 27 17 2 40
BITMAP
FFFFFFE0
FFFFFFE0
FFFFFFE0
E00E00E0
E00E00E0
E00E00E0
E00E00E0
E00E00E0
E00E00E0
E00E00E0
E00E00E0
E00E00E0
E00E00E0
E00E00E0
FFFFFFE0
FFFFFFE0
FFFFFFE0
ENDCHAR
STARTCHAR 00A9
ENCODING 169
SWIDTH 557 0
DWIDTH 29 0
BBX 27 48 3 0
BITMAP
03FFF000
0FFFFC00
3FFFFF00
7FFFFF80
7FFFFF80
FFFFFFC0
FFFFFFC0
FFFFFFC0
FFFFFFE0
FFFFFFE0
FFC0FFE0
FF003FE0
FE001FE0
FE000FE0
FC000FE0
FC000FE0
FC0C07E0
FC0E07E0
FC0E07E0
FC0E07E0
FC0E07E0
FC0FFFE0
FC0FFFE0
FC0FFFE0
FC0FFFE0
FC0FFFE0
FC0FFFE0
FC0E07E0
FC0E07E0
FC0E07E0
FC0E07E0
FC0C0FE0
FC000FE0
FC000FE0
FE001FE0
FF003FE0
FFC0FFE0
FFFFFFE0
FFFFFFE0
FFFFFFE0
FFFFFFC0
FFFFFFC0
FFFFFFC0
7FFFFF80
7FFFFF80
3FFFFF00
0FFFFC00
03FFF000
ENDCHAR
STARTCHAR 00AA
ENCODING 170
SWIDTH 269 0
DWIDTH 14 0
BBX 39 39 2 5
BITMAP
07FFFFFFC0
1FFFFFFFF0
3F03FFC0F8
7C00FF003C
78007E001C
F8007C000E
F000380006
E000380006
E000100002
E000100002
E000100002
E000100002
E000100002
E000380006
F000380006
F0007C000E
F8007E001E
FC00FF003E
FF03FFC0FE
FFFFFFFFFE
FF03FFC0FE
FC00FF003E
F8007E001E
F8007C000E
F000380006
E000380006
E000100002
E000100002
E000100002
E000100002
E000100002
E000380006
F000380006
F0007C000E
78007E001C
7C00FF003C
3F03FFC0F8
1FFFFFFFF0
07FFFFFFC0
ENDCHAR
STARTCHAR 00AB
ENCODING 171
SWIDTH 269 0
DWIDTH 14 0
BBX 39 39 2 5
BITMAP
07FFFFFFC0
1FFFFFFFF0
3F03FFC0F8
7C00FF003C
78007E001C
F8007C000E
F000380006
E000380006
E000100002
E000100002
E000100002
E000100002
E000100002
E000380006
F000380006
F0007C000E
F8007E001E
FC00FF003E
FF03FFC0FE
FFFFFFFFFE
FF03FFC0FE
FC00FF003E
F8007E001E
F8007C000E
F000380006
E000380006
E000100002
E000100002
E000100002
E000100002
E000100002
E000380006
F000380006
F0007C000E
78007E001C
7C00FF003C
3F03FFC0F8
1FFFFFFFF0
07FFFFFFC0
ENDCHAR
STARTCHAR 00AC
ENCODING 172
SWIDTH 269 0
DWIDTH 14 0
BBX 39 39 2 5
BITMAP
07FFFFFFC0
1FFFFFFFF0
3F03FFC0F8
7C00FF003C
78007E001C
F8007C000E
F000380006
E000380006
E000100002
E000100002
E000100002
E000100002
E000100002
E000380006
F000380006
F0007C000E
F8007E001E
FC00FF003E
FF03FFC0FE
FFFFFFFFFE
FF03FFC0FE
FC00FF003E
F8007E001E
F8007C000E
F000380006
E000380006
E000100002
E000100002
E000100002
E000100002
E000100002
E000380006
F000380006
F0007C000E
78007E001C
7C00FF003C
3F03FFC0F8
1FFFFFFFF0
07FFFFFFC0
ENDCHAR
STARTCHAR 00AE
ENCODING 174
SWIDTH 480 0
DWIDTH 25 0
BBX 23 48 3 0
BITMAP
03FF00
0FFFC0
3FFFF0
7FFFF8
7FFFF8
FFFFFC
FFFFFC
FFFFFC
FFFFFE
FFFFFE
FFC07E
FF007E
FE007E
FE007E
FC007E
FC007E
FC0FFE
FC0FFE
FC0FFE
FC0FFE
FC0FFE
FC0FFE
FC0FFE
FC0FFE
FC0FFE
FC0FFE
FC0FFE
FC0FFE
FC0FFE
FC0FFE
FC0FFE
FC0FFE
FC0FFE
FC0FFE
FC0FFE
FC0FFE
FC0FFE
FC0FFE
FFFFFE
FFFFFE
FFFFFC
FFFFFC
FFFFFC
7FFFF8
7FFFF8
3FFFF0
0FFFC0
03FF00
ENDCHAR
STARTCHAR 00B0
ENCODING 176
SWIDTH 269 0
DWIDTH 14 0
BBX 39 39 2 5
BITMAP
07FFFFFFC0
1FFFFFFFF0
3F03FFC0F8
7C00FF003C
78007E001C
F8007C000E
F000380006
E000380006
E000100002
E000100002
E000100002
E000100002
E000100002
E000380006
F000380006
F0007C000E
F8007E001E
FC00FF003E
FF03FFC0FE
FFFFFFFFFE
FF03FFC0FE
FC00FF003E
F8007E001E
F8007C000E
F000380006
E000380006
E000100002
E000100002
E000100002
E000100002
E000100002
E000380006
F000380006
F0007C000E
78007E001C
7C00FF003C
3F03FFC0F8
1FFFFFFFF0
07FFFFFFC0
ENDCHAR
STARTCHAR 00B1
ENCODING 177
SWIDTH 269 0
DWIDTH 14 0
BBX 39 39 2 5
BITMAP
07FFFFFFC0
1FFFFFFFF0
3F03FFC0F8
7C00FF003C
78007E001C
F8007C000E
F000380006
E000380006
E000100002
E000100002
E000100002
E000100002
E000100002
E000380006
F000380006
F0007C000E
F8007E001E
FC00FF003E
FF03FFC0FE
FFFFFFFFFE
FF03FFC0FE
FC00FF003E
F8007E001E
F8007C000E
F000380006
E000380006
E000100002
E000100002
E000100002
E000100002
E000100002
E000380006
F000380006
F0007C000E
78007E001C
7C00FF003C
3F03FFC0F8
1FFFFFFFF0
07FFFFFFC0
ENDCHAR
STARTCHAR 00B4
ENCODING 180
SWIDTH 115 0
DWIDTH 6 0
BBX 27 19 -4 40
BITMAP
003FFFE0
003FFFC0
007FFFC0
00700380
00E00780
01E00700
01C00F00
03C00E00
03801E00
07803C00
07003800
0F007800
1E007000
1C00F000
3C00E000
3801E000
7FFFC000
7FFF8000
FFFF8000
ENDCHAR
STARTCHAR 00B5
ENCODING 181
SWIDTH 269 0
DWIDTH 14 0
BBX 39 39 2 5
BITMAP
07FFFFFFC0
1FFFFFFFF0
3F03FFC0F8
7C00FF003C
78007E001C
F8007C000E
F000380006
E000380006
E000100002
E000100002
E000100002
E000100002
E000100002
E000380006
F000380006
F0007C000E
F8007E001E
FC00FF003E
FF03FFC0FE
FFFFFFFFFE
FF03FFC0FE
FC00FF003E
F8007E001E
F8007C000E
F000380006
E000380006
E000100002
E000100002
E000100002
E000100002
E000100002
E000380006
F000380006
F0007C000E
78007E001C
7C00FF003C
3F03FFC0F8
1FFFFFFFF0
07FFFFFFC0
ENDCHAR
STARTCHAR 00B6
ENCODING 182
SWIDTH 269 0
DWIDTH 14 0
BBX 39 39 2 5
BITMAP
07FFFFFFC0
1FFFFFFFF0
3F03FFC0F8
7C00FF003C
78007E001C
F8007C000E
F000380006
E000380006
E000100002
E000100002
E000100002
E000100002
E000100002
E000380006
F000380006
F0007C000E
F8007E001E
FC00FF003E
FF03FFC0FE
FFFFFFFFFE
FF03FFC0FE
FC00FF003E
F8007E001E
F8007C000E
F000380006
E000380006
E000100002
E000100002
E000100002
E000100002
E000100002
E000380006
F000380006
F0007C000E
78007E001C
7C00FF003C
3F03FFC0F8
1FFFFFFFF0
07FFFFFFC0
ENDCHAR
STARTCHAR 00B7
ENCODING 183
SWIDTH 269 0
DWIDTH 14 0
BBX 39 39 2 5
BITMAP
07FFFFFFC0
1FFFFFFFF0
3F03FFC0F8
7C00FF003C
78007E001C
F8007C000E
F000380006
E000380006
E000100002
E000100002
E000100002
E000100002
E000100002
E000380006
F000380006
F0007C000E
F8007E001E
FC00FF003E
FF03FFC0FE
FFFFFFFFFE
FF03FFC0FE
FC00FF003E
F8007E001E
F8007C000E
F000380006
E000380006
E000100002
E000100002
E000100002
E000100002
E000100002
E000380006
F000380006
F0007C000E
78007E001C
7C00FF003C
3F03FFC0F8
1FFFFFFFF0
07FFFFFFC0
ENDCHAR
STARTCHAR 00B8
ENCODING 184
SWIDTH 365 0
DWIDTH 19 0
BBX 20 24 2 -18
BITMAP
07FFF0
07FFF0
07FFF0
070070
070070
070070
070070
070070
070070
FF0070
FF0070
FF0070
E000F0
E000E0
E000E0
E000E0
E001E0
E001C0
E003C0
E00780
E01F00
FFFE00
FFFC00
FFE000
ENDCHAR
STARTCHAR 00BA
ENCODING 186
SWIDTH 269 0
DWIDTH 14 0
BBX 39 39 2 5
BITMAP
07FFFFFFC0
1FFFFFFFF0
3F03FFC0F8
7C00FF003C
78007E001C
F8007C000E
F000380006
E000380006
E000100002
E000100002
E000100002
E000100002
E000100002
E000380006
F000380006
F0007C000E
F8007E001E
FC00FF003E
FF03FFC0FE
FFFFFFFFFE
FF03FFC0FE
FC00FF003E
F8007E001E
F8007C000E
F000380006
E000380006
E000100002
E000100002
E000100002
E000100002
E000100002
E000380006
F000380006
F0007C000E
78007E001C
7C00FF003C
3F03FFC0F8
1FFFFFFFF0
07FFFFFFC0
ENDCHAR
STARTCHAR 00BB
ENCODING 187
SWIDTH 269 0
DWIDTH 14 0
BBX 39 39 2 5
BITMAP
07FFFFFFC0
1FFFFFFFF0
3F03FFC0F8
7C00FF003C
78007E001C
F8007C000E
F000380006
E000380006
E000100002
E000100002
E000100002
E000100002
E000100002
E000380006
F000380006
F0007C000E
F8007E001E
FC00FF003E
FF03FFC0FE
FFFFFFFFFE
FF03FFC0FE
FC00FF003E
F8007E001E
F8007C000E
F000380006
E000380006
E000100002
E000100002
E000100002
E000100002
E000100002
E000380006
F000380006
F0007C000E
78007E001C
7C00FF003C
3F03FFC0F8
1FFFFFFFF0
07FFFFFFC0
ENDCHAR
STARTCHAR 00BF
ENCODING 191
SWIDTH 480 0
DWIDTH 25 0
BBX 28 60 0 -7
BITMAP
0007FFF0
0007FFF0
0007FFF0
0007FFF0
0007FFF0
0007FFF0
0007FFF0
0007FFF0
0007FFF0
0007FFF0
0007FFF0
0007FFF0
0007FFF0
00070070
00070070
00070070
00070070
00070070
00070070
001F0070
007F0070
01FF0070
07FF0070
0FFF0070
1FFFFFF0
3FFFFFF0
7FFFFFF0
7FFFFFF0
FFFFFFF0
FFFF0070
FFFF0070
FFFE0070
FFF00070
FFC00070
FF0000E0
FE0000E0
F80001C0
F00003C0
F0001780
E000FE00
E007FC00
E007F000
E007FFF0
E007FFF0
E007FFF0
E0070070
E0070070
E0070070
E0000070
E0000070
E0000070
F00000E0
700000E0
780001E0
3C0003C0
3E000780
1F801F80
0FFFFE00
03FFFC00
00FFF000
ENDCHAR
STARTCHAR 00C0
ENCODING 192
SWIDTH 461 0
DWIDTH 24 0
BBX 28 78 -1 -13
BITMAP
FFFF8000
7FFFC000
7001C000
3000E000
1800E000
1C007000
0C003000
0E003800
06001C00
07001C00
03000E00
03800E00
01C00700
00C00300
00E00380
006001C0
007FFFC0
00400030
01C00010
03FFFFF0
0FC00070
0F000070
1E000070
3C000070
38000070
78000070
70000070
70000070
70000070
70000070
70020070
70020070
70020070
70020070
70020070
70020070
70020070
70020070
70020070
70020070
70020070
70020070
70020070
70020070
70000070
70000070
70000070
70000070
70000070
70000070
70000070
70000070
70000070
70020070
70020070
70020070
70020070
70020070
70020070
70020070
70020070
70020070
70020070
70020070
70020070
7FFFFFF0
7FFFFFF0
7FFFFFF0
7FFFFFF0
7FFFFFF0
7FFFFFF0
7FFFFFF0
7FFFFFF0
7FFFFFF0
7FFFFFF0
7FFFFFF0
7FFFFFF0
7FFFFFF0
ENDCHAR
STARTCHAR 00C1
ENCODING 193
SWIDTH 461 0
DWIDTH 24 0
BBX 29 78 0 -13
BITMAP
000FFFF8
000FFFF8
001FFFF0
001C00E0
003C01E0
003801C0
007003C0
00F00380
00E00780
01E00700
01C00F00
03C00E00
03801C00
07803C00
07003800
0E007800
1FFFF000
1FFFFFE0
3FFFFFE0
07FFFFE0
1F8000E0
1E0000E0
3C0000E0
780000E0
700000E0
F00000E0
E00000E0
E00000E0
E00000E0
E00000E0
E00400E0
E00400E0
E00400E0
E00400E0
E00400E0
E00400E0
E00400E0
E00400E0
E00400E0
E00400E0
E00400E0
E00400E0
E00400E0
E00400E0
E00000E0
E00000E0
E00000E0
E00000E0
E00000E0
E00000E0
E00000E0
E00000E0
E00000E0
E00400E0
E00400E0
E00400E0
E00400E0
E00400E0
E00400E0
E00400E0
E00400E0
E00400E0
E00400E0
E00400E0
E00400E0
FFFFFFE0
FFFFFFE0
FFFFFFE0
FFFFFFE0
FFFFFFE0
FFFFFFE0
FFFFFFE0
FFFFFFE0
FFFFFFE0
FFFFFFE0
FFFFFFE0
FFFFFFE0
FFFFFFE0
ENDCHAR
STARTCHAR 00C2
ENCODING 194
SWIDTH 461 0
DWIDTH 24 0
BBX 43 77 -6 -13
BITMAP
00007F800000
0000FFC00000
0001FFE00000
0003C0F00000
000780780000
000F003C0000
001E001E0000
003C000F0000
007800078000
00F00003C000
01E00001E000
03C00000F000
078000007800
0F0000003C00
1E000C001E00
3FFFFFFFFF80
7FFFFFFFFFC0
FFFFFFFFFFE0
001FFFFF8000
007E00038000
007800038000
00F000038000
01E000038000
01C000038000
03C000038000
038000038000
038000038000
038000038000
038000038000
038010038000
038010038000
038010038000
038010038000
038010038000
038010038000
038010038000
038010038000
038010038000
038010038000
038010038000
038010038000
038010038000
038010038000
038000038000
038000038000
038000038000
038000038000
038000038000
038000038000
038000038000
038000038000
038000038000
038010038000
038010038000
038010038000
038010038000
038010038000
038010038000
038010038000
038010038000
038010038000
038010038000
038010038000
038010038000
03FFFFFF8000
03FFFFFF8000
03FFFFFF8000
03FFFFFF8000
03FFFFFF8000
03FFFFFF8000
03FFFFFF8000
03FFFFFF8000
03FFFFFF8000
03FFFFFF8000
03FFFFFF8000
03FFFFFF8000
03FFFFFF8000
ENDCHAR
STARTCHAR 00C3
ENCODING 195
SWIDTH 461 0
DWIDTH 24 0
BBX 27 78 0 -13
BITMAP
0C07F000
1F9FFC00
1FFFFE00
1FFC1F00
38700780
38000380
380003C0
380001C0
380001C0
380001C0
380001C0
380001C0
3C0001C0
1C0001C0
1E00F1C0
0F83FF80
07FFFF80
03FFFFE0
03FFFFE0
07FFFFE0
1F8000E0
1E0000E0
3C0000E0
780000E0
700000E0
F00000E0
E00000E0
E00000E0
E00000E0
E00000E0
E00400E0
E00400E0
E00400E0
E00400E0
E00400E0
E00400E0
E00400E0
E00400E0
E00400E0
E00400E0
E00400E0
E00400E0
E00400E0
E00400E0
E00000E0
E00000E0
E00000E0
E00000E0
E00000E0
E00000E0
E00000E0
E00000E0
E00000E0
E00400E0
E00400E0
E00400E0
E00400E0
E00400E0
E00400E0
E00400E0
E00400E0
E00400E0
E00400E0
E00400E0
E00400E0
FFFFFFE0
FFFFFFE0
FFFFFFE0
FFFFFFE0
FFFFFFE0
FFFFFFE0
FFFFFFE0
FFFFFFE0
FFFFFFE0
FFFFFFE0
FFFFFFE0
FFFFFFE0
FFFFFFE0
ENDCHAR
STARTCHAR 00C4
ENCODING 196
SWIDTH 461 0
DWIDTH 24 0
BBX 28 76 -1 -13
BITMAP
FFFFFFE0
FFFFFFE0
FFFFFFE0
E00E00E0
E00E00E0
E00E00E0
E00E00E0
E00E00E0
E00E00E0
E00E00E0
E00E00E0
E00E00E0
E00E00E0
E00E00E0
FFFFFFE0
FFFFFFF0
FFFFFFF0
03FFFFF0
0FC00070
0F000070
1E000070
3C000070
38000070
78000070
70000070
70000070
70000070
70000070
70020070
70020070
70020070
70020070
70020070
70020070
70020070
70020070
70020070
70020070
70020070
70020070
70020070
70020070
70000070
70000070
70000070
70000070
70000070
70000070
70000070
70000070
70000070
70020070
70020070
70020070
70020070
70020070
70020070
70020070
70020070
70020070
70020070
70020070
70020070
7FFFFFF0
7FFFFFF0
7FFFFFF0
7FFFFFF0
7FFFFFF0
7FFFFFF0
7FFFFFF0
7FFFFFF0
7FFFFFF0
7FFFFFF0
7FFFFFF0
7FFFFFF0
7FFFFFF0
ENDCHAR
STARTCHAR 00C5
ENCODING 197
SWIDTH 461 0
DWIDTH 24 0
BBX 27 78 0 -13
BITMAP
001FF000
007FFC00
00FFFE00
01F00F00
03C00780
03800380
078001C0
070001C0
070381C0
070381C0
070381C0
070001C0
078001C0
03800380
03C00780
01F00F00
00FFFE00
00FFFFE0
03FFFFE0
07FFFFE0
1F8000E0
1E0000E0
3C0000E0
780000E0
700000E0
F00000E0
E00000E0
E00000E0
E00000E0
E00000E0
E00400E0
E00400E0
E00400E0
E00400E0
E00400E0
E00400E0
E00400E0
E00400E0
E00400E0
E00400E0
E00400E0
E00400E0
E00400E0
E00400E0
E00000E0
E00000E0
E00000E0
E00000E0
E00000E0
E00000E0
E00000E0
E00000E0
E00000E0
E00400E0
E00400E0
E00400E0
E00400E0
E00400E0
E00400E0
E00400E0
E00400E0
E00400E0
E00400E0
E00400E0
E00400E0
FFFFFFE0
FFFFFFE0
FFFFFFE0
FFFFFFE0
FFFFFFE0
FFFFFFE0
FFFFFFE0
FFFFFFE0
FFFFFFE0
FFFFFFE0
FFFFFFE0
FFFFFFE0
FFFFFFE0
ENDCHAR
STARTCHAR 00C6
ENCODING 198
SWIDTH 750 0
DWIDTH 39 0
BBX 42 64 0 -13
BITMAP
007FF1FFC000
01FFFFFFF000
07FFFFFFFC00
0FC00E007E00
1F0000001F00
3C0000000780
380000000380
7800000003C0
7000000001C0
7000000001C0
7000000001C0
E000000001C0
E000000001C0
E007003801C0
E007003801C0
E007003801C0
E007003801C0
E007003801C0
E007003801C0
E007003801C0
E007003801C0
E007003801C0
E000000001C0
E000000001C0
E000000001C0
E000000001C0
E000000001C0
E000000001C0
E000000001C0
E000000001C0
E000000001C0
E000000001C0
E007003FFFC0
E007003FFFC0
E007003FFFC0
E007003FFFC0
E007003801C0
E007003801C0
E007003801C0
E007003801C0
E007003801C0
E007000001C0
E007000001C0
E007800001C0
E007800001C0
E007800001C0
E007C00003C0
E007C00007C0
E007E00007C0
E007F8001FC0
E007FE007FC0
FFFFFFFFFFC0
FFFFFFFFFFC0
FFFFFFFFFFC0
FFFFFFFFFFC0
FFFFFFFFFFC0
FFFFFFFFFFC0
FFFFFFFFFF80
FFFFFFFFFF80
FFFFFFFFFF00
FFFF7FFFFE00
FFFF3FFFFC00
FFFF1FFFF000
FFFF03FFC000
ENDCHAR
STARTCHAR 00C7
ENCODING 199
SWIDTH 461 0
DWIDTH 24 0
BBX 27 76 0 -28
BITMAP
00FFE000
03FFF800
0FFFFC00
1F803F00
3E000F00
3C000780
780003C0
700001C0
F00001E0
E00000E0
E00000E0
E00000E0
E00000E0
E00C00E0
E00C00E0
E00C00E0
E00C00E0
E00C00E0
E00C00E0
E00C00E0
E00C00E0
E00C00E0
E00C00E0
E00C00E0
E00C00E0
E00C00E0
E00FFFE0
E00FFFE0
E00C00E0
E00C00E0
E00C00E0
E00C00E0
E00C00E0
E00C00E0
E00C00E0
E00C00E0
E00C00E0
E00C00E0
E00000E0
E00000E0
E00000E0
E00000E0
E00001E0
700001E0
700003E0
380007E0
3C000FE0
1F001FE0
0F801FE0
03801FE0
03801FE0
3F801FE0
3F801FC0
3F801FC0
38001FC0
38001F80
38001F00
38003E00
38003C00
38007C00
3800FC00
3801FC00
3807FC00
3FFFFC00
3FFFFC00
3FFFFC00
3FFFFC00
3FFFFC00
3FFFF800
3FFFF800
3FFFF000
3FFFF000
3FFFE000
3FFFC000
3FFF0000
3FFC0000
ENDCHAR
STARTCHAR 00C8
ENCODING 200
SWIDTH 461 0
DWIDTH 24 0
BBX 28 78 -1 -13
BITMAP
FFFF8000
7FFFC000
7001C000
3000E000
1800E000
1C007000
0C003000
0E003800
06001C00
07001C00
03000E00
03800E00
01C00700
00C00300
00E00380
006001C0
007FFFC0
00400FE0
01C003E0
03FFFE00
0FC01F80
0F000780
1E0003C0
3C0001E0
380000E0
780000F0
70000070
70000070
70000070
70000070
70020070
70020070
70020070
70020070
70020070
70020070
70020070
70020070
70020070
70020070
70020070
70020070
70020070
70000070
70000070
70000070
70000070
70000070
70000070
70000070
70000070
70000070
70000070
7003FFF0
7003FFF0
70000070
70000070
70000070
70000070
78000070
78000070
7C000070
7E000070
7F000070
7FC00070
7FFFFFF0
7FFFFFF0
7FFFFFF0
7FFFFFF0
7FFFFFF0
3FFFFFF0
3FFFFFF0
1FFFFFF0
0FFFFFF0
0FFFFFF0
03FFFFF0
01FFFFF0
007FFFF0
ENDCHAR
STARTCHAR 00C9
ENCODING 201
SWIDTH 461 0
DWIDTH 24 0
BBX 29 78 0 -13
BITMAP
000FFFF8
000FFFF8
001FFFF0
001C00E0
003C01E0
003801C0
007003C0
00F00380
00E00780
01E00700
01C00F00
03C00E00
03801C00
07803C00
07003800
0E007800
1FFFF000
1FFFF000
3FFFF800
07FFFC00
1F803F00
1E000F00
3C000780
780003C0
700001C0
F00001E0
E00000E0
E00000E0
E00000E0
E00000E0
E00400E0
E00400E0
E00400E0
E00400E0
E00400E0
E00400E0
E00400E0
E00400E0
E00400E0
E00400E0
E00400E0
E00400E0
E00400E0
E00000E0
E00000E0
E00000E0
E00000E0
E00000E0
E00000E0
E00000E0
E00000E0
E00000E0
E00000E0
E007FFE0
E007FFE0
E00000E0
E00000E0
E00000E0
E00000E0
F00000E0
F00000E0
F80000E0
FC0000E0
FE0000E0
FF8000E0
FFFFFFE0
FFFFFFE0
FFFFFFE0
FFFFFFE0
FFFFFFE0
7FFFFFE0
7FFFFFE0
3FFFFFE0
3FFFFFE0
1FFFFFE0
0FFFFFE0
03FFFFE0
00FFFFE0
ENDCHAR
STARTCHAR 00CA
ENCODING 202
SWIDTH 461 0
DWIDTH 24 0
BBX 43 77 -6 -13
BITMAP
00007F800000
0000FFC00000
0001FFE00000
0003C0F00000
000780780000
000F003C0000
001E001E0000
003C000F0000
007800078000
00F00003C000
01E00001E000
03C00000F000
078000007800
0F0000003C00
1E000C001E00
3FFFFFFFFF80
7FFFFFFFFFC0
FFFFFFFFFFE0
001FFFF00000
007E00FC0000
0078003C0000
00F0001E0000
01E0000F0000
01C000070000
03C000078000
038000038000
038000038000
038000038000
038000038000
038010038000
038010038000
038010038000
038010038000
038010038000
038010038000
038010038000
038010038000
038010038000
038010038000
038010038000
038010038000
038010038000
038000038000
038000038000
038000038000
038000038000
038000038000
038000038000
038000038000
038000038000
038000038000
038000038000
03801FFF8000
03801FFF8000
038000038000
038000038000
038000038000
038000038000
03C000038000
03C000038000
03E000038000
03F000038000
03F800038000
03FE00038000
03FFFFFF8000
03FFFFFF8000
03FFFFFF8000
03FFFFFF8000
03FFFFFF8000
01FFFFFF8000
01FFFFFF8000
00FFFFFF8000
00FFFFFF8000
007FFFFF8000
003FFFFF8000
000FFFFF8000
0003FFFF8000
ENDCHAR
STARTCHAR 00CB
ENCODING 203
SWIDTH 461 0
DWIDTH 24 0
BBX 30 76 0 -13
BITMAP
1FFFFFFC
1FFFFFFC
1FFFFFFC
1C01C01C
1C01C01C
1C01C01C
1C01C01C
1C01C01C
1C01C01C
1C01C01C
1C01C01C
1C01C01C
1C01C01C
1C01C01C
1FFFFFFC
1FFFFFFC
1FFFFFFC
07FFFC00
1F803F00
1E000F00
3C000780
780003C0
700001C0
F00001E0
E00000E0
E00000E0
E00000E0
E00000E0
E00400E0
E00400E0
E00400E0
E00400E0
E00400E0
E00400E0
E00400E0
E00400E0
E00400E0
E00400E0
E00400E0
E00400E0
E00400E0
E00000E0
E00000E0
E00000E0
E00000E0
E00000E0
E00000E0
E00000E0
E00000E0
E00000E0
E00000E0
E007FFE0
E007FFE0
E00000E0
E00000E0
E00000E0
E00000E0
F00000E0
F00000E0
F80000E0
FC0000E0
FE0000E0
FF8000E0
FFFFFFE0
FFFFFFE0
FFFFFFE0
FFFFFFE0
FFFFFFE0
7FFFFFE0
7FFFFFE0
3FFFFFE0
3FFFFFE0
1FFFFFE0
0FFFFFE0
03FFFFE0
00FFFFE0
ENDCHAR
STARTCHAR 00CC
ENCODING 204
SWIDTH 269 0
DWIDTH 14 0
BBX 27 78 -9 -13
BITMAP
FFFF8000
7FFFC000
7001C000
3800E000
18006000
1C007000
0C003000
0E003800
06001C00
07001C00
03800E00
03800E00
01C00700
00C00300
00E00380
00600180
007FFFC0
00400060
00400060
003FFF80
00380380
00380380
00380380
00380380
00380380
00380380
00380380
00380380
00380380
00380380
00380380
00380380
00380380
00380380
00380380
00380380
00380380
00380380
00380380
00380380
00380380
00380380
00380380
00380380
00380380
00380380
00380380
00380380
00380380
00380380
00380380
00380380
00380380
00380380
00380380
00380380
00380380
00380380
00380380
00380380
00380380
00380380
00380380
00380380
00380380
003FFF80
003FFF80
003FFF80
003FFF80
003FFF80
003FFF80
003FFF80
003FFF80
003FFF80
003FFF80
003FFF80
003FFF80
003FFF80
ENDCHAR
STARTCHAR 00CD
ENCODING 205
SWIDTH 250 0
DWIDTH 13 0
BBX 27 78 -3 -13
BITMAP
003FFFE0
003FFFE0
007FFFC0
00700380
00F00780
00E00700
01C00F00
03C00E00
03801E00
07801C00
07003C00
0F003800
0E007000
1E00F000
1C00E000
3801E000
7FFFC000
7FFFC000
FFFFC000
1FFFC000
1C01C000
1C01C000
1C01C000
1C01C000
1C01C000
1C01C000
1C01C000
1C01C000
1C01C000
1C01C000
1C01C000
1C01C000
1C01C000
1C01C000
1C01C000
1C01C000
1C01C000
1C01C000
1C01C000
1C01C000
1C01C000
1C01C000
1C01C000
1C01C000
1C01C000
1C01C000
1C01C000
1C01C000
1C01C000
1C01C000
1C01C000
1C01C000
1C01C000
1C01C000
1C01C000
1C01C000
1C01C000
1C01C000
1C01C000
1C01C000
1C01C000
1C01C000
1C01C000
1C01C000
1C01C000
1FFFC000
1FFFC000
1FFFC000
1FFFC000
1FFFC000
1FFFC000
1FFFC000
1FFFC000
1FFFC000
1FFFC000
1FFFC000
1FFFC000
1FFFC000
ENDCHAR
STARTCHAR 00CE
ENCODING 206
SWIDTH 230 0
DWIDTH 12 0
BBX 43 77 -13 -13
BITMAP
00007F800000
0000FFC00000
0001FFE00000
0003C0F00000
000780780000
000F003C0000
001E001E0000
003C000F0000
007800078000
00F00003C000
01E00001E000
03C00000F000
078000007800
0F0000003C00
1E000C001E00
3FFFFFFFFF80
7FFFFFFFFFC0
FFFFFFFFFFE0
0007FFF00000
000700700000
000700700000
000700700000
000700700000
000700700000
000700700000
000700700000
000700700000
000700700000
000700700000
000700700000
000700700000
000700700000
000700700000
000700700000
000700700000
000700700000
000700700000
000700700000
000700700000
000700700000
000700700000
000700700000
000700700000
000700700000
000700700000
000700700000
000700700000
000700700000
000700700000
000700700000
000700700000
000700700000
000700700000
000700700000
000700700000
000700700000
000700700000
000700700000
000700700000
000700700000
000700700000
000700700000
000700700000
000700700000
0007FFF00000
0007FFF00000
0007FFF00000
0007FFF00000
0007FFF00000
0007FFF00000
0007FFF00000
0007FFF00000
0007FFF00000
0007FFF00000
0007FFF00000
0007FFF00000
0007FFF00000
ENDCHAR
STARTCHAR 00CF
ENCODING 207
SWIDTH 230 0
DWIDTH 12 0
BBX 27 76 -7 -13
BITMAP
FFFFFFE0
FFFFFFE0
FFFFFFE0
E00E00E0
E00E00E0
E00E00E0
E00E00E0
E00E00E0
E00E00E0
E00E00E0
E00E00E0
E00E00E0
E00E00E0
E00E00E0
FFFFFFE0
FFFFFFE0
FFFFFFE0
01FFFC00
01C01C00
01C01C00
01C01C00
01C01C00
01C01C00
01C01C00
01C01C00
01C01C00
01C01C00
01C01C00
01C01C00
01C01C00
01C01C00
01C01C00
01C01C00
01C01C00
01C01C00
01C01C00
01C01C00
01C01C00
01C01C00
01C01C00
01C01C00
01C01C00
01C01C00
01C01C00
01C01C00
01C01C00
01C01C00
01C01C00
01C01C00
01C01C00
01C01C00
01C01C00
01C01C00
01C01C00
01C01C00
01C01C00
01C01C00
01C01C00
01C01C00
01C01C00
01C01C00
01C01C00
01C01C00
01FFFC00
01FFFC00
01FFFC00
01FFFC00
01FFFC00
01FFFC00
01FFFC00
01FFFC00
01FFFC00
01FFFC00
01FFFC00
01FFFC00
01FFFC00
ENDCHAR
STARTCHAR 00D0
ENCODING 208
SWIDTH 269 0
DWIDTH 14 0
BBX 39 39 2 5
BITMAP
07FFFFFFC0
1FFFFFFFF0
3F03FFC0F8
7C00FF003C
78007E001C
F8007C000E
F000380006
E000380006
E000100002
E000100002
E000100002
E000100002
E000100002
E000380006
F000380006
F0007C000E
F8007E001E
FC00FF003E
FF03FFC0FE
FFFFFFFFFE
FF03FFC0FE
FC00FF003E
F8007E001E
F8007C000E
F000380006
E000380006
E000100002
E000100002
E000100002
E000100002
E000100002
E000380006
F000380006
F0007C000E
78007E001C
7C00FF003C
3F03FFC0F8
1FFFFFFFF0
07FFFFFFC0
ENDCHAR
STARTCHAR 00D1
ENCODING 209
SWIDTH 461 0
DWIDTH 24 0
BBX 27 78 0 -13
BITMAP
0C07F000
1F9FFC00
1FFFFE00
1FFC1F00
38700780
38000380
380003C0
380001C0
380001C0
380001C0
380001C0
380001C0
3C0001C0
1C0001C0
1E00F1C0
0F83FF80
07FFFF80
03FFEF80
03FFF980
07FFFC00
1F803F00
1E000F00
3C000780
780003C0
700001C0
F00001E0
E00000E0
E00000E0
E00000E0
E00000E0
E00C00E0
E00C00E0
E00C00E0
E00C00E0
E00C00E0
E00C00E0
E00C00E0
E00C00E0
E00C00E0
E00C00E0
E00C00E0
E00C00E0
E00C00E0
E00C00E0
E00C00E0
E00C00E0
E00C00E0
E00C00E0
E00C00E0
E00C00E0
E00C00E0
E00C00E0
E00C00E0
E00C00E0
E00C00E0
E00C00E0
E00C00E0
E00C00E0
E00C00E0
E00C00E0
E00C00E0
E00C00E0
E00C00E0
E00C00E0
E00C00E0
FFFFFFE0
FFFFFFE0
FFFFFFE0
FFFFFFE0
FFFFFFE0
FFFFFFE0
FFFFFFE0
FFFFFFE0
FFFFFFE0
FFFFFFE0
FFFFFFE0
FFFFFFE0
FFFFFFE0
ENDCHAR
STARTCHAR 00D2
ENCODING 210
SWIDTH 461 0
DWIDTH 24 0
BBX 29 78 -2 -13
BITMAP
FFFF8000
7FFFC000
7001C000
3800E000
38006000
1C007000
0C003000
0E003800
06001C00
07001C00
03000E00
03800E00
01C00700
00C00300
00E00380
00600180
007FFFC0
004007E0
00C001E0
03FFFF00
07E00FC0
0F8003C0
0F0001E0
1E0000F0
1C000070
3C000078
38000038
38000038
38000038
38000038
38010038
38010038
38010038
38010038
38010038
38010038
38010038
38010038
38010038
38010038
38010038
38010038
38010038
38010038
38010038
38010038
38010038
38010038
38010038
38010038
38010038
38010038
38010038
38010038
38010038
38000038
38000038
38000038
38000038
3C000078
3C000078
3E0000F8
3F0001F8
3F8003F8
3FE00FF8
3FFFFFF8
3FFFFFF8
3FFFFFF8
3FFFFFF8
3FFFFFF8
1FFFFFF0
1FFFFFF0
0FFFFFE0
0FFFFFC0
07FFFFC0
03FFFF00
00FFFE00
003FF800
ENDCHAR
STARTCHAR 00D3
ENCODING 211
SWIDTH 461 0
DWIDTH 24 0
BBX 29 78 0 -13
BITMAP
000FFFF8
000FFFF8
001FFFF0
001C00E0
003C01E0
003801C0
007003C0
00F00380
00E00780
01E00700
01C00F00
03C00E00
03801C00
07803C00
07003800
0E007800
1FFFF000
1FFFF000
3FFFF800
07FFFC00
1F803F00
1E000F00
3C000780
780003C0
700001C0
F00001E0
E00000E0
E00000E0
E00000E0
E00000E0
E00400E0
E00400E0
E00400E0
E00400E0
E00400E0
E00400E0
E00400E0
E00400E0
E00400E0
E00400E0
E00400E0
E00400E0
E00400E0
E00400E0
E00400E0
E00400E0
E00400E0
E00400E0
E00400E0
E00400E0
E00400E0
E00400E0
E00400E0
E00400E0
E00400E0
E00000E0
E00000E0
E00000E0
E00000E0
F00001E0
F00001E0
F80003E0
FC0007E0
FE000FE0
FF803FE0
FFFFFFE0
FFFFFFE0
FFFFFFE0
FFFFFFE0
FFFFFFE0
7FFFFFC0
7FFFFFC0
3FFFFF80
3FFFFF00
1FFFFF00
0FFFFC00
03FFF800
00FFE000
ENDCHAR
STARTCHAR 00D4
ENCODING 212
SWIDTH 461 0
DWIDTH 24 0
BBX 43 77 -6 -13
BITMAP
00007F800000
0000FFC00000
0001FFE00000
0003C0F00000
000780780000
000F003C0000
001E001E0000
003C000F0000
007800078000
00F00003C000
01E00001E000
03C00000F000
078000007800
0F0000003C00
1E000C001E00
3FFFFFFFFF80
7FFFFFFFFFC0
FFFFFFFFFFE0
001FFFF00000
007E00FC0000
0078003C0000
00F0001E0000
01E0000F0000
01C000070000
03C000078000
038000038000
038000038000
038000038000
038000038000
038010038000
038010038000
038010038000
038010038000
038010038000
038010038000
038010038000
038010038000
038010038000
038010038000
038010038000
038010038000
038010038000
038010038000
038010038000
038010038000
038010038000
038010038000
038010038000
038010038000
038010038000
038010038000
038010038000
038010038000
038010038000
038000038000
038000038000
038000038000
038000038000
03C000078000
03C000078000
03E0000F8000
03F0001F8000
03F8003F8000
03FE00FF8000
03FFFFFF8000
03FFFFFF8000
03FFFFFF8000
03FFFFFF8000
03FFFFFF8000
01FFFFFF0000
01FFFFFF0000
00FFFFFE0000
00FFFFFC0000
007FFFFC0000
003FFFF00000
000FFFE00000
0003FF800000
ENDCHAR
STARTCHAR 00D5
ENCODING 213
SWIDTH 461 0
DWIDTH 24 0
BBX 27 78 0 -13
BITMAP
0C07F000
1F9FFC00
1FFFFE00
1FFC1F00
38700780
38000380
380003C0
380001C0
380001C0
380001C0
380001C0
380001C0
3C0001C0
1C0001C0
1E00F1C0
0F83FF80
07FFFF80
03FFEF80
03FFF980
07FFFC00
1F803F00
1E000F00
3C000780
780003C0
700001C0
F00001E0
E00000E0
E00000E0
E00000E0
E00000E0
E00400E0
E00400E0
E00400E0
E00400E0
E00400E0
E00400E0
E00400E0
E00400E0
E00400E0
E00400E0
E00400E0
E00400E0
E00400E0
E00400E0
E00400E0
E00400E0
E00400E0
E00400E0
E00400E0
E00400E0
E00400E0
E00400E0
E00400E0
E00400E0
E00400E0
E00000E0
E00000E0
E00000E0
E00000E0
F00001E0
F00001E0
F80003E0
FC0007E0
FE000FE0
FF803FE0
FFFFFFE0
FFFFFFE0
FFFFFFE0
FFFFFFE0
FFFFFFE0
7FFFFFC0
7FFFFFC0
3FFFFF80
3FFFFF00
1FFFFF00
0FFFFC00
03FFF800
00FFE000
ENDCHAR
STARTCHAR 00D6
ENCODING 214
SWIDTH 461 0
DWIDTH 24 0
BBX 28 76 -1 -13
BITMAP
FFFFFFE0
FFFFFFE0
FFFFFFE0
E00E00E0
E00E00E0
E00E00E0
E00E00E0
E00E00E0
E00E00E0
E00E00E0
E00E00E0
E00E00E0
E00E00E0
E00E00E0
FFFFFFE0
FFFFFFE0
FFFFFFE0
03FFFE00
0FC01F80
0F000780
1E0003C0
3C0001E0
380000E0
780000F0
70000070
70000070
70000070
70000070
70020070
70020070
70020070
70020070
70020070
70020070
70020070
70020070
70020070
70020070
70020070
70020070
70020070
70020070
70020070
70020070
70020070
70020070
70020070
70020070
70020070
70020070
70020070
70020070
70020070
70000070
70000070
70000070
70000070
780000F0
780000F0
7C0001F0
7E0003F0
7F0007F0
7FC01FF0
7FFFFFF0
7FFFFFF0
7FFFFFF0
7FFFFFF0
7FFFFFF0
3FFFFFE0
3FFFFFE0
1FFFFFC0
1FFFFF80
0FFFFF80
07FFFE00
01FFFC00
007FF000
ENDCHAR
STARTCHAR 00D8
ENCODING 216
SWIDTH 480 0
DWIDTH 25 0
BBX 28 64 0 -13
BITMAP
00FFF000
03FFFC00
0FFFFE00
1F801F80
3E000780
3C0003C0
780001E0
700000E0
F00000F0
E0000070
E0000070
E0000070
E0000070
E0000070
E0080070
E0000070
E0000070
E0000070
E0000070
E0000070
E0000070
E0000070
E0000070
E0000070
E0000070
E0000070
E0000070
E0000070
E0000070
E0000070
E0000070
E0000070
E0000070
E0000070
E0000070
E0000070
E0000070
E0000070
E0000070
E0020070
E0020070
E0000070
E0000070
E0000070
E0000070
F00000F0
F00000F0
F80001F0
FC0003F0
FE0007F0
FF801FF0
FFFFFFF0
FFFFFFF0
FFFFFFF0
FFFFFFF0
FFFFFFF0
7FFFFFE0
7FFFFFE0
3FFFFFC0
3FFFFF80
1FFFFF80
0FFFFF00
03FFFC00
00FFF000
ENDCHAR
STARTCHAR 00D9
ENCODING 217
SWIDTH 461 0
DWIDTH 24 0
BBX 30 78 -3 -13
BITMAP
FFFF8000
7FFFC000
7001C000
3800E000
3800E000
1C007000
0C003000
0E003800
06001800
07001C00
03000E00
03800E00
01C00700
00C00300
00E00380
00600180
007FFFC0
1FC0003C
1FC0001C
1FFFFFFC
1C01801C
1C01801C
1C01801C
1C01801C
1C01801C
1C01801C
1C01801C
1C01801C
1C01801C
1C01801C
1C01801C
1C01801C
1C01801C
1C01801C
1C01801C
1C01801C
1C01801C
1C01801C
1C01801C
1C01801C
1C01801C
1C01801C
1C01801C
1C01801C
1C01801C
1C01801C
1C01801C
1C01801C
1C01801C
1C01801C
1C01801C
1C01801C
1C01801C
1C01801C
1C01801C
1C00001C
1C00001C
1C00001C
1C00001C
1E00003C
1E00003C
1F00007C
1F8000FC
1FC001FC
1FF007FC
1FFFFFFC
1FFFFFFC
1FFFFFFC
1FFFFFFC
1FFFFFFC
0FFFFFF8
0FFFFFF8
07FFFFF0
07FFFFE0
03FFFFE0
01FFFF80
007FFF00
001FFC00
ENDCHAR
STARTCHAR 00DA
ENCODING 218
SWIDTH 461 0
DWIDTH 24 0
BBX 29 78 0 -13
BITMAP
000FFFF8
000FFFF8
001FFFF0
001C00E0
003C01E0
003801C0
007003C0
00F00380
00E00780
01E00700
01C00F00
03C00E00
03801C00
07803C00
07003800
0E007800
1FFFF000
FFFFFFE0
FFFFFFE0
FFFFFFE0
E00C00E0
E00C00E0
E00C00E0
E00C00E0
E00C00E0
E00C00E0
E00C00E0
E00C00E0
E00C00E0
E00C00E0
E00C00E0
E00C00E0
E00C00E0
E00C00E0
E00C00E0
E00C00E0
E00C00E0
E00C00E0
E00C00E0
E00C00E0
E00C00E0
E00C00E0
E00C00E0
E00C00E0
E00C00E0
E00C00E0
E00C00E0
E00C00E0
E00C00E0
E00C00E0
E00C00E0
E00C00E0
E00C00E0
E00C00E0
E00C00E0
E00000E0
E00000E0
E00000E0
E00000E0
F00001E0
F00001E0
F80003E0
FC0007E0
FE000FE0
FF803FE0
FFFFFFE0
FFFFFFE0
FFFFFFE0
FFFFFFE0
FFFFFFE0
7FFFFFC0
7FFFFFC0
3FFFFF80
3FFFFF00
1FFFFF00
0FFFFC00
03FFF800
00FFE000
ENDCHAR
STARTCHAR 00DB
ENCODING 219
SWIDTH 461 0
DWIDTH 24 0
BBX 43 77 -6 -13
BITMAP
00007F800000
0000FFC00000
0001FFE00000
0003C0F00000
000780780000
000F003C0000
001E001E0000
003C000F0000
007800078000
00F00003C000
01E00001E000
03C00000F000
078000007800
0F0000003C00
1E000C001E00
3FFFFFFFFF80
7FFFFFFFFFC0
FFFFFFFFFFE0
03FFFFFF8000
038030038000
038030038000
038030038000
038030038000
038030038000
038030038000
038030038000
038030038000
038030038000
038030038000
038030038000
038030038000
038030038000
038030038000
038030038000
038030038000
038030038000
038030038000
038030038000
038030038000
038030038000
038030038000
038030038000
038030038000
038030038000
038030038000
038030038000
038030038000
038030038000
038030038000
038030038000
038030038000
038030038000
038030038000
038030038000
038000038000
038000038000
038000038000
038000038000
03C000078000
03C000078000
03E0000F8000
03F0001F8000
03F8003F8000
03FE00FF8000
03FFFFFF8000
03FFFFFF8000
03FFFFFF8000
03FFFFFF8000
03FFFFFF8000
01FFFFFF0000
01FFFFFF0000
00FFFFFE0000
00FFFFFC0000
007FFFFC0000
003FFFF00000
000FFFE00000
0003FF800000
ENDCHAR
STARTCHAR 00DC
ENCODING 220
SWIDTH 461 0
DWIDTH 24 0
BBX 28 76 -1 -13
BITMAP
FFFFFFE0
FFFFFFE0
FFFFFFE0
E00E00E0
E00E00E0
E00E00E0
E00E00E0
E00E00E0
E00E00E0
E00E00E0
E00E00E0
E00E00E0
E00E00E0
E00E00E0
FFFFFFE0
FFFFFFF0
FFFFFFF0
7FFFFFF0
70060070
70060070
70060070
70060070
70060070
70060070
70060070
70060070
70060070
70060070
70060070
70060070
70060070
70060070
70060070
70060070
70060070
70060070
70060070
70060070
70060070
70060070
70060070
70060070
70060070
70060070
70060070
70060070
70060070
70060070
70060070
70060070
70060070
70060070
70060070
70000070
70000070
70000070
70000070
780000F0
780000F0
7C0001F0
7E0003F0
7F0007F0
7FC01FF0
7FFFFFF0
7FFFFFF0
7FFFFFF0
7FFFFFF0
7FFFFFF0
3FFFFFE0
3FFFFFE0
1FFFFFC0
1FFFFF80
0FFFFF80
07FFFE00
01FFFC00
007FF000
ENDCHAR
STARTCHAR 00DD
ENCODING 221
SWIDTH 500 0
DWIDTH 26 0
BBX 32 78 -1 -13
BITMAP
0007FFFC
0007FFFC
000FFFF8
000E0070
001E00F0
001C00E0
003801E0
007801C0
007003C0
00F00380
00E00780
01E00700
01C00E00
03C01E00
03801C00
07003C00
0FFFF800
FFFFFFFF
FFFFFFFE
7FFFFFFE
7003C01E
7801801C
3801801C
3801803C
3C010038
1C000038
1C000078
1C000070
0E000070
0E0000F0
0E0000E0
070000E0
070001C0
070001C0
038001C0
03800380
03800380
01C00780
01C00700
01C00700
01E00F00
00E00E00
00E00E00
00E00E00
00E00E00
00E00E00
00E00E00
00E00E00
00E00E00
00E00E00
00E00E00
00E00E00
00E00E00
00E00E00
00E00E00
00E00E00
00E00E00
00E00E00
00E00E00
00E00E00
00E00E00
00E00E00
00E00E00
00E00E00
00E00E00
00FFFE00
00FFFE00
00FFFE00
00FFFE00
00FFFE00
00FFFE00
00FFFE00
00FFFE00
00FFFE00
00FFFE00
00FFFE00
00FFFE00
00FFFE00
ENDCHAR
STARTCHAR 00DF
ENCODING 223
SWIDTH 480 0
DWIDTH 25 0
BBX 28 69 0 -18
BITMAP
00FFF000
03FFFC00
0FFFFE00
1F801F80
3E000780
3C0003C0
780001E0
700000E0
F00000F0
E0000070
E0000070
E0000070
E0000070
E00E0070
E00E0070
E00E0070
E00E0070
E00E0070
E00E0070
E00E0070
E00E0070
E00E0070
E00E0070
E0080070
E0080070
E0080070
E0080070
E0080070
E0080070
E0080070
E0080070
E0080070
E00E0070
E00E0070
E00E0070
E00E0070
E00E0070
E00E0070
E00E0070
E00E0070
E00E0070
E0080070
E0080070
E0080070
E0080070
E00800F0
E00800F0
E00801F0
E00803F0
E00807F0
E0081FF0
E00FFFF0
E00FFFF0
E00FFFF0
E00FFFF0
E00FFFF0
FFFFFFE0
FFFFFFE0
FFFFFFC0
FFFFFF80
FFFFFF80
FFFFFF00
FFFFFC00
FFFFF000
FFFE0000
FFFE0000
FFFE0000
FFFE0000
FFFE0000
ENDCHAR
STARTCHAR 00E0
ENCODING 224
SWIDTH 461 0
DWIDTH 24 0
BBX 28 78 -1 -13
BITMAP
FFFF8000
7FFFC000
7001C000
3000E000
1800E000
1C007000
0C003000
0E003800
06001C00
07001C00
03000E00
03800E00
01C00700
00C00300
00E00380
006001C0
007FFFC0
7FC00FE0
7FC003E0
7FFFFE00
70001F80
70000780
700003C0
700001E0
700000E0
700000F0
70000070
70000070
70000070
70000070
7FFE0070
7FFE0070
7FC00070
0F000070
1E000070
3C000070
38000070
38000070
70000070
70000070
70000070
70000070
70020070
70020070
70020070
70020070
70020070
70020070
70020070
70020070
70020070
70020070
70020070
70020070
70020070
70000070
70000070
70000070
70000070
78000070
78000070
7C000070
7E000070
7F000070
7FC00070
7FFFFFF0
7FFFFFF0
7FFFFFF0
7FFFFFF0
7FFFFFF0
3FFFFFF0
3FFFFFF0
1FFFFFF0
1FFFFFF0
0FFFFFF0
07FFFFF0
01FFFFF0
007FFFF0
ENDCHAR
STARTCHAR 00E1
ENCODING 225
SWIDTH 461 0
DWIDTH 24 0
BBX 29 78 0 -13
BITMAP
000FFFF8
000FFFF8
001FFFF0
001C00E0
003C01E0
003801C0
007003C0
00F00380
00E00780
01E00700
01C00F00
03C00E00
03801C00
07803C00
07003800
0E007800
1FFFF000
FFFFF000
FFFFF800
FFFFFC00
E0003F00
E0000F00
E0000780
E00003C0
E00001C0
E00001E0
E00000E0
E00000E0
E00000E0
E00000E0
FFFC00E0
FFFC00E0
FF8000E0
1E0000E0
3C0000E0
780000E0
700000E0
700000E0
E00000E0
E00000E0
E00000E0
E00000E0
E00400E0
E00400E0
E00400E0
E00400E0
E00400E0
E00400E0
E00400E0
E00400E0
E00400E0
E00400E0
E00400E0
E00400E0
E00400E0
E00000E0
E00000E0
E00000E0
E00000E0
F00000E0
F00000E0
F80000E0
FC0000E0
FE0000E0
FF8000E0
FFFFFFE0
FFFFFFE0
FFFFFFE0
FFFFFFE0
FFFFFFE0
7FFFFFE0
7FFFFFE0
3FFFFFE0
3FFFFFE0
1FFFFFE0
0FFFFFE0
03FFFFE0
00FFFFE0
ENDCHAR
STARTCHAR 00E2
ENCODING 226
SWIDTH 461 0
DWIDTH 24 0
BBX 43 77 -6 -13
BITMAP
00007F800000
0000FFC00000
0001FFE00000
0003C0F00000
000780780000
000F003C0000
001E001E0000
003C000F0000
007800078000
00F00003C000
01E00001E000
03C00000F000
078000007800
0F0000003C00
1E000C001E00
3FFFFFFFFF80
7FFFFFFFFFC0
FFFFFFFFFFE0
03FFFFF00000
038000FC0000
0380003C0000
0380001E0000
0380000F0000
038000070000
038000078000
038000038000
038000038000
038000038000
038000038000
03FFF0038000
03FFF0038000
03FE00038000
007800038000
00F000038000
01E000038000
01C000038000
01C000038000
038000038000
038000038000
038000038000
038000038000
038010038000
038010038000
038010038000
038010038000
038010038000
038010038000
038010038000
038010038000
038010038000
038010038000
038010038000
038010038000
038010038000
038000038000
038000038000
038000038000
038000038000
03C000038000
03C000038000
03E000038000
03F000038000
03F800038000
03FE00038000
03FFFFFF8000
03FFFFFF8000
03FFFFFF8000
03FFFFFF8000
03FFFFFF8000
01FFFFFF8000
01FFFFFF8000
00FFFFFF8000
00FFFFFF8000
007FFFFF8000
003FFFFF8000
000FFFFF8000
0003FFFF8000
ENDCHAR
STARTCHAR 00E3
ENCODING 227
SWIDTH 461 0
DWIDTH 24 0
BBX 27 78 0 -13
BITMAP
301FC000
7E7FF000
7FFFF800
7FF07C00
E1C01E00
E0000E00
E0000F00
E0000700
E0000700
E0000700
E0000700
E0000700
F0000700
70000700
7803C700
3E0FFE00
1FFFFE00
FFFFFE00
FFFFFE00
FFFFFC00
E0003F00
E0000F00
E0000780
E00003C0
E00001C0
E00001E0
E00000E0
E00000E0
E00000E0
E00000E0
FFFC00E0
FFFC00E0
FF8000E0
1E0000E0
3C0000E0
780000E0
700000E0
700000E0
E00000E0
E00000E0
E00000E0
E00000E0
E00400E0
E00400E0
E00400E0
E00400E0
E00400E0
E00400E0
E00400E0
E00400E0
E00400E0
E00400E0
E00400E0
E00400E0
E00400E0
E00000E0
E00000E0
E00000E0
E00000E0
F00000E0
F00000E0
F80000E0
FC0000E0
FE0000E0
FF8000E0
FFFFFFE0
FFFFFFE0
FFFFFFE0
FFFFFFE0
FFFFFFE0
7FFFFFE0
7FFFFFE0
3FFFFFE0
3FFFFFE0
1FFFFFE0
0FFFFFE0
03FFFFE0
00FFFFE0
ENDCHAR
STARTCHAR 00E4
ENCODING 228
SWIDTH 461 0
DWIDTH 24 0
BBX 28 76 -1 -13
BITMAP
FFFFFFE0
FFFFFFE0
FFFFFFE0
E00E00E0
E00E00E0
E00E00E0
E00E00E0
E00E00E0
E00E00E0
E00E00E0
E00E00E0
E00E00E0
E00E00E0
E00E00E0
FFFFFFE0
FFFFFFE0
FFFFFFE0
7FFFFE00
70001F80
70000780
700003C0
700001E0
700000E0
700000F0
70000070
70000070
70000070
70000070
7FFE0070
7FFE0070
7FC00070
0F000070
1E000070
3C000070
38000070
38000070
70000070
70000070
70000070
70000070
70020070
70020070
70020070
70020070
70020070
70020070
70020070
70020070
70020070
70020070
70020070
70020070
70020070
70000070
70000070
70000070
70000070
78000070
78000070
7C000070
7E000070
7F000070
7FC00070
7FFFFFF0
7FFFFFF0
7FFFFFF0
7FFFFFF0
7FFFFFF0
3FFFFFF0
3FFFFFF0
1FFFFFF0
1FFFFFF0
0FFFFFF0
07FFFFF0
01FFFFF0
007FFFF0
ENDCHAR
STARTCHAR 00E5
ENCODING 229
SWIDTH 461 0
DWIDTH 24 0
BBX 27 78 0 -13
BITMAP
001FF000
007FFC00
00FFFE00
01F00F00
03C00780
03800380
078001C0
070001C0
070381C0
070381C0
070381C0
070001C0
078001C0
03800380
03C00780
01F00F00
00FFFE00
FFFFFC00
FFFFF800
FFFFFC00
E0003F00
E0000F00
E0000780
E00003C0
E00001C0
E00001E0
E00000E0
E00000E0
E00000E0
E00000E0
FFFC00E0
FFFC00E0
FF8000E0
1E0000E0
3C0000E0
780000E0
700000E0
700000E0
E00000E0
E00000E0
E00000E0
E00000E0
E00400E0
E00400E0
E00400E0
E00400E0
E00400E0
E00400E0
E00400E0
E00400E0
E00400E0
E00400E0
E00400E0
E00400E0
E00400E0
E00000E0
E00000E0
E00000E0
E00000E0
F00000E0
F00000E0
F80000E0
FC0000E0
FE0000E0
FF8000E0
FFFFFFE0
FFFFFFE0
FFFFFFE0
FFFFFFE0
FFFFFFE0
7FFFFFE0
7FFFFFE0
3FFFFFE0
3FFFFFE0
1FFFFFE0
0FFFFFE0
03FFFFE0
00FFFFE0
ENDCHAR
STARTCHAR 00E6
ENCODING 230
SWIDTH 730 0
DWIDTH 38 0
BBX 41 64 0 -13
BITMAP
00FFE3FF8000
03FFFFFFE000
0FFFFFFFF000
1F801C00FC00
3E0000003C00
3C0000001E00
780000000F00
700000000700
F00000000780
E00000000380
E00000000380
E00000000380
E00000000380
E00700700380
E00700700380
E00700700380
E00700700380
E00700700380
FFFF00700380
FFFF00700380
FFFF00700380
07FF00700380
0FFF00700380
1F8000000380
3E0000000380
3C0000000380
780000000380
700000000380
F00000000380
E00000000380
E00000000380
E00000000380
E007007FFF80
E007007FFF80
E007007FFF80
E007007FFF80
E00700700380
E00700700380
E00700700380
E00700700380
E00700700380
E00000000380
E00000000380
E00000000380
E00000000380
F00000000780
F00000000780
F80000000F80
FC0000001F80
FE0000003F80
FF801C00FF80
FFFFFFFFFF80
FFFFFFFFFF80
FFFFFFFFFF80
FFFFFFFFFF80
FFFFFFFFFF80
7FFFFFFFFF00
7FFFFFFFFF00
3FFFFFFFFE00
3FFFFFFFFC00
1FFFFFFFFC00
0FFFFFFFF800
03FFFFFFE000
00FFE3FF8000
ENDCHAR
STARTCHAR 00E7
ENCODING 231
SWIDTH 461 0
DWIDTH 24 0
BBX 27 76 0 -28
BITMAP
00FFE000
03FFF800
07FFFC00
1F803F00
1E000F00
3C000780
780003C0
700001C0
F00001E0
E00000E0
E00000E0
E00000E0
E00000E0
E00C00E0
E00C00E0
E00C00E0
E00C00E0
E00C00E0
E00C00E0
E00C00E0
E00C00E0
E00C00E0
E00C00E0
E00C00E0
E00C00E0
E00C00E0
E00FFFE0
E00FFFE0
E00C00E0
E00C00E0
E00C00E0
E00C00E0
E00C00E0
E00C00E0
E00C00E0
E00C00E0
E00C00E0
E00C00E0
E00000E0
E00000E0
E00000E0
E00000E0
E00001E0
700001E0
700003E0
380007E0
1C000FE0
1F001FE0
07801FE0
03801FE0
03801FE0
3F801FE0
3F801FE0
3F801FC0
38001FC0
38001F80
38001F00
38003E00
38003C00
38007C00
3800FC00
3801FC00
3807FC00
3FFFFC00
3FFFFC00
3FFFFC00
3FFFFC00
3FFFFC00
3FFFF800
3FFFF800
3FFFF000
3FFFF000
3FFFE000
3FFFC000
3FFF0000
3FFC0000
ENDCHAR
STARTCHAR 00E8
ENCODING 232
SWIDTH 461 0
DWIDTH 24 0
BBX 28 78 -1 -13
BITMAP
FFFF8000
7FFFC000
7001C000
3000E000
1800E000
1C007000
0C003000
0E003800
06001C00
07001C00
03000E00
03800E00
01C00700
00C00300
00E00380
006001C0
007FFFC0
00400FE0
01C003E0
03FFFE00
0FC01F80
0F000780
1E0003C0
3C0001E0
380000E0
780000F0
70000070
70000070
70000070
70000070
70020070
70020070
70020070
70020070
70020070
70020070
70020070
70020070
70020070
70020070
70020070
70020070
70020070
70000070
70000070
70000070
70000070
70000070
70000070
70000070
70000070
70000070
70000070
7003FFF0
7003FFF0
70000070
70000070
70000070
70000070
78000070
78000070
7C000070
7E000070
7F000070
7FC00070
7FFFFFF0
7FFFFFF0
7FFFFFF0
7FFFFFF0
7FFFFFF0
3FFFFFF0
3FFFFFF0
1FFFFFF0
0FFFFFF0
0FFFFFF0
03FFFFF0
01FFFFF0
007FFFF0
ENDCHAR
STARTCHAR 00E9
ENCODING 233
SWIDTH 461 0
DWIDTH 24 0
BBX 29 78 0 -13
BITMAP
000FFFF8
000FFFF8
001FFFF0
001C00E0
003C01E0
003801C0
007003C0
00F00380
00E00780
01E00700
01C00F00
03C00E00
03801C00
07803C00
07003800
0E007800
1FFFF000
1FFFF000
3FFFF800
07FFFC00
1F803F00
1E000F00
3C000780
780003C0
700001C0
F00001E0
E00000E0
E00000E0
E00000E0
E00000E0
E00400E0
E00400E0
E00400E0
E00400E0
E00400E0
E00400E0
E00400E0
E00400E0
E00400E0
E00400E0
E00400E0
E00400E0
E00400E0
E00000E0
E00000E0
E00000E0
E00000E0
E00000E0
E00000E0
E00000E0
E00000E0
E00000E0
E00000E0
E007FFE0
E007FFE0
E00000E0
E00000E0
E00000E0
E00000E0
F00000E0
F00000E0
F80000E0
FC0000E0
FE0000E0
FF8000E0
FFFFFFE0
FFFFFFE0
FFFFFFE0
FFFFFFE0
FFFFFFE0
7FFFFFE0
7FFFFFE0
3FFFFFE0
3FFFFFE0
1FFFFFE0
0FFFFFE0
03FFFFE0
00FFFFE0
ENDCHAR
STARTCHAR 00EA
ENCODING 234
SWIDTH 461 0
DWIDTH 24 0
BBX 43 77 -6 -13
BITMAP
00007F800000
0000FFC00000
0001FFE00000
0003C0F00000
000780780000
000F003C0000
001E001E0000
003C000F0000
007800078000
00F00003C000
01E00001E000
03C00000F000
078000007800
0F0000003C00
1E000C001E00
3FFFFFFFFF80
7FFFFFFFFFC0
FFFFFFFFFFE0
001FFFF00000
007E00FC0000
0078003C0000
00F0001E0000
01E0000F0000
01C000070000
03C000078000
038000038000
038000038000
038000038000
038000038000
038010038000
038010038000
038010038000
038010038000
038010038000
038010038000
038010038000
038010038000
038010038000
038010038000
038010038000
038010038000
038010038000
038000038000
038000038000
038000038000
038000038000
038000038000
038000038000
038000038000
038000038000
038000038000
038000038000
03801FFF8000
03801FFF8000
038000038000
038000038000
038000038000
038000038000
03C000038000
03C000038000
03E000038000
03F000038000
03F800038000
03FE00038000
03FFFFFF8000
03FFFFFF8000
03FFFFFF8000
03FFFFFF8000
03FFFFFF8000
01FFFFFF8000
01FFFFFF8000
00FFFFFF8000
00FFFFFF8000
007FFFFF8000
003FFFFF8000
000FFFFF8000
0003FFFF8000
ENDCHAR
STARTCHAR 00EB
ENCODING 235
SWIDTH 461 0
DWIDTH 24 0
BBX 28 76 -1 -13
BITMAP
FFFFFFE0
FFFFFFE0
FFFFFFE0
E00E00E0
E00E00E0
E00E00E0
E00E00E0
E00E00E0
E00E00E0
E00E00E0
E00E00E0
E00E00E0
E00E00E0
E00E00E0
FFFFFFE0
FFFFFFE0
FFFFFFE0
03FFFE00
0FC01F80
0F000780
1E0003C0
3C0001E0
380000E0
780000F0
70000070
70000070
70000070
70000070
70020070
70020070
70020070
70020070
70020070
70020070
70020070
70020070
70020070
70020070
70020070
70020070
70020070
70000070
70000070
70000070
70000070
70000070
70000070
70000070
70000070
70000070
70000070
7003FFF0
7003FFF0
70000070
70000070
70000070
70000070
78000070
78000070
7C000070
7E000070
7F000070
7FC00070
7FFFFFF0
7FFFFFF0
7FFFFFF0
7FFFFFF0
7FFFFFF0
3FFFFFF0
3FFFFFF0
1FFFFFF0
1FFFFFF0
0FFFFFF0
07FFFFF0
01FFFFF0
007FFFF0
ENDCHAR
STARTCHAR 00EC
ENCODING 236
SWIDTH 250 0
DWIDTH 13 0
BBX 27 74 -9 -14
BITMAP
FFFF8000
7FFFC000
7001C000
3800E000
38006000
1C007000
1C003000
0E003800
06001800
07001C00
03800C00
03800E00
01C00600
01C00300
00E00380
00E00180
007FFFC0
007FFFC0
00400060
00400060
003FFF80
00380380
00380380
00380380
00380380
00380380
00380380
00380380
00380380
00380380
00380380
00380380
00380380
00380380
00380380
00380380
00380380
00380380
00380380
00380380
00380380
00380380
00380380
00380380
00380380
00380380
00380380
00380380
00380380
00380380
00380380
00380380
00380380
00380380
00380380
00380380
00380380
00380380
00380380
00380380
00380380
003FFF80
003FFF80
003FFF80
003FFF80
003FFF80
003FFF80
003FFF80
003FFF80
003FFF80
003FFF80
003FFF80
003FFF80
003FFF80
ENDCHAR
STARTCHAR 00ED
ENCODING 237
SWIDTH 230 0
DWIDTH 12 0
BBX 27 74 -2 -14
BITMAP
003FFFE0
003FFFE0
007FFFC0
00700380
00F00780
00E00700
01C00F00
03C00E00
03801E00
07801C00
07003C00
0F003800
0E007000
1E00F000
1C00E000
3801E000
7FFFC000
7FFFC000
FFFF8000
3FFF8000
3FFF8000
38038000
38038000
38038000
38038000
38038000
38038000
38038000
38038000
38038000
38038000
38038000
38038000
38038000
38038000
38038000
38038000
38038000
38038000
38038000
38038000
38038000
38038000
38038000
38038000
38038000
38038000
38038000
38038000
38038000
38038000
38038000
38038000
38038000
38038000
38038000
38038000
38038000
38038000
38038000
38038000
3FFF8000
3FFF8000
3FFF8000
3FFF8000
3FFF8000
3FFF8000
3FFF8000
3FFF8000
3FFF8000
3FFF8000
3FFF8000
3FFF8000
3FFF8000
ENDCHAR
STARTCHAR 00EE
ENCODING 238
SWIDTH 230 0
DWIDTH 12 0
BBX 43 73 -13 -14
BITMAP
00007F800000
0000FFC00000
0001FFE00000
0003C0F00000
000780780000
000F003C0000
001E001E0000
003C000F0000
007800078000
00F00003C000
01E00001E000
03C00000F000
078000007800
0F0000003C00
1E000C001E00
3FFFFFFFFF80
7FFFFFFFFFC0
FFFFFFFFFFE0
0007FFF00000
0007FFF00000
000700700000
000700700000
000700700000
000700700000
000700700000
000700700000
000700700000
000700700000
000700700000
000700700000
000700700000
000700700000
000700700000
000700700000
000700700000
000700700000
000700700000
000700700000
000700700000
000700700000
000700700000
000700700000
000700700000
000700700000
000700700000
000700700000
000700700000
000700700000
000700700000
000700700000
000700700000
000700700000
000700700000
000700700000
000700700000
000700700000
000700700000
000700700000
000700700000
000700700000
0007FFF00000
0007FFF00000
0007FFF00000
0007FFF00000
0007FFF00000
0007FFF00000
0007FFF00000
0007FFF00000
0007FFF00000
0007FFF00000
0007FFF00000
0007FFF00000
0007FFF00000
ENDCHAR
STARTCHAR 00EF
ENCODING 239
SWIDTH 230 0
DWIDTH 12 0
BBX 27 72 -7 -14
BITMAP
FFFFFFE0
FFFFFFE0
FFFFFFE0
E00E00E0
E00E00E0
E00E00E0
E00E00E0
E00E00E0
E00E00E0
E00E00E0
E00E00E0
E00E00E0
E00E00E0
E00E00E0
FFFFFFE0
FFFFFFE0
FFFFFFE0
01FFFC00
01FFFC00
01C01C00
01C01C00
01C01C00
01C01C00
01C01C00
01C01C00
01C01C00
01C01C00
01C01C00
01C01C00
01C01C00
01C01C00
01C01C00
01C01C00
01C01C00
01C01C00
01C01C00
01C01C00
01C01C00
01C01C00
01C01C00
01C01C00
01C01C00
01C01C00
01C01C00
01C01C00
01C01C00
01C01C00
01C01C00
01C01C00
01C01C00
01C01C00
01C01C00
01C01C00
01C01C00
01C01C00
01C01C00
01C01C00
01C01C00
01C01C00
01FFFC00
01FFFC00
01FFFC00
01FFFC00
01FFFC00
01FFFC00
01FFFC00
01FFFC00
01FFFC00
01FFFC00
01FFFC00
01FFFC00
01FFFC00
ENDCHAR
STARTCHAR 00F0
ENCODING 240
SWIDTH 269 0
DWIDTH 14 0
BBX 39 39 2 5
BITMAP
07FFFFFFC0
1FFFFFFFF0
3F03FFC0F8
7C00FF003C
78007E001C
F8007C000E
F000380006
E000380006
E000100002
E000100002
E000100002
E000100002
E000100002
E000380006
F000380006
F0007C000E
F8007E001E
FC00FF003E
FF03FFC0FE
FFFFFFFFFE
FF03FFC0FE
FC00FF003E
F8007E001E
F8007C000E
F000380006
E000380006
E000100002
E000100002
E000100002
E000100002
E000100002
E000380006
F000380006
F0007C000E
78007E001C
7C00FF003C
3F03FFC0F8
1FFFFFFFF0
07FFFFFFC0
ENDCHAR
STARTCHAR 00F1
ENCODING 241
SWIDTH 461 0
DWIDTH 24 0
BBX 27 78 0 -13
BITMAP
301FC000
7E7FF000
7FFFF800
7FF07C00
E1C01E00
E0000E00
E0000F00
E0000700
E0000700
E0000700
E0000700
E0000700
F0000700
70000700
7803C700
3E0FFE00
1FFFFE00
0FFFFE00
03FFFE00
07FFFC00
1F803F00
1E000F00
3C000780
780003C0
700001C0
F00001E0
E00000E0
E00000E0
E00000E0
E00000E0
E00C00E0
E00C00E0
E00C00E0
E00C00E0
E00C00E0
E00C00E0
E00C00E0
E00C00E0
E00C00E0
E00C00E0
E00C00E0
E00C00E0
E00C00E0
E00C00E0
E00C00E0
E00C00E0
E00C00E0
E00C00E0
E00C00E0
E00C00E0
E00C00E0
E00C00E0
E00C00E0
E00C00E0
E00C00E0
E00C00E0
E00C00E0
E00C00E0
E00C00E0
E00C00E0
E00C00E0
E00C00E0
E00C00E0
E00C00E0
E00C00E0
FFFFFFE0
FFFFFFE0
FFFFFFE0
FFFFFFE0
FFFFFFE0
FFFFFFE0
FFFFFFE0
FFFFFFE0
FFFFFFE0
FFFFFFE0
FFFFFFE0
FFFFFFE0
FFFFFFE0
ENDCHAR
STARTCHAR 00F2
ENCODING 242
SWIDTH 461 0
DWIDTH 24 0
BBX 28 78 -1 -13
BITMAP
FFFF8000
7FFFC000
7001C000
3000E000
1800E000
1C007000
0C003000
0E003800
06001C00
07001C00
03000E00
03800E00
01C00700
00C00300
00E00380
006001C0
007FFFC0
00400FE0
01C003E0
03FFFE00
0FC01F80
0F000780
1E0003C0
3C0001E0
380000E0
780000F0
70000070
70000070
70000070
70000070
70020070
70020070
70020070
70020070
70020070
70020070
70020070
70020070
70020070
70020070
70020070
70020070
70020070
70020070
70020070
70020070
70020070
70020070
70020070
70020070
70020070
70020070
70020070
70020070
70020070
70000070
70000070
70000070
70000070
780000F0
780000F0
7C0001F0
7E0003F0
7F0007F0
7FC01FF0
7FFFFFF0
7FFFFFF0
7FFFFFF0
7FFFFFF0
7FFFFFF0
3FFFFFE0
3FFFFFE0
1FFFFFC0
0FFFFFC0
0FFFFF80
03FFFE00
01FFFC00
007FF000
ENDCHAR
STARTCHAR 00F3
ENCODING 243
SWIDTH 461 0
DWIDTH 24 0
BBX 29 78 0 -13
BITMAP
000FFFF8
000FFFF8
001FFFF0
001C00E0
003C01E0
003801C0
007003C0
00F00380
00E00780
01E00700
01C00F00
03C00E00
03801C00
07803C00
07003800
0E007800
1FFFF000
1FFFF000
3FFFF800
07FFFC00
1F803F00
1E000F00
3C000780
780003C0
700001C0
F00001E0
E00000E0
E00000E0
E00000E0
E00000E0
E00400E0
E00400E0
E00400E0
E00400E0
E00400E0
E00400E0
E00400E0
E00400E0
E00400E0
E00400E0
E00400E0
E00400E0
E00400E0
E00400E0
E00400E0
E00400E0
E00400E0
E00400E0
E00400E0
E00400E0
E00400E0
E00400E0
E00400E0
E00400E0
E00400E0
E00000E0
E00000E0
E00000E0
E00000E0
F00001E0
F00001E0
F80003E0
FC0007E0
FE000FE0
FF803FE0
FFFFFFE0
FFFFFFE0
FFFFFFE0
FFFFFFE0
FFFFFFE0
7FFFFFC0
7FFFFFC0
3FFFFF80
3FFFFF00
1FFFFF00
0FFFFC00
03FFF800
00FFE000
ENDCHAR
STARTCHAR 00F4
ENCODING 244
SWIDTH 461 0
DWIDTH 24 0
BBX 43 77 -6 -13
BITMAP
00007F800000
0000FFC00000
0001FFE00000
0003C0F00000
000780780000
000F003C0000
001E001E0000
003C000F0000
007800078000
00F00003C000
01E00001E000
03C00000F000
078000007800
0F0000003C00
1E000C001E00
3FFFFFFFFF80
7FFFFFFFFFC0
FFFFFFFFFFE0
001FFFF00000
007E00FC0000
0078003C0000
00F0001E0000
01E0000F0000
01C000070000
03C000078000
038000038000
038000038000
038000038000
038000038000
038010038000
038010038000
038010038000
038010038000
038010038000
038010038000
038010038000
038010038000
038010038000
038010038000
038010038000
038010038000
038010038000
038010038000
038010038000
038010038000
038010038000
038010038000
038010038000
038010038000
038010038000
038010038000
038010038000
038010038000
038010038000
038000038000
038000038000
038000038000
038000038000
03C000078000
03C000078000
03E0000F8000
03F0001F8000
03F8003F8000
03FE00FF8000
03FFFFFF8000
03FFFFFF8000
03FFFFFF8000
03FFFFFF8000
03FFFFFF8000
01FFFFFF0000
01FFFFFF0000
00FFFFFE0000
00FFFFFC0000
007FFFFC0000
003FFFF00000
000FFFE00000
0003FF800000
ENDCHAR
STARTCHAR 00F5
ENCODING 245
SWIDTH 461 0
DWIDTH 24 0
BBX 27 78 0 -13
BITMAP
301FC000
7E7FF000
7FFFF800
7FF07C00
E1C01E00
E0000E00
E0000F00
E0000700
E0000700
E0000700
E0000700
E0000700
F0000700
70000700
7803C700
3E0FFE00
1FFFFE00
0FFFFE00
03FFFE00
07FFFC00
1F803F00
1E000F00
3C000780
780003C0
700001C0
F00001E0
E00000E0
E00000E0
E00000E0
E00000E0
E00400E0
E00400E0
E00400E0
E00400E0
E00400E0
E00400E0
E00400E0
E00400E0
E00400E0
E00400E0
E00400E0
E00400E0
E00400E0
E00400E0
E00400E0
E00400E0
E00400E0
E00400E0
E00400E0
E00400E0
E00400E0
E00400E0
E00400E0
E00400E0
E00400E0
E00000E0
E00000E0
E00000E0
E00000E0
F00001E0
F00001E0
F80003E0
FC0007E0
FE000FE0
FF803FE0
FFFFFFE0
FFFFFFE0
FFFFFFE0
FFFFFFE0
FFFFFFE0
7FFFFFC0
7FFFFFC0
3FFFFF80
3FFFFF00
1FFFFF00
0FFFFC00
03FFF800
00FFE000
ENDCHAR
STARTCHAR 00F6
ENCODING 246
SWIDTH 461 0
DWIDTH 24 0
BBX 28 76 -1 -13
BITMAP
FFFFFFE0
FFFFFFE0
FFFFFFE0
E00E00E0
E00E00E0
E00E00E0
E00E00E0
E00E00E0
E00E00E0
E00E00E0
E00E00E0
E00E00E0
E00E00E0
E00E00E0
FFFFFFE0
FFFFFFE0
FFFFFFE0
03FFFE00
0FC01F80
0F000780
1E0003C0
3C0001E0
380000E0
780000F0
70000070
70000070
70000070
70000070
70020070
70020070
70020070
70020070
70020070
70020070
70020070
70020070
70020070
70020070
70020070
70020070
70020070
70020070
70020070
70020070
70020070
70020070
70020070
70020070
70020070
70020070
70020070
70020070
70020070
70000070
70000070
70000070
70000070
780000F0
780000F0
7C0001F0
7E0003F0
7F0007F0
7FC01FF0
7FFFFFF0
7FFFFFF0
7FFFFFF0
7FFFFFF0
7FFFFFF0
3FFFFFE0
3FFFFFE0
1FFFFFC0
1FFFFF80
0FFFFF80
07FFFE00
01FFFC00
007FF000
ENDCHAR
STARTCHAR 00F7
ENCODING 247
SWIDTH 269 0
DWIDTH 14 0
BBX 39 39 2 5
BITMAP
07FFFFFFC0
1FFFFFFFF0
3F03FFC0F8
7C00FF003C
78007E001C
F8007C000E
F000380006
E000380006
E000100002
E000100002
E000100002
E000100002
E000100002
E000380006
F000380006
F0007C000E
F8007E001E
FC00FF003E
FF03FFC0FE
FFFFFFFFFE
FF03FFC0FE
FC00FF003E
F8007E001E
F8007C000E
F000380006
E000380006
E000100002
E000100002
E000100002
E000100002
E000100002
E000380006
F000380006
F0007C000E
78007E001C
7C00FF003C
3F03FFC0F8
1FFFFFFFF0
07FFFFFFC0
ENDCHAR
STARTCHAR 00F8
ENCODING 248
SWIDTH 480 0
DWIDTH 25 0
BBX 28 64 0 -13
BITMAP
00FFF000
03FFFC00
0FFFFE00
1F801F80
3E000780
3C0003C0
780001E0
700000E0
F00000F0
E0000070
E0000070
E0000070
E0000070
E0040070
E0080070
E0000070
E0000070
E0000070
E0000070
E0000070
E0000070
E0000070
E0000070
E0000070
E0000070
E0000070
E0000070
E0000070
E0000070
E0000070
E0000070
E0000070
E0000070
E0000070
E0000070
E0000070
E0000070
E0000070
E0000070
E0020070
E0000070
E0000070
E0000070
E0000070
E0000070
F00000F0
F00000F0
F80001F0
FC0003F0
FE0007F0
FF801FF0
FFFFFFF0
FFFFFFF0
FFFFFFF0
FFFFFFF0
FFFFFFF0
7FFFFFE0
7FFFFFE0
3FFFFFC0
3FFFFFC0
1FFFFF80
0FFFFF00
03FFFC00
00FFF000
ENDCHAR
STARTCHAR 00F9
ENCODING 249
SWIDTH 461 0
DWIDTH 24 0
BBX 28 78 -1 -13
BITMAP
FFFF8000
7FFFC000
7001C000
3000E000
1800E000
1C007000
0C003000
0E003800
06001C00
07001C00
03000E00
03800E00
01C00700
00C00300
00E00380
006001C0
007FFFC0
7FC00030
7FC00010
7FFFFFF0
70060070
70060070
70060070
70060070
70060070
70060070
70060070
70060070
70060070
70060070
70060070
70060070
70060070
70060070
70060070
70060070
70060070
70060070
70060070
70060070
70060070
70060070
70060070
70060070
70060070
70060070
70060070
70060070
70060070
70060070
70060070
70060070
70060070
70060070
70060070
70000070
70000070
70000070
70000070
780000F0
780000F0
7C0001F0
7E0003F0
7F0007F0
7FC01FF0
7FFFFFF0
7FFFFFF0
7FFFFFF0
7FFFFFF0
7FFFFFF0
3FFFFFE0
3FFFFFE0
1FFFFFC0
0FFFFFC0
0FFFFF80
03FFFE00
01FFFC00
007FF000
ENDCHAR
STARTCHAR 00FA
ENCODING 250
SWIDTH 461 0
DWIDTH 24 0
BBX 29 78 0 -13
BITMAP
000FFFF8
000FFFF8
001FFFF0
001C00E0
003C01E0
003801C0
007003C0
00F00380
00E00780
01E00700
01C00F00
03C00E00
03801C00
07803C00
07003800
0E007800
1FFFF000
FFFFFFE0
FFFFFFE0
FFFFFFE0
E00C00E0
E00C00E0
E00C00E0
E00C00E0
E00C00E0
E00C00E0
E00C00E0
E00C00E0
E00C00E0
E00C00E0
E00C00E0
E00C00E0
E00C00E0
E00C00E0
E00C00E0
E00C00E0
E00C00E0
E00C00E0
E00C00E0
E00C00E0
E00C00E0
E00C00E0
E00C00E0
E00C00E0
E00C00E0
E00C00E0
E00C00E0
E00C00E0
E00C00E0
E00C00E0
E00C00E0
E00C00E0
E00C00E0
E00C00E0
E00C00E0
E00000E0
E00000E0
E00000E0
E00000E0
F00001E0
F00001E0
F80003E0
FC0007E0
FE000FE0
FF803FE0
FFFFFFE0
FFFFFFE0
FFFFFFE0
FFFFFFE0
FFFFFFE0
7FFFFFC0
7FFFFFC0
3FFFFF80
3FFFFF00
1FFFFF00
0FFFFC00
03FFF800
00FFE000
ENDCHAR
STARTCHAR 00FB
ENCODING 251
SWIDTH 461 0
DWIDTH 24 0
BBX 43 77 -6 -13
BITMAP
00007F800000
0000FFC00000
0001FFE00000
0003C0F00000
000780780000
000F003C0000
001E001E0000
003C000F0000
007800078000
00F00003C000
01E00001E000
03C00000F000
078000007800
0F0000003C00
1E000C001E00
3FFFFFFFFF80
7FFFFFFFFFC0
FFFFFFFFFFE0
03FFFFFF8000
038030038000
038030038000
038030038000
038030038000
038030038000
038030038000
038030038000
038030038000
038030038000
038030038000
038030038000
038030038000
038030038000
038030038000
038030038000
038030038000
038030038000
038030038000
038030038000
038030038000
038030038000
038030038000
038030038000
038030038000
038030038000
038030038000
038030038000
038030038000
038030038000
038030038000
038030038000
038030038000
038030038000
038030038000
038030038000
038000038000
038000038000
038000038000
038000038000
03C000078000
03C000078000
03E0000F8000
03F0001F8000
03F8003F8000
03FE00FF8000
03FFFFFF8000
03FFFFFF8000
03FFFFFF8000
03FFFFFF8000
03FFFFFF8000
01FFFFFF0000
01FFFFFF0000
00FFFFFE0000
00FFFFFC0000
007FFFFC0000
003FFFF00000
000FFFE00000
0003FF800000
ENDCHAR
STARTCHAR 00FC
ENCODING 252
SWIDTH 461 0
DWIDTH 24 0
BBX 28 76 -1 -13
BITMAP
FFFFFFE0
FFFFFFE0
FFFFFFE0
E00E00E0
E00E00E0
E00E00E0
E00E00E0
E00E00E0
E00E00E0
E00E00E0
E00E00E0
E00E00E0
E00E00E0
E00E00E0
FFFFFFE0
FFFFFFF0
FFFFFFF0
7FFFFFF0
70060070
70060070
70060070
70060070
70060070
70060070
70060070
70060070
70060070
70060070
70060070
70060070
70060070
70060070
70060070
70060070
70060070
70060070
70060070
70060070
70060070
70060070
70060070
70060070
70060070
70060070
70060070
70060070
70060070
70060070
70060070
70060070
70060070
70060070
70060070
70000070
70000070
70000070
70000070
780000F0
780000F0
7C0001F0
7E0003F0
7F0007F0
7FC01FF0
7FFFFFF0
7FFFFFF0
7FFFFFF0
7FFFFFF0
7FFFFFF0
3FFFFFE0
3FFFFFE0
1FFFFFC0
1FFFFF80
0FFFFF80
07FFFE00
01FFFC00
007FF000
ENDCHAR
STARTCHAR 00FD
ENCODING 253
SWIDTH 461 0
DWIDTH 24 0
BBX 29 78 0 -13
BITMAP
000FFFF8
000FFFF8
001FFFF0
001C00E0
003C01E0
003801C0
007003C0
00F00380
00E00780
01E00700
01C00F00
03C00E00
03801C00
07803C00
07003800
0E007800
1FFFF000
FFFFFFE0
FFFFFFE0
FFFFFFE0
E00C00E0
E00C00E0
E00C00E0
E00C00E0
E00C00E0
E00C00E0
E00C00E0
E00C00E0
E00C00E0
E00C00E0
E00C00E0
E00C00E0
E00C00E0
E00C00E0
E00C00E0
E00C00E0
E00C00E0
E00C00E0
E00C00E0
E00C00E0
E00C00E0
E00C00E0
E00C00E0
E00000E0
E00000E0
E00000E0
E00000E0
700000E0
700000E0
780000E0
3C0000E0
1E0000E0
FF8000E0
FFFC00E0
FFFC00E0
E00000E0
E00000E0
E00000E0
E00000E0
E00001E0
E00001E0
E00003E0
E00007E0
E0000FE0
E0003FE0
FFFFFFE0
FFFFFFE0
FFFFFFE0
FFFFFFE0
FFFFFFE0
FFFFFFC0
FFFFFFC0
FFFFFF80
FFFFFF00
FFFFFF00
FFFFFC00
FFFFF800
FFFFE000
ENDCHAR
STARTCHAR 00FF
ENCODING 255
SWIDTH 461 0
DWIDTH 24 0
BBX 28 76 -1 -13
BITMAP
FFFFFFE0
FFFFFFE0
FFFFFFE0
E00E00E0
E00E00E0
E00E00E0
E00E00E0
E00E00E0
E00E00E0
E00E00E0
E00E00E0
E00E00E0
E00E00E0
E00E00E0
FFFFFFE0
FFFFFFF0
FFFFFFF0
7FFFFFF0
70060070
70060070
70060070
70060070
70060070
70060070
70060070
70060070
70060070
70060070
70060070
70060070
70060070
70060070
70060070
70060070
70060070
70060070
70060070
70060070
70060070
70060070
70060070
70000070
70000070
70000070
70000070
38000070
38000070
3C000070
1E000070
0F000070
7FC00070
7FFE0070
7FFE0070
70000070
70000070
70000070
70000070
700000F0
700000F0
700001F0
700003F0
700007F0
70001FF0
7FFFFFF0
7FFFFFF0
7FFFFFF0
7FFFFFF0
7FFFFFF0
7FFFFFE0
7FFFFFE0
7FFFFFC0
7FFFFF80
7FFFFF80
7FFFFE00
7FFFFC00
7FFFF000
ENDCHAR
STARTCHAR 0131
ENCODING 305
SWIDTH 230 0
DWIDTH 12 0
BBX 15 56 0 -14
BITMAP
FFFE
FFFE
FFFE
E00E
E00E
E00E
E00E
E00E
E00E
E00E
E00E
E00E
E00E
E00E
E00E
E00E
E00E
E00E
E00E
E00E
E00E
E00E
E00E
E00E
E00E
E00E
E00E
E00E
E00E
E00E
E00E
E00E
E00E
E00E
E00E
E00E
E00E
E00E
E00E
E00E
E00E
E00E
E00E
FFFE
FFFE
FFFE
FFFE
FFFE
FFFE
FFFE
FFFE
FFFE
FFFE
FFFE
FFFE
FFFE
ENDCHAR
STARTCHAR 0141
ENCODING 321
SWIDTH 269 0
DWIDTH 14 0
BBX 39 39 2 5
BITMAP
07FFFFFFC0
1FFFFFFFF0
3F03FFC0F8
7C00FF003C
78007E001C
F8007C000E
F000380006
E000380006
E000100002
E000100002
E000100002
E000100002
E000100002
E000380006
F000380006
F0007C000E
F8007E001E
FC00FF003E
FF03FFC0FE
FFFFFFFFFE
FF03FFC0FE
FC00FF003E
F8007E001E
F8007C000E
F000380006
E000380006
E000100002
E000100002
E000100002
E000100002
E000100002
E000380006
F000380006
F0007C000E
78007E001C
7C00FF003C
3F03FFC0F8
1FFFFFFFF0
07FFFFFFC0
ENDCHAR
STARTCHAR 0142
ENCODING 322
SWIDTH 269 0
DWIDTH 14 0
BBX 39 39 2 5
BITMAP
07FFFFFFC0
1FFFFFFFF0
3F03FFC0F8
7C00FF003C
78007E001C
F8007C000E
F000380006
E000380006
E000100002
E000100002
E000100002
E000100002
E000100002
E000380006
F000380006
F0007C000E
F8007E001E
FC00FF003E
FF03FFC0FE
FFFFFFFFFE
FF03FFC0FE
FC00FF003E
F8007E001E
F8007C000E
F000380006
E000380006
E000100002
E000100002
E000100002
E000100002
E000100002
E000380006
F000380006
F0007C000E
78007E001C
7C00FF003C
3F03FFC0F8
1FFFFFFFF0
07FFFFFFC0
ENDCHAR
STARTCHAR 0152
ENCODING 338
SWIDTH 730 0
DWIDTH 38 0
BBX 41 61 0 -13
BITMAP
00FFE3FF8000
03FFFFFFE000
0FFFFFFFF000
1F801C00FC00
3E0000003C00
3C0000001E00
780000000F00
700000000700
F00000000700
E00000000380
E00000000380
E00000000380
E00000000380
E00600700380
E00600700380
E00600700380
E00600700380
E00600700380
E00600700380
E00600000380
E00600000380
E00600000380
E00600000380
E00600000380
E00600000380
E00600000380
E00600000380
E00600000380
E00600000380
E00600000380
E006007FFF80
E006007FFF80
E006007FFF80
E00600700380
E00600700380
E00600700380
E00600700380
E00600700380
E00600700380
E00000000380
E00000000380
E00000000380
F00000000780
F00000000780
F80000000F80
FC0000001F80
FE0000003F80
FF801C00FF80
FFFFFFFFFF80
FFFFFFFFFF80
FFFFFFFFFF80
FFFFFFFFFF80
FFFFFFFFFF80
7FFFFFFFFF00
7FFFFFFFFF00
3FFFFFFFFE00
3FFFFFFFFC00
1FFFFFFFFC00
0FFFFFFFF000
03FFFFFFE000
00FFE3FF8000
ENDCHAR
STARTCHAR 0153
ENCODING 339
SWIDTH 730 0
DWIDTH 38 0
BBX 41 61 0 -13
BITMAP
00FFE3FF8000
03FFFFFFE000
0FFFFFFFF000
1F801C00FC00
3E0000003C00
3C0000001E00
780000000F00
700000000700
F00000000780
E00000000380
E00000000380
E00000000380
E00000000380
E00600700380
E00600700380
E00600700380
E00600700380
E00600700380
E00600700380
E00600000380
E00600000380
E00600000380
E00600000380
E00600000380
E00600000380
E00600000380
E00600000380
E00600000380
E00600000380
E00600000380
E006007FFF80
E006007FFF80
E006007FFF80
E00600700380
E00600700380
E00600700380
E00600700380
E00600700380
E00600700380
E00000000380
E00000000380
E00000000380
F00000000780
F00000000780
F80000000F80
FC0000001F80
FE0000003F80
FF801C00FF80
FFFFFFFFFF80
FFFFFFFFFF80
FFFFFFFFFF80
FFFFFFFFFF80
FFFFFFFFFF80
7FFFFFFFFF00
7FFFFFFFFF00
3FFFFFFFFE00
3FFFFFFFFE00
1FFFFFFFFC00
0FFFFFFFF800
03FFFFFFE000
00FFE3FF8000
ENDCHAR
STARTCHAR 0160
ENCODING 352
SWIDTH 596 0
DWIDTH 31 0
BBX 34 61 0 -13
BITMAP
000007FFC0
00003FFFC0
0000FFFFC0
0001FC01C0
0003E001C0
00078001C0
000F0001C0
001E0001C0
001C0001C0
003C0001C0
00380001C0
00380001C0
00700001C0
007001FFC0
007003FFC0
007007FFC0
007007FFC0
007007FFC0
007007FFC0
007007FFC0
007007FFC0
007007FFC0
007007FFC0
007007FFC0
007007FFC0
007007FFC0
0070070000
0070070000
0070070000
0070070000
0070070000
0070070000
0070070000
0070070000
0070070000
FFF0070000
FFE0070000
FFC0070000
E000070000
E0000F0000
E0000F0000
E0001F0000
E0001F0000
E0003F0000
E0007F0000
E000FF0000
E003FF0000
E00FFF0000
FFFFFF0000
FFFFFE0000
FFFFFE0000
FFFFFE0000
FFFFFC0000
FFFFFC0000
FFFFF80000
FFFFF00000
FFFFE00000
FFFFC00000
FFFF800000
FFFE000000
FFF0000000
ENDCHAR
STARTCHAR 0161
ENCODING 353
SWIDTH 596 0
DWIDTH 31 0
BBX 34 61 0 -13
BITMAP
000007FFC0
00003FFFC0
0000FFFFC0
0001FC01C0
0003E001C0
00078001C0
000F0001C0
001E0001C0
001C0001C0
003C0001C0
00380001C0
00380001C0
00700001C0
007001FFC0
007003FFC0
007007FFC0
007007FFC0
007007FFC0
007007FFC0
007007FFC0
007007FFC0
007007FFC0
007007FFC0
007007FFC0
007007FFC0
007007FFC0
0070070000
0070070000
0070070000
0070070000
0070070000
0070070000
0070070000
0070070000
0070070000
FFF0070000
FFE0070000
FFC0070000
E000070000
E0000F0000
E0000F0000
E0001F0000
E0001F0000
E0003F0000
E0007F0000
E000FF0000
E003FF0000
E00FFF0000
FFFFFF0000
FFFFFE0000
FFFFFE0000
FFFFFE0000
FFFFFC0000
FFFFFC0000
FFFFF80000
FFFFF00000
FFFFE00000
FFFFC00000
FFFF800000
FFFE000000
FFF0000000
ENDCHAR
STARTCHAR 0178
ENCODING 376
SWIDTH 480 0
DWIDTH 25 0
BBX 32 76 -1 -13
BITMAP
FFFFFFE0
FFFFFFE0
FFFFFFE0
E00E00E0
E00E00E0
E00E00E0
E00E00E0
E00E00E0
E00E00E0
E00E00E0
E00E00E0
E00E00E0
E00E00E0
E00E00E0
FFFFFFE0
FFFFFFFF
FFFFFFFE
7FFFFFFE
7003C01E
7801801C
3801801C
3801803C
3C010038
1C000038
1C000078
1C000070
0E000070
0E0000F0
0E0000E0
070000E0
070001C0
070001C0
038001C0
03800380
03800380
01C00780
01C00700
01C00700
01E00F00
00E00E00
00E00E00
00E00E00
00E00E00
00E00E00
00E00E00
00E00E00
00E00E00
00E00E00
00E00E00
00E00E00
00E00E00
00E00E00
00E00E00
00E00E00
00E00E00
00E00E00
00E00E00
00E00E00
00E00E00
00E00E00
00E00E00
00E00E00
00E00E00
00FFFE00
00FFFE00
00FFFE00
00FFFE00
00FFFE00
00FFFE00
00FFFE00
00FFFE00
00FFFE00
00FFFE00
00FFFE00
00FFFE00
00FFFE00
ENDCHAR
STARTCHAR 017D
ENCODING 381
SWIDTH 480 0
DWIDTH 25 0
BBX 33 61 -3 -13
BITMAP
1FFFFFFF80
1FFFFFFF00
1FFFFFFF00
1C00000F00
1C00000E00
1C00000E00
1C00001E00
1C00001C00
1C00001C00
1C00003C00
1C00003800
1C00003800
1C00007800
1FFF007000
1FFF007000
1FFE00F000
000E00E000
001C00E000
001C01E000
001C01C000
003801C000
003803C000
0038038000
0070038000
0070078000
0070070000
00E0070000
00E00F0000
00E00E0000
01C00E0000
01C01E0000
01C01C0000
03801C0000
03803C0000
0780380000
07003FFE00
07007FFE00
0F007FFE00
0E00000E00
0E00000E00
1E00000E00
1C00000E00
1C00000E00
3C00000E00
3800000E00
3800000E00
7800000E00
7000000E00
7FFFFFFE00
FFFFFFFE00
FFFFFFFE00
FFFFFFFE00
FFFFFFFE00
FFFFFFFE00
FFFFFFFE00
FFFFFFFE00
FFFFFFFE00
FFFFFFFE00
FFFFFFFE00
FFFFFFFE00
FFFFFFFE00
ENDCHAR
STARTCHAR 017E
ENCODING 382
SWIDTH 480 0
DWIDTH 25 0
BBX 33 61 -3 -13
BITMAP
1FFFFFFF80
1FFFFFFF00
1FFFFFFF00
1C00000F00
1C00000E00
1C00000E00
1C00001E00
1C00001C00
1C00001C00
1C00003C00
1C00003800
1C00003800
1C00007800
1FFF007000
1FFF007000
1FFE00F000
000E00E000
001C00E000
001C01E000
001C01C000
003801C000
003803C000
0038038000
0070038000
0070078000
0070070000
00E0070000
00E00F0000
00E00E0000
01C00E0000
01C01E0000
01C01C0000
03801C0000
03803C0000
0780380000
07003FFE00
07007FFE00
0F007FFE00
0E00000E00
0E00000E00
1E00000E00
1C00000E00
1C00000E00
3C00000E00
3800000E00
3800000E00
7800000E00
7000000E00
7FFFFFFE00
FFFFFFFE00
FFFFFFFE00
FFFFFFFE00
FFFFFFFE00
FFFFFFFE00
FFFFFFFE00
FFFFFFFE00
FFFFFFFE00
FFFFFFFE00
FFFFFFFE00
FFFFFFFE00
FFFFFFFE00
ENDCHAR
STARTCHAR 0192
ENCODING 402
SWIDTH 269 0
DWIDTH 14 0
BBX 39 39 2 5
BITMAP
07FFFFFFC0
1FFFFFFFF0
3F03FFC0F8
7C00FF003C
78007E001C
F8007C000E
F000380006
E000380006
E000100002
E000100002
E000100002
E000100002
E000100002
E000380006
F000380006
F0007C000E
F8007E001E
FC00FF003E
FF03FFC0FE
FFFFFFFFFE
FF03FFC0FE
FC00FF003E
F8007E001E
F8007C000E
F000380006
E000380006
E000100002
E000100002
E000100002
E000100002
E000100002
E000380006
F000380006
F0007C000E
78007E001C
7C00FF003C
3F03FFC0F8
1FFFFFFFF0
07FFFFFFC0
ENDCHAR
STARTCHAR 02C6
ENCODING 710
SWIDTH 230 0
DWIDTH 12 0
BBX 43 18 -11 40
BITMAP
00007FC00000
0000FFE00000
0001FFF00000
0003E0F80000
0007C07C0000
000F803E0000
001F001F0000
003E000F8000
007C0007C000
00F00001E000
01E00000F000
03C000007800
078000003C00
0F0004001E00
1E000E000F00
3FFFFFFFFF80
7FFFFFFFFFC0
FFFFFBFFFFE0
ENDCHAR
STARTCHAR 02DA
ENCODING 730
SWIDTH 576 0
DWIDTH 30 0
BBX 21 19 1 40
BITMAP
03FE00
0FFF80
1FFFC0
3E03E0
7800F0
700070
E00038
E00038
E07038
E07038
E07038
E00038
E00038
700070
7800F0
3C03E0
1FFFC0
0FFF80
03FE00
ENDCHAR
STARTCHAR 02DB
ENCODING 731
SWIDTH 365 0
DWIDTH 19 0
BBX 20 21 6 -18
BITMAP
FFFE00
FFFE00
FFFE00
E00E00
E00E00
E00E00
E00FF0
E00FF0
E00FF0
E00070
E00070
700070
700070
700070
380070
3C0070
1E0070
0F8070
07FFF0
03FFF0
007FF0
ENDCHAR
STARTCHAR 02DC
ENCODING 732
SWIDTH 461 0
DWIDTH 24 0
BBX 24 19 2 33
BITMAP
601F80
7E7FE0
7FFFF8
FFE0FC
E1803C
E0001E
E0000E
E0000E
E0000E
E00007
E00007
E00006
E00006
F00006
7803C6
3E0FFE
3FFFFE
0FFC7C
03F00C
ENDCHAR
STARTCHAR 0394
ENCODING 916
SWIDTH 269 0
DWIDTH 14 0
BBX 39 39 2 5
BITMAP
07FFFFFFC0
1FFFFFFFF0
3F03FFC0F8
7C00FF003C
78007E001C
F8007C000E
F000380006
E000380006
E000100002
E000100002
E000100002
E000100002
E000100002
E000380006
F000380006
F0007C000E
F8007E001E
FC00FF003E
FF03FFC0FE
FFFFFFFFFE
FF03FFC0FE
FC00FF003E
F8007E001E
F8007C000E
F000380006
E000380006
E000100002
E000100002
E000100002
E000100002
E000100002
E000380006
F000380006
F0007C000E
78007E001C
7C00FF003C
3F03FFC0F8
1FFFFFFFF0
07FFFFFFC0
ENDCHAR
STARTCHAR 03A9
ENCODING 937
SWIDTH 596 0
DWIDTH 31 0
BBX 33 64 0 -13
BITMAP
00FFFF8000
03FFFFE000
0FFFFFF000
1F8000FC00
3E00003C00
3C00001E00
7800000F00
7000000700
F000000700
E000000380
E000000380
E000000380
E000000380
E00FF80380
E00FF80380
E00FF80380
E00E380380
E00E380380
E00E380380
E00E380380
E00E380380
E00E380380
E00E380380
E00E380380
E00E380380
E00E380380
E00E380380
E00E380380
E00E380380
E00E380380
E00FF80380
E00FF80380
E00FF80380
E000800380
E000800380
E000800380
E000800380
7000800700
7000800700
F800800F80
FC00801F80
E000800380
E000800380
E000800380
E000800380
E001C00380
E001C00380
E003E00380
E007F00380
E00FF80380
E03FFE0380
FFFFFFFF80
FFFFFFFF80
FFFFFFFF80
FFFFFFFF80
FFFFFFFF80
FFFFFFFF80
FFFFFFFF80
FFFFFFFF80
FFFF7FFF80
FFFE3FFF80
FFFC1FFF80
FFF80FFF80
FFC003FF80
ENDCHAR
STARTCHAR 03BC
ENCODING 956
SWIDTH 269 0
DWIDTH 14 0
BBX 39 39 2 5
BITMAP
07FFFFFFC0
1FFFFFFFF0
3F03FFC0F8
7C00FF003C
78007E001C
F8007C000E
F000380006
E000380006
E000100002
E000100002
E000100002
E000100002
E000100002
E000380006
F000380006
F0007C000E
F8007E001E
FC00FF003E
FF03FFC0FE
FFFFFFFFFE
FF03FFC0FE
FC00FF003E
F8007E001E
F8007C000E
F000380006
E000380006
E000100002
E000100002
E000100002
E000100002
E000100002
E000380006
F000380006
F0007C000E
78007E001C
7C00FF003C
3F03FFC0F8
1FFFFFFFF0
07FFFFFFC0
ENDCHAR
STARTCHAR 03C0
ENCODING 960
SWIDTH 269 0
DWIDTH 14 0
BBX 39 39 2 5
BITMAP
07FFFFFFC0
1FFFFFFFF0
3F03FFC0F8
7C00FF003C
78007E001C
F8007C000E
F000380006
E000380006
E000100002
E000100002
E000100002
E000100002
E000100002
E000380006
F000380006
F0007C000E
F8007E001E
FC00FF003E
FF03FFC0FE
FFFFFFFFFE
FF03FFC0FE
FC00FF003E
F8007E001E
F8007C000E
F000380006
E000380006
E000100002
E000100002
E000100002
E000100002
E000100002
E000380006
F000380006
F0007C000E
78007E001C
7C00FF003C
3F03FFC0F8
1FFFFFFFF0
07FFFFFFC0
ENDCHAR
STARTCHAR 2010
ENCODING 8208
SWIDTH 269 0
DWIDTH 14 0
BBX 17 26 0 7
BITMAP
FFFF80
FFFF80
FFFF80
E00380
E00380
E00380
E00380
E00380
E00380
E00380
E00380
E00380
E00380
FFFF80
FFFF80
FFFF80
FFFF80
FFFF80
FFFF80
FFFF80
FFFF80
FFFF80
FFFF80
FFFF80
FFFF80
FFFF80
ENDCHAR
STARTCHAR 2013
ENCODING 8211
SWIDTH 307 0
DWIDTH 16 0
BBX 18 25 0 2
BITMAP
FFFFC0
FFFFC0
FFFFC0
E001C0
E001C0
E001C0
E001C0
E001C0
E001C0
E001C0
E001C0
E001C0
FFFFC0
FFFFC0
FFFFC0
FFFFC0
FFFFC0
FFFFC0
FFFFC0
FFFFC0
FFFFC0
FFFFC0
FFFFC0
FFFFC0
FFFFC0
ENDCHAR
STARTCHAR 2014
ENCODING 8212
SWIDTH 557 0
DWIDTH 29 0
BBX 32 25 0 2
BITMAP
FFFFFFFF
FFFFFFFF
FFFFFFFF
E0000007
E0000007
E0000007
E0000007
E0000007
E0000007
E0000007
E0000007
E0000007
FFFFFFFF
FFFFFFFF
FFFFFFFF
FFFFFFFF
FFFFFFFF
FFFFFFFF
FFFFFFFF
FFFFFFFF
FFFFFFFF
FFFFFFFF
FFFFFFFF
FFFFFFFF
FFFFFFFF
ENDCHAR
STARTCHAR 2018
ENCODING 8216
SWIDTH 230 0
DWIDTH 12 0
BBX 15 32 0 19
BITMAP
FFFE
FFFE
FFFE
E00E
E00E
E00E
E00E
E00E
E00E
E00E
E00E
E00E
E00E
E00E
E00E
E00E
E00E
E00E
E00E
FFFE
FFFE
FFFE
FFFE
FFFE
FFFE
FFFE
FFFE
FFFE
FFFE
FFFE
FFFE
FFFE
ENDCHAR
STARTCHAR 2019
ENCODING 8217
SWIDTH 230 0
DWIDTH 12 0
BBX 15 32 0 19
BITMAP
FFFE
FFFE
FFFE
E00E
E00E
E00E
E00E
E00E
E00E
E00E
E00E
E00E
E00E
E00E
E00E
E00E
E00E
E00E
E00E
FFFE
FFFE
FFFE
FFFE
FFFE
FFFE
FFFE
FFFE
FFFE
FFFE
FFFE
FFFE
FFFE
ENDCHAR
STARTCHAR 201A
ENCODING 8218
SWIDTH 269 0
DWIDTH 14 0
BBX 39 39 2 5
BITMAP
07FFFFFFC0
1FFFFFFFF0
3F03FFC0F8
7C00FF003C
78007E001C
F8007C000E
F000380006
E000380006
E000100002
E000100002
E000100002
E000100002
E000100002
E000380006
F000380006
F0007C000E
F8007E001E
FC00FF003E
FF03FFC0FE
FFFFFFFFFE
FF03FFC0FE
FC00FF003E
F8007E001E
F8007C000E
F000380006
E000380006
E000100002
E000100002
E000100002
E000100002
E000100002
E000380006
F000380006
F0007C000E
78007E001C
7C00FF003C
3F03FFC0F8
1FFFFFFFF0
07FFFFFFC0
ENDCHAR
STARTCHAR 201C
ENCODING 8220
SWIDTH 500 0
DWIDTH 26 0
BBX 28 32 0 19
BITMAP
FFFFFFF0
FFFFFFF0
FFFFFFF0
E00F0070
E00F0070
E00F0070
E00F0070
E00F0070
E00F0070
E00F0070
E00F0070
E00F0070
E00F0070
E00F0070
E00F0070
E00F0070
E00F0070
E00F0070
E00F0070
FFFFFFF0
FFFFFFF0
FFFFFFF0
FFFFFFF0
FFFFFFF0
FFFFFFF0
FFFFFFF0
FFFFFFF0
FFFFFFF0
FFFFFFF0
FFFFFFF0
FFFFFFF0
FFFFFFF0
ENDCHAR
STARTCHAR 201D
ENCODING 8221
SWIDTH 500 0
DWIDTH 26 0
BBX 28 32 0 19
BITMAP
FFFFFFF0
FFFFFFF0
FFFFFFF0
E00F0070
E00F0070
E00F0070
E00F0070
E00F0070
E00F0070
E00F0070
E00F0070
E00F0070
E00F0070
E00F0070
E00F0070
E00F0070
E00F0070
E00F0070
E00F0070
FFFFFFF0
FFFFFFF0
FFFFFFF0
FFFFFFF0
FFFFFFF0
FFFFFFF0
FFFFFFF0
FFFFFFF0
FFFFFFF0
FFFFFFF0
FFFFFFF0
FFFFFFF0
FFFFFFF0
ENDCHAR
STARTCHAR 201E
ENCODING 8222
SWIDTH 269 0
DWIDTH 14 0
BBX 39 39 2 5
BITMAP
07FFFFFFC0
1FFFFFFFF0
3F03FFC0F8
7C00FF003C
78007E001C
F8007C000E
F000380006
E000380006
E000100002
E000100002
E000100002
E000100002
E000100002
E000380006
F000380006
F0007C000E
F8007E001E
FC00FF003E
FF03FFC0FE
FFFFFFFFFE
FF03FFC0FE
FC00FF003E
F8007E001E
F8007C000E
F000380006
E000380006
E000100002
E000100002
E000100002
E000100002
E000100002
E000380006
F000380006
F0007C000E
78007E001C
7C00FF003C
3F03FFC0F8
1FFFFFFFF0
07FFFFFFC0
ENDCHAR
STARTCHAR 2020
ENCODING 8224
SWIDTH 269 0
DWIDTH 14 0
BBX 39 39 2 5
BITMAP
07FFFFFFC0
1FFFFFFFF0
3F03FFC0F8
7C00FF003C
78007E001C
F8007C000E
F000380006
E000380006
E000100002
E000100002
E000100002
E000100002
E000100002
E000380006
F000380006
F0007C000E
F8007E001E
FC00FF003E
FF03FFC0FE
FFFFFFFFFE
FF03FFC0FE
FC00FF003E
F8007E001E
F8007C000E
F000380006
E000380006
E000100002
E000100002
E000100002
E000100002
E000100002
E000380006
F000380006
F0007C000E
78007E001C
7C00FF003C
3F03FFC0F8
1FFFFFFFF0
07FFFFFFC0
ENDCHAR
STARTCHAR 2021
ENCODING 8225
SWIDTH 269 0
DWIDTH 14 0
BBX 39 39 2 5
BITMAP
07FFFFFFC0
1FFFFFFFF0
3F03FFC0F8
7C00FF003C
78007E001C
F8007C000E
F000380006
E000380006
E000100002
E000100002
E000100002
E000100002
E000100002
E000380006
F000380006
F0007C000E
F8007E001E
FC00FF003E
FF03FFC0FE
FFFFFFFFFE
FF03FFC0FE
FC00FF003E
F8007E001E
F8007C000E
F000380006
E000380006
E000100002
E000100002
E000100002
E000100002
E000100002
E000380006
F000380006
F0007C000E
78007E001C
7C00FF003C
3F03FFC0F8
1FFFFFFFF0
07FFFFFFC0
ENDCHAR
STARTCHAR 2022
ENCODING 8226
SWIDTH 326 0
DWIDTH 17 0
BBX 15 16 3 13
BITMAP
FFFE
FFFE
FFFE
FFFE
FFFE
FFFE
FFFE
FFFE
FFFE
FFFE
FFFE
FFFE
FFFE
FFFE
FFFE
FFFE
ENDCHAR
STARTCHAR 2026
ENCODING 8230
SWIDTH 692 0
DWIDTH 36 0
BBX 34 11 3 0
BITMAP
FFCFFCFFC0
FFCFFCFFC0
FFCFFCFFC0
FFCFFCFFC0
FFCFFCFFC0
FFCFFCFFC0
FFCFFCFFC0
FFCFFCFFC0
FFCFFCFFC0
FFCFFCFFC0
FFCFFCFFC0
ENDCHAR
STARTCHAR 2030
ENCODING 8240
SWIDTH 269 0
DWIDTH 14 0
BBX 39 39 2 5
BITMAP
07FFFFFFC0
1FFFFFFFF0
3F03FFC0F8
7C00FF003C
78007E001C
F8007C000E
F000380006
E000380006
E000100002
E000100002
E000100002
E000100002
E000100002
E000380006
F000380006
F0007C000E
F8007E001E
FC00FF003E
FF03FFC0FE
FFFFFFFFFE
FF03FFC0FE
FC00FF003E
F8007E001E
F8007C000E
F000380006
E000380006
E000100002
E000100002
E000100002
E000100002
E000100002
E000380006
F000380006
F0007C000E
78007E001C
7C00FF003C
3F03FFC0F8
1FFFFFFFF0
07FFFFFFC0
ENDCHAR
STARTCHAR 2039
ENCODING 8249
SWIDTH 269 0
DWIDTH 14 0
BBX 39 39 2 5
BITMAP
07FFFFFFC0
1FFFFFFFF0
3F03FFC0F8
7C00FF003C
78007E001C
F8007C000E
F000380006
E000380006
E000100002
E000100002
E000100002
E000100002
E000100002
E000380006
F000380006
F0007C000E
F8007E001E
FC00FF003E
FF03FFC0FE
FFFFFFFFFE
FF03FFC0FE
FC00FF003E
F8007E001E
F8007C000E
F000380006
E000380006
E000100002
E000100002
E000100002
E000100002
E000100002
E000380006
F000380006
F0007C000E
78007E001C
7C00FF003C
3F03FFC0F8
1FFFFFFFF0
07FFFFFFC0
ENDCHAR
STARTCHAR 203A
ENCODING 8250
SWIDTH 269 0
DWIDTH 14 0
BBX 39 39 2 5
BITMAP
07FFFFFFC0
1FFFFFFFF0
3F03FFC0F8
7C00FF003C
78007E001C
F8007C000E
F000380006
E000380006
E000100002
E000100002
E000100002
E000100002
E000100002
E000380006
F000380006
F0007C000E
F8007E001E
FC00FF003E
FF03FFC0FE
FFFFFFFFFE
FF03FFC0FE
FC00FF003E
F8007E001E
F8007C000E
F000380006
E000380006
E000100002
E000100002
E000100002
E000100002
E000100002
E000380006
F000380006
F0007C000E
78007E001C
7C00FF003C
3F03FFC0F8
1FFFFFFFF0
07FFFFFFC0
ENDCHAR
STARTCHAR 2044
ENCODING 8260
SWIDTH 461 0
DWIDTH 24 0
BBX 33 61 -3 -13
BITMAP
00007FFF80
00007FFF80
0000FFFF00
0000E00700
0000E00700
0001E00700
0001C00E00
0001C00E00
0003C00E00
0003801E00
0003801C00
0007001C00
0007003C00
0007003800
000E003800
000E007800
000E007800
001C007000
001C00F000
001C00F000
003800E000
003801E000
003801E000
007001E000
007003C000
007003C000
00E003C000
00E0078000
01E0078000
01C0078000
01C00F8000
03C00F0000
03800F0000
03801F0000
07801E0000
07001E0000
07003E0000
0F003E0000
0E003C0000
0E007C0000
1E007C0000
1C00780000
1C00F80000
3C00F80000
3801F80000
3801F00000
7801F00000
7003F00000
7FFFE00000
FFFFE00000
FFFFE00000
FFFFE00000
FFFFC00000
FFFFC00000
FFFFC00000
FFFFC00000
FFFF800000
FFFF800000
FFFF800000
FFFF000000
FFFF000000
ENDCHAR
STARTCHAR 2122
ENCODING 8482
SWIDTH 942 0
DWIDTH 49 0
BBX 52 35 0 16
BITMAP
FFFE003FE7F800
FFFE00FFFFFE00
FFFFFFFFFFFF00
E00FFFE0300F80
E00FFF800003C0
E00007000001E0
E00006000000E0
E00006000000F0
E0000400000070
E0000400000070
E0000400000070
E0000401008070
E0000401008070
E01FFC01008070
E01FFC01008070
E01FFC01008070
E0180401008070
E0180401008070
E0180401008070
E0180401008070
E0180401008070
E0180401008070
E0180401008070
E0000401008070
E0000401008070
E0000401008070
F0000C01008070
70000C01008070
78001C01008070
3C003C01008070
3E007C01008070
1F81FC01008070
0FFFEFFFFFFFF0
03FF8FFFFFFFF0
00FE0FFFFFFFF0
ENDCHAR
STARTCHAR 2126
ENCODING 8486
SWIDTH 596 0
DWIDTH 31 0
BBX 33 64 0 -13
BITMAP
00FFFF8000
03FFFFE000
0FFFFFF000
1F8000FC00
3E00003C00
3C00001E00
7800000F00
7000000700
F000000700
E000000380
E000000380
E000000380
E000000380
E00FF80380
E00FF80380
E00FF80380
E00E380380
E00E380380
E00E380380
E00E380380
E00E380380
E00E380380
E00E380380
E00E380380
E00E380380
E00E380380
E00E380380
E00E380380
E00E380380
E00E380380
E00FF80380
E00FF80380
E00FF80380
E000800380
E000800380
E000800380
E000800380
7000800700
7000800700
F800800F80
FC00801F80
E000800380
E000800380
E000800380
E000800380
E001C00380
E001C00380
E003E00380
E007F00380
E00FF80380
E03FFE0380
FFFFFFFF80
FFFFFFFF80
FFFFFFFF80
FFFFFFFF80
FFFFFFFF80
FFFFFFFF80
FFFFFFFF80
FFFFFFFF80
FFFF7FFF80
FFFE3FFF80
FFFC1FFF80
FFF80FFF80
FFC003FF80
ENDCHAR
STARTCHAR 2202
ENCODING 8706
SWIDTH 269 0
DWIDTH 14 0
BBX 39 39 2 5
BITMAP
07FFFFFFC0
1FFFFFFFF0
3F03FFC0F8
7C00FF003C
78007E001C
F8007C000E
F000380006
E000380006
E000100002
E000100002
E000100002
E000100002
E000100002
E000380006
F000380006
F0007C000E
F8007E001E
FC00FF003E
FF03FFC0FE
FFFFFFFFFE
FF03FFC0FE
FC00FF003E
F8007E001E
F8007C000E
F000380006
E000380006
E000100002
E000100002
E000100002
E000100002
E000100002
E000380006
F000380006
F0007C000E
78007E001C
7C00FF003C
3F03FFC0F8
1FFFFFFFF0
07FFFFFFC0
ENDCHAR
STARTCHAR 2206
ENCODING 8710
SWIDTH 269 0
DWIDTH 14 0
BBX 39 39 2 5
BITMAP
07FFFFFFC0
1FFFFFFFF0
3F03FFC0F8
7C00FF003C
78007E001C
F8007C000E
F000380006
E000380006
E000100002
E000100002
E000100002
E000100002
E000100002
E000380006
F000380006
F0007C000E
F8007E001E
FC00FF003E
FF03FFC0FE
FFFFFFFFFE
FF03FFC0FE
FC00FF003E
F8007E001E
F8007C000E
F000380006
E000380006
E000100002
E000100002
E000100002
E000100002
E000100002
E000380006
F000380006
F0007C000E
78007E001C
7C00FF003C
3F03FFC0F8
1FFFFFFFF0
07FFFFFFC0
ENDCHAR
STARTCHAR 220F
ENCODING 8719
SWIDTH 269 0
DWIDTH 14 0
BBX 39 39 2 5
BITMAP
07FFFFFFC0
1FFFFFFFF0
3F03FFC0F8
7C00FF003C
78007E001C
F8007C000E
F000380006
E000380006
E000100002
E000100002
E000100002
E000100002
E000100002
E000380006
F000380006
F0007C000E
F8007E001E
FC00FF003E
FF03FFC0FE
FFFFFFFFFE
FF03FFC0FE
FC00FF003E
F8007E001E
F8007C000E
F000380006
E000380006
E000100002
E000100002
E000100002
E000100002
E000100002
E000380006
F000380006
F0007C000E
78007E001C
7C00FF003C
3F03FFC0F8
1FFFFFFFF0
07FFFFFFC0
ENDCHAR
STARTCHAR 2211
ENCODING 8721
SWIDTH 269 0
DWIDTH 14 0
BBX 39 39 2 5
BITMAP
07FFFFFFC0
1FFFFFFFF0
3F03FFC0F8
7C00FF003C
78007E001C
F8007C000E
F000380006
E000380006
E000100002
E000100002
E000100002
E000100002
E000100002
E000380006
F000380006
F0007C000E
F8007E001E
FC00FF003E
FF03FFC0FE
FFFFFFFFFE
FF03FFC0FE
FC00FF003E
F8007E001E
F8007C000E
F000380006
E000380006
E000100002
E000100002
E000100002
E000100002
E000100002
E000380006
F000380006
F0007C000E
78007E001C
7C00FF003C
3F03FFC0F8
1FFFFFFFF0
07FFFFFFC0
ENDCHAR
STARTCHAR 2219
ENCODING 8729
SWIDTH 269 0
DWIDTH 14 0
BBX 39 39 2 5
BITMAP
07FFFFFFC0
1FFFFFFFF0
3F03FFC0F8
7C00FF003C
78007E001C
F8007C000E
F000380006
E000380006
E000100002
E000100002
E000100002
E000100002
E000100002
E000380006
F000380006
F0007C000E
F8007E001E
FC00FF003E
FF03FFC0FE
FFFFFFFFFE
FF03FFC0FE
FC00FF003E
F8007E001E
F8007C000E
F000380006
E000380006
E000100002
E000100002
E000100002
E000100002
E000100002
E000380006
F000380006
F0007C000E
78007E001C
7C00FF003C
3F03FFC0F8
1FFFFFFFF0
07FFFFFFC0
ENDCHAR
STARTCHAR 221A
ENCODING 8730
SWIDTH 269 0
DWIDTH 14 0
BBX 39 39 2 5
BITMAP
07FFFFFFC0
1FFFFFFFF0
3F03FFC0F8
7C00FF003C
78007E001C
F8007C000E
F000380006
E000380006
E000100002
E000100002
E000100002
E000100002
E000100002
E000380006
F000380006
F0007C000E
F8007E001E
FC00FF003E
FF03FFC0FE
FFFFFFFFFE
FF03FFC0FE
FC00FF003E
F8007E001E
F8007C000E
F000380006
E000380006
E000100002
E000100002
E000100002
E000100002
E000100002
E000380006
F000380006
F0007C000E
78007E001C
7C00FF003C
3F03FFC0F8
1FFFFFFFF0
07FFFFFFC0
ENDCHAR
STARTCHAR 221E
ENCODING 8734
SWIDTH 269 0
DWIDTH 14 0
BBX 39 39 2 5
BITMAP
07FFFFFFC0
1FFFFFFFF0
3F03FFC0F8
7C00FF003C
78007E001C
F8007C000E
F000380006
E000380006
E000100002
E000100002
E000100002
E000100002
E000100002
E000380006
F000380006
F0007C000E
F8007E001E
FC00FF003E
FF03FFC0FE
FFFFFFFFFE
FF03FFC0FE
FC00FF003E
F8007E001E
F8007C000E
F000380006
E000380006
E000100002
E000100002
E000100002
E000100002
E000100002
E000380006
F000380006
F0007C000E
78007E001C
7C00FF003C
3F03FFC0F8
1FFFFFFFF0
07FFFFFFC0
ENDCHAR
STARTCHAR 222B
ENCODING 8747
SWIDTH 269 0
DWIDTH 14 0
BBX 39 39 2 5
BITMAP
07FFFFFFC0
1FFFFFFFF0
3F03FFC0F8
7C00FF003C
78007E001C
F8007C000E
F000380006
E000380006
E000100002
E000100002
E000100002
E000100002
E000100002
E000380006
F000380006
F0007C000E
F8007E001E
FC00FF003E
FF03FFC0FE
FFFFFFFFFE
FF03FFC0FE
FC00FF003E
F8007E001E
F8007C000E
F000380006
E000380006
E000100002
E000100002
E000100002
E000100002
E000100002
E000380006
F000380006
F0007C000E
78007E001C
7C00FF003C
3F03FFC0F8
1FFFFFFFF0
07FFFFFFC0
ENDCHAR
STARTCHAR 2248
ENCODING 8776
SWIDTH 269 0
DWIDTH 14 0
BBX 39 39 2 5
BITMAP
07FFFFFFC0
1FFFFFFFF0
3F03FFC0F8
7C00FF003C
78007E001C
F8007C000E
F000380006
E000380006
E000100002
E000100002
E000100002
E000100002
E000100002
E000380006
F000380006
F0007C000E
F8007E001E
FC00FF003E
FF03FFC0FE
FFFFFFFFFE
FF03FFC0FE
FC00FF003E
F8007E001E
F8007C000E
F000380006
E000380006
E000100002
E000100002
E000100002
E000100002
E000100002
E000380006
F000380006
F0007C000E
78007E001C
7C00FF003C
3F03FFC0F8
1FFFFFFFF0
07FFFFFFC0
ENDCHAR
STARTCHAR 2260
ENCODING 8800
SWIDTH 269 0
DWIDTH 14 0
BBX 39 39 2 5
BITMAP
07FFFFFFC0
1FFFFFFFF0
3F03FFC0F8
7C00FF003C
78007E001C
F8007C000E
F000380006
E000380006
E000100002
E000100002
E000100002
E000100002
E000100002
E000380006
F000380006
F0007C000E
F8007E001E
FC00FF003E
FF03FFC0FE
FFFFFFFFFE
FF03FFC0FE
FC00FF003E
F8007E001E
F8007C000E
F000380006
E000380006
E000100002
E000100002
E000100002
E000100002
E000100002
E000380006
F000380006
F0007C000E
78007E001C
7C00FF003C
3F03FFC0F8
1FFFFFFFF0
07FFFFFFC0
ENDCHAR
STARTCHAR 2264
ENCODING 8804
SWIDTH 269 0
DWIDTH 14 0
BBX 39 39 2 5
BITMAP
07FFFFFFC0
1FFFFFFFF0
3F03FFC0F8
7C00FF003C
78007E001C
F8007C000E
F000380006
E000380006
E000100002
E000100002
E000100002
E000100002
E000100002
E000380006
F000380006
F0007C000E
F8007E001E
FC00FF003E
FF03FFC0FE
FFFFFFFFFE
FF03FFC0FE
FC00FF003E
F8007E001E
F8007C000E
F000380006
E000380006
E000100002
E000100002
E000100002
E000100002
E000100002
E000380006
F000380006
F0007C000E
78007E001C
7C00FF003C
3F03FFC0F8
1FFFFFFFF0
07FFFFFFC0
ENDCHAR
STARTCHAR 2265
ENCODING 8805
SWIDTH 269 0
DWIDTH 14 0
BBX 39 39 2 5
BITMAP
07FFFFFFC0
1FFFFFFFF0
3F03FFC0F8
7C00FF003C
78007E001C
F8007C000E
F000380006
E000380006
E000100002
E000100002
E000100002
E000100002
E000100002
E000380006
F000380006
F0007C000E
F8007E001E
FC00FF003E
FF03FFC0FE
FFFFFFFFFE
FF03FFC0FE
FC00FF003E
F8007E001E
F8007C000E
F000380006
E000380006
E000100002
E000100002
E000100002
E000100002
E000100002
E000380006
F000380006
F0007C000E
78007E001C
7C00FF003C
3F03FFC0F8
1FFFFFFFF0
07FFFFFFC0
ENDCHAR
STARTCHAR 22F2
ENCODING 8946
SWIDTH 269 0
DWIDTH 14 0
BBX 39 39 2 5
BITMAP
07FFFFFFC0
1FFFFFFFF0
3F03FFC0F8
7C00FF003C
78007E001C
F8007C000E
F000380006
E000380006
E000100002
E000100002
E000100002
E000100002
E000100002
E000380006
F000380006
F0007C000E
F8007E001E
FC00FF003E
FF03FFC0FE
FFFFFFFFFE
FF03FFC0FE
FC00FF003E
F8007E001E
F8007C000E
F000380006
E000380006
E000100002
E000100002
E000100002
E000100002
E000100002
E000380006
F000380006
F0007C000E
78007E001C
7C00FF003C
3F03FFC0F8
1FFFFFFFF0
07FFFFFFC0
ENDCHAR
STARTCHAR 25CA
ENCODING 9674
SWIDTH 480 0
DWIDTH 25 0
BBX 27 64 0 -13
BITMAP
00FFE000
03FFF800
0FFFFE00
1F803F00
3E000F80
3C000780
780003C0
700001C0
F00001E0
E00000E0
E00000E0
E00000E0
E00000E0
E00E00E0
E00E00E0
E00E00E0
E00E00E0
E00E00E0
E00E00E0
E00E00E0
E00E00E0
E00FFFE0
E00000E0
E00000E0
E00000E0
E00000E0
E00000E0
E00000E0
E00000E0
E00000E0
E00000E0
E00000E0
E00000E0
E00FFFE0
E00E00E0
E00E00E0
E00E00E0
E00E00E0
E00E00E0
E00E00E0
E00E00E0
E00000E0
E00000E0
E00000E0
E00000E0
F00001E0
F00001E0
F80003E0
FC0007E0
FE000FE0
FF003FE0
FFFFFFE0
FFFFFFE0
FFFFFFE0
FFFFFFE0
FFFFFFE0
7FFFFFC0
7FFFFFC0
3FFFFF80
3FFFFF80
1FFFFF00
0FFFFE00
03FFF800
00FFE000
ENDCHAR
STARTCHAR F000
ENCODING 61440
SWIDTH 807 0
DWIDTH 42 0
BBX 34 38 5 6
BITMAP
0007F80000
003FFF0000
00F001C000
0181FE6000
07077FB800
0E1E08EC00
0C24091600
1844090E00
30840D0B00
2083F20580
6100000580
410B933280
C10B95D2C0
C10972B2C0
D139710240
ED39300240
D51910D240
8300000240
8301FFC440
9A82004440
D142004840
CB43FF88C0
C1200010C0
7118006080
6204008180
3C03FF0100
3000000300
1800060600
0C00000C00
0600001800
0380003000
034000E000
0338072000
0307F82000
03C001E000
01FFFEE000
00FFFFC000
000FFC0000
ENDCHAR
STARTCHAR F001
ENCODING 61441
SWIDTH 711 0
DWIDTH 37 0
BBX 39 61 0 -13
BITMAP
00FFE0FFFE
03FFF8FFFE
0FFFFCFFFE
1F803FE00E
3E000FE00E
3C0007E00E
780003E00E
700001E00E
F00001E00E
E00000E00E
E00000E00E
E00000E00E
E00000E00E
E00C00FFFE
E00C00FFFE
E00C00E00E
E00C00E00E
E00C00E00E
E00C00E00E
E00C00E00E
E00C00E00E
E00C00E00E
E00C00E00E
E00C00E00E
E00C00E00E
E00C00E00E
E00FFFE00E
E00FFFE00E
E00000E00E
E00000E00E
E00000E00E
E00000E00E
E00000E00E
E00000E00E
E00000E00E
E00000E00E
E00000E00E
E00000E00E
E00FFFE00E
E00FFFE00E
E00FFFE00E
E00FFFE00E
E00FFFE00E
E00FFFE00E
E00FFFE00E
E00FFFE00E
E00FFFE00E
E00FFFE00E
FFFFFFFFFE
FFFFFFFFFE
FFFFFFFFFE
FFFE00FFFE
FFFE00FFFE
FFFE00FFFE
FFFE00FFFE
FFFE00FFFE
FFFE00FFFE
FFFE00FFFE
FFFE00FFFE
FFFE00FFFE
FFFE00FFFE
ENDCHAR
STARTCHAR F002
ENCODING 61442
SWIDTH 807 0
DWIDTH 42 0
BBX 44 61 0 -13
BITMAP
00FFE0FFFE00
03FFF8FFFE00
0FFFFCFFFE00
1F803FE00E00
3E000FE00E00
3C0007E00E00
780003E00E00
700001E00E00
F00001E00E00
E00000E00E00
E00000E00E00
E00000E00E00
E00000E00E00
E00C00E00E00
E00C00E00E00
E00C00E00E00
E00C00E00E00
E00C00E00E00
E00C00E00E00
E00C00E00E00
E00C00E00E00
E00C00E00E00
E00C00E00E00
E00C00E00E00
E00C00E00E00
E00C00E00E00
E00FFFE00E00
E00FFFE00E00
E00000E00E00
E00000E00E00
E00000E00E00
E00000E00E00
E00000E00E00
E00000E00E00
E00000E00E00
E00000E00FF0
E00000E00FF0
E00000E00FF0
E00FFFE00070
E00FFFE00070
E00FFFE00070
E00FFFE00070
E00FFFE00070
E00FFFE00070
E00FFFE00070
E00FFFE00070
E00FFFE00070
E00FFFE00070
FFFFFFFFFFF0
FFFFFFFFFFF0
FFFFFFFFFFF0
FFFE00FFFFF0
FFFE00FFFFF0
FFFE00FFFFF0
FFFE00FFFFF0
FFFE00FFFFF0
FFFE00FFFFF0
FFFE00FFFFF0
FFFE00FFFFF0
FFFE00FFFFF0
FFFE00FFFFF0
ENDCHAR
ENDFONT
